<?xml version="1.0" encoding="utf-8"?>
<!-- Generator: Adobe Illustrator 20.0.0, SVG Export Plug-In . SVG Version: 6.00 Build 0)  -->
<svg version="1.1" id="Layer_1" xmlns="http://www.w3.org/2000/svg" xmlns:xlink="http://www.w3.org/1999/xlink" x="0px" y="0px"
	 width="400px" height="400px" viewBox="0 0 400 400" style="enable-background:new 0 0 400 400;" xml:space="preserve">
<style type="text/css">
	.st0{fill:#FDBB30;}
	.st1{fill:#002D62;}
	.st2{fill:#860038;}
	.st3{clip-path:url(#SVGID_2_);}
	.st4{clip-path:url(#SVGID_4_);}
	.st5{clip-path:url(#SVGID_6_);}
	.st6{clip-path:url(#SVGID_8_);}
	.st7{clip-path:url(#SVGID_10_);}
	.st8{fill:#FFFFFF;}
	.st9{clip-path:url(#SVGID_12_);}
	.st10{clip-path:url(#SVGID_14_);}
</style>
<g>
	<g>
		<path class="st0" d="M120.8,202.1c-3.2-55.8,39.4-103.7,95.2-106.9c55.8-3.2,103.7,39.4,106.9,95.3
			c3.2,55.8-39.4,103.7-95.2,106.9C171.9,300.5,124,257.9,120.8,202.1"/>
	</g>
	<g>
		<path class="st1" d="M318.2,190.7c3.1,53.2-37.6,98.8-90.8,101.9c-53.2,3.1-98.8-37.6-101.9-90.8c-3.1-53.2,37.6-98.8,90.8-101.9
			C269.5,96.9,315.1,137.5,318.2,190.7"/>
	</g>
	<g>
		<path class="st2" d="M233.9,107.9c34,4.6,62.4,28.5,72.8,60.9c-25.7-25.1-58.3-39.8-92-38.8C216.1,118.8,225,111.5,233.9,107.9
			 M201.6,109.4c4.9-1.1,10-1.9,15.1-2.2c2.2-0.1,4.3-0.2,6.5-0.1c-7.5,4.7-14.2,12.6-15.4,23.4c-4.6,0.4-9.2,1.2-13.8,2.2
			C195.8,122.5,198.5,114.4,201.6,109.4 M169,124.5c7.7-5.7,16.4-10.2,25.8-13.2c-2.8,5.4-5.2,13.3-6.9,22.9
			c-4.9,1.4-9.7,3.1-14.6,5.2C173.2,135.1,172.1,130.5,169,124.5 M140.3,160.2c5.4-12.3,13.6-23.1,23.7-31.8c3,2.9,3.4,8.7,2.9,14
			C157.9,147,149,152.9,140.3,160.2 M136.5,170.6c0.2-0.7,0.4-1.3,0.6-1.9C137,169.3,136.8,169.9,136.5,170.6 M146.2,243.4
			c-7.7-12.3-12.4-26.6-13.3-42c-0.6-10.3,0.6-20.3,3.3-29.7c9.4-9,19.3-16.2,29.5-21.7l-0.1,0.4c-3.3,12.5-11.5,22.9-16.3,34.6
			C141.7,203.6,141.9,225.3,146.2,243.4 M239,283.8c-3.9,0.8-7.9,1.3-12,1.5c-26.7,1.5-51.4-8.9-68.8-26.6
			c-9.3-18.5-11.2-47.5-4.9-66.9c3.4-10.4,13.2-24.5,16.3-35c1.1-3.9,2.1-7.1,2.8-10.2c4.7-2.2,9.5-4,14.3-5.4
			C181.3,182.6,189.3,248,239,283.8 M291.3,252.2c-11.3,14.1-26.9,24.7-44.8,29.8c-49.7-36.5-58.6-102-53.5-142.5
			c4.9-1.2,9.8-2,14.7-2.5c1,12.2,8.8,27.3,28.4,45C257.5,202.4,283.9,229.4,291.3,252.2 M310.9,191.2c1.1,19.9-4.3,38.6-14.5,54.1
			c-7.7-22.2-32.7-46.7-53.8-66.7c-18.9-17.1-26.6-31-27.9-42c35.6-1.1,70.2,15.9,95.3,46.2C310.4,185.5,310.7,188.3,310.9,191.2"/>
	</g>
	<g>
		<path class="st0" d="M366.2,254.1l-37.3-10c6.8-5.2,29.6-10.8,29.9-22.8c0-0.2,0-0.3,0-0.5c12.2-9.7,16.5-23.4,12.3-42.1
			l15.7-39.1c0,0-40.6,9.8-47.1,11.3l6.1-18.3l-144.8,35.6c-34.3-15-76.1-3.2-108.9,16.1L67,177.9c-22.9-5.9-43.1-10.9-63-6.4
			c15.2,13.6,35.3,18.9,58.2,24.9l8.9,2.3c-8.8,6.9-16.3,14.2-22,21.1l-5.7,7l20.7-3.3C16.3,298.9,94.9,327,147.8,261l54.9-14.4
			c-7.6,10.1-7.6,25.2-7.6,25.2l3.3-2.5c16.6-14,35.8-21,50.6-24l35.2,9.2c-0.1,0.1-0.1,0.3-0.1,0.6c-1.2,19.4,7.7,32.5,27.7,35.8
			c1.2,0.2,2,0.4,3.5,0.7c-0.4-4.2-0.4-7.3-0.2-11.5c15.2,10.8,31.8,8.9,45.6-3.1l1,2.5c14.8,3.6,22.2-21.4,21.1-27
			C382.8,252.2,374.9,251.1,366.2,254.1"/>
	</g>
	<g>
		<g>
			<g>
				<defs>
					<path id="SVGID_1_" d="M136.5,170.6c0.3-0.6,0.5-1.2,0.6-1.9C136.9,169.3,136.7,169.9,136.5,170.6 M136.1,171.7
						c-2.7,9.4-3.9,19.4-3.3,29.7c0.9,15.5,5.7,29.8,13.3,42c-4.3-18.2-4.5-39.8,3.1-58.5c4.7-11.7,13-22.1,16.3-34.6l0.1-0.4
						C155.5,155.5,145.6,162.7,136.1,171.7 M172.4,146.6c-0.7,3.1-1.7,6.4-2.8,10.2c-3,10.5-12.9,24.6-16.3,35
						c-6.3,19.4-4.5,48.4,4.8,66.9c17.4,17.7,42,28.1,68.8,26.6c4.1-0.2,8.1-0.7,12-1.5c-49.7-35.8-57.7-101.1-52.2-142.6
						C181.9,142.6,177.2,144.4,172.4,146.6 M192.9,139.5c-5.1,40.5,3.8,106,53.5,142.5c18-5.1,33.5-15.7,44.8-29.8
						c-7.4-22.8-33.8-49.8-55.2-70.1c-19.6-17.7-27.3-32.9-28.4-45C202.8,137.5,197.8,138.3,192.9,139.5 M217.8,136.5
						c-1,0-2.1,0-3.1,0c1.3,10.9,9,24.9,27.9,42c21.1,20,46.1,44.5,53.8,66.7c10.2-15.5,15.6-34.2,14.5-54.1
						c-0.2-2.8-0.5-5.6-0.9-8.4C285.6,153.3,252.3,136.5,217.8,136.5C217.8,136.5,217.8,136.5,217.8,136.5 M140.3,160.2
						c8.7-7.3,17.6-13.2,26.6-17.8c0.5-5.3,0.1-11.1-2.9-14C153.9,137.1,145.7,148,140.3,160.2 M169,124.5c3.1,6,4.3,10.6,4.3,15
						c4.8-2.1,9.7-3.8,14.6-5.2c1.7-9.6,4.2-17.5,6.9-22.9C185.4,114.3,176.7,118.8,169,124.5 M214.7,130.1
						c33.7-1,66.3,13.7,92,38.8c-10.4-32.4-38.8-56.3-72.8-60.9C225,111.5,216.1,118.8,214.7,130.1 M216.7,107.3
						c-5.2,0.3-10.2,1-15.1,2.2c-3.1,4.9-5.8,13-7.6,23.2c4.6-1,9.2-1.8,13.8-2.2c1.3-10.8,8-18.7,15.4-23.4c-0.4,0-0.7,0-1.1,0
						C220.3,107.1,218.5,107.2,216.7,107.3"/>
				</defs>
				<clipPath id="SVGID_2_">
					<use xlink:href="#SVGID_1_"  style="overflow:visible;"/>
				</clipPath>
				<g class="st3">
					<path class="st0" d="M366.2,254.1l-37.3-10c6.8-5.2,29.6-10.8,29.9-22.8c0-0.2,0-0.3,0-0.5c12.2-9.7,16.5-23.4,12.3-42.1
						l15.7-39.1c0,0-40.6,9.8-47.1,11.3l6.1-18.3l-144.8,35.6c-34.3-15-76.1-3.2-108.9,16.1L67,177.9c-22.9-5.9-43.1-10.9-63-6.4
						c15.2,13.6,35.3,18.9,58.2,24.9l8.9,2.3c-8.8,6.9-16.3,14.2-22,21.1l-5.7,7l20.7-3.3C16.3,298.9,94.9,327,147.8,261l54.9-14.4
						c-7.6,10.1-7.6,25.2-7.6,25.2l3.3-2.5c16.6-14,35.8-21,50.6-24l35.2,9.2c-0.1,0.1-0.1,0.3-0.1,0.6
						c-1.2,19.4,7.7,32.5,27.7,35.8c1.2,0.2,2,0.4,3.5,0.7c-0.4-4.2-0.4-7.3-0.2-11.5c15.2,10.8,31.8,8.9,45.6-3.1l1,2.5
						c14.8,3.6,22.2-21.4,21.1-27C382.8,252.2,374.9,251.1,366.2,254.1"/>
				</g>
			</g>
		</g>
	</g>
	<g>
		<g>
			<g>
				<defs>
					<path id="SVGID_3_" d="M137.1,168.6c-0.1,0.7-0.3,1.3-0.6,1.9C136.7,169.9,136.9,169.3,137.1,168.6 M132.8,201.4
						c-0.6-10.3,0.6-20.3,3.3-29.7c9.4-9,19.3-16.2,29.5-21.7l-0.1,0.4c-3.3,12.5-11.5,22.9-16.3,34.6c-7.6,18.7-7.4,40.3-3.1,58.5
						C138.5,231.2,133.7,216.9,132.8,201.4 M158.2,258.7c-9.3-18.5-11.2-47.5-4.8-66.9c3.4-10.4,13.2-24.4,16.3-35
						c1.1-3.9,2.1-7.1,2.8-10.2c4.7-2.2,9.5-4,14.3-5.4c-5.5,41.5,2.6,106.8,52.2,142.6c-3.9,0.8-7.9,1.3-12,1.5
						c-1.7,0.1-3.5,0.2-5.2,0.2C197.1,285.4,174.5,275.3,158.2,258.7 M192.9,139.5c4.9-1.2,9.8-2,14.7-2.5c1,12.2,8.8,27.3,28.4,45
						c21.4,20.4,47.9,47.3,55.2,70.1c-11.3,14.1-26.9,24.7-44.8,29.8C196.7,245.5,187.9,180,192.9,139.5 M242.6,178.5
						c-18.9-17.1-26.6-31-27.9-42c35.6-1,70.2,15.8,95.3,46.2c0.4,2.8,0.7,5.5,0.9,8.4c1.1,19.9-4.3,38.6-14.5,54.1
						C288.7,223.1,263.6,198.6,242.6,178.5 M164,128.4c3,2.9,3.4,8.7,2.9,14c-9,4.6-17.9,10.5-26.6,17.8
						C145.7,148,153.9,137.1,164,128.4 M169,124.5c7.7-5.7,16.4-10.2,25.8-13.2c-2.8,5.4-5.2,13.4-6.9,22.9
						c-4.9,1.4-9.7,3.1-14.6,5.2C173.2,135.1,172.1,130.5,169,124.5 M233.9,107.9c34,4.6,62.4,28.5,72.8,60.9
						c-25.7-25.1-58.3-39.8-92-38.8C216.1,118.8,225,111.5,233.9,107.9 M201.6,109.4c4.9-1.1,9.9-1.9,15.1-2.2
						c2.2-0.1,4.3-0.2,6.5-0.1c-7.5,4.7-14.2,12.6-15.4,23.4c-4.6,0.4-9.2,1.2-13.8,2.2C195.8,122.5,198.5,114.4,201.6,109.4
						 M216.3,100c-53.2,3.1-93.8,48.7-90.8,101.9c3.1,53.2,48.7,93.8,101.9,90.8c53.2-3.1,93.8-48.7,90.8-101.9
						c-3-51.3-45.5-90.9-96.2-90.9C220.1,99.8,218.2,99.8,216.3,100"/>
				</defs>
				<clipPath id="SVGID_4_">
					<use xlink:href="#SVGID_3_"  style="overflow:visible;"/>
				</clipPath>
				<g class="st4">
					<path class="st0" d="M366.2,254.1l-37.3-10c6.8-5.2,29.6-10.8,29.9-22.8c0-0.2,0-0.3,0-0.5c12.2-9.7,16.5-23.4,12.3-42.1
						l15.7-39.1c0,0-40.6,9.8-47.1,11.3l6.1-18.3l-144.8,35.6c-34.3-15-76.1-3.2-108.9,16.1L67,177.9c-22.9-5.9-43.1-10.9-63-6.4
						c15.2,13.6,35.3,18.9,58.2,24.9l8.9,2.3c-8.8,6.9-16.3,14.2-22,21.1l-5.7,7l20.7-3.3C16.3,298.9,94.9,327,147.8,261l54.9-14.4
						c-7.6,10.1-7.6,25.2-7.6,25.2l3.3-2.5c16.6-14,35.8-21,50.6-24l35.2,9.2c-0.1,0.1-0.1,0.3-0.1,0.6
						c-1.2,19.4,7.7,32.5,27.7,35.8c1.2,0.2,2,0.4,3.5,0.7c-0.4-4.2-0.4-7.3-0.2-11.5c15.2,10.8,31.8,8.9,45.6-3.1l1,2.5
						c14.8,3.6,22.2-21.4,21.1-27C382.8,252.2,374.9,251.1,366.2,254.1"/>
				</g>
			</g>
		</g>
	</g>
	<g>
		<g>
			<path class="st1" d="M380.5,255.4c-8.2-1.5-13.6,1.9-13.8,1.9c-0.1,0-28.5-7.6-39-10.5l-5.5-1.5c3.5-4.8,10.4-6.9,17.2-9.9
				c3-1.3,7-2.9,10.1-5c5.5-3.8,6.3-6.4,6.3-6.4c-10,0.3-19.5-2.4-21.1-2.7c-4.4-0.9-8.8-1.1-13-0.6c-0.1,0-0.3,0-0.4,0.1
				c-11.4,1.4-21.6,7.4-27.7,16.3c0,0-0.7,1-1,1.3c-0.8,0.9-1.9,2.2-1.9,2.2l3.3,0.9c2.3,0.4,1,5.4-2,4.6l-14.6-3.8
				c-5.7,0.5-11.7,1-15.7,1.2c-2.1,0.2-4.4,0.4-6.8,0.8l32.5,8.5c-2.3,21.2,9,34.2,25.1,35.5c0-2.2-0.1-6.7,0-14.8
				c0,0,23.1,24.8,49.6-1.9c0.2-0.2,2.2,5,2.2,5C375.7,278,380.9,255.5,380.5,255.4"/>
		</g>
	</g>
	<g>
		<g>
			<g>
				<defs>
					<path id="SVGID_5_" d="M310.3,225.6c-6.1,3.5-14.5,12.2-14.5,12.2s-0.5,1.3,0.7,3.5c0.6,1.1,1.2,1.9,1.7,2.5
						c0-0.9,0.4-1.9,1-2.7c5.7-7.3,15.7-15.2,28.8-14.6c-13,2.3-21.8,10.6-27.4,18.3c-0.8,0.9-1.5,1.1-1.9,0.8
						c-0.1,1.6-1.1,3.5-2.5,3.8c-1.5,0.3-7.2,4.9-7.2,4.9v2.8l0.5,8.8c0,0,1.1,6.2,3.1,8.8c2,2.5,7.8,10.9,17,11.8
						c0,0,0.7-22.3,3.5-28.9c2.8-6.6,6.5-14.3,12.5-17.5c6-3.2,15.1-6.4,19.9-8.9c4.8-2.5,6.9-5.3,6.9-5.3s-9.8-0.4-17.8-1.7
						c-3.4-0.6-7.2-1-10.9-1C318.7,222.9,313.8,223.6,310.3,225.6"/>
				</defs>
				<clipPath id="SVGID_6_">
					<use xlink:href="#SVGID_5_"  style="overflow:visible;"/>
				</clipPath>
				<g class="st5">
					<path class="st0" d="M332.7,225.5c-13.5-2.4-25.9,1.9-34.8,14.5c1.7,1.1,2.8,3.7,2.6,6.6c-0.2,3.6-2.4,6.5-4.8,6.6
						c0,0.1,0,0.1,0,0.2c0,0,0,0,0,0c0.3,5.5,2.2,10.8,4.9,13.6c1-9.5,6.1-22.4,20.3-30.3c-14.2,12.4-17,30.1-16,42.3
						c-6.6-1.3-12.2-12.5-14.1-18.4c1.5,10.1,7.8,22.1,17.4,22.7c-2-19.3,5.5-39.3,18.2-46c5.2-2.8,12.5-4.6,20.5-9.7
						C338.4,226.8,335.7,226,332.7,225.5"/>
				</g>
			</g>
		</g>
	</g>
	<g>
		<path class="st1" d="M380.3,144.6c-0.1,0.1-32.1,7.8-45.7,11.1l6.1-18.3L200.8,172c-32.1-14.6-71.8-4.5-103.7,13.4l62,15.6
			c-0.3,0.8-0.6,1.6-0.9,2.3l-94.1-23.7c-19.1-4.9-36.4-9.6-52.9-6.4c12.9,10.8,30.2,15,49.4,19.9l70.3,18.5
			c-1.3,0.5-2.5,1.1-3.5,1.6l-52-13.6c-9.5,7.2-17.5,14.8-23.6,22.2l18.6-2.4c-53.1,85.1,32.8,95.9,73.5,38.6l67.5-16.9
			c-6.2,6.1-9.8,14.8-11.7,22.6c20-17.3,46-22.6,61.7-23.7c9.5-0.7,20-1.7,28.1-2.6l2.3-2.9c7.4-10.1,18.2-15.1,29.5-16.2
			c8.9-0.9,12,0.4,15.7,1.1c1.7,0.5,7.9,2.1,14.2,2.4c16.4-9.5,21.2-23.4,16.4-43.4L380.3,144.6z M144.2,207.5l-69.9-18.2
			c-19.9-5.5-25.1-10-26.4-11.1l40.6,10.5l65.9,16.9C151.4,206.3,146.9,207,144.2,207.5"/>
	</g>
	<g>
		<g>
			<g>
				<defs>
					<path id="SVGID_7_" d="M68.8,213.2c5.5-4.5,11.1-8.5,16.7-12.2l26.9,7.4c-0.4,0.4-0.9,0.9-1.3,1.3c-60,62.6-20.5,73.1,23.1,49
						c0.9-0.5-6.2,6.1-6.2,6.1c-48.5,47.7-101.5,11.7-36.8-56.7c-6.9,2-20.8,5.2-22.3,5.2C68.9,213.3,68.8,213.2,68.8,213.2
						 M200.3,183.2C200.3,183.2,200.3,183.2,200.3,183.2C200.3,183.2,200.3,183.2,200.3,183.2 M106.5,188.8
						c40.3-20.3,77.7-21.3,93.8-5.6c-0.6-0.2-31.7,18.2-34.9,20.6c15.4-30.1-12.4-23.3-35.5-8.8L106.5,188.8z M287,221.8
						c34.9-5.2,72.3-13.9,59.1-33.8c-2.5-2.4-3.9-3-5.8-5.7c-8.6-11.6,6.1-24.9,22.7-23.8c1.1,0.1,4.1,0.5,4,0.6l-4.1,10.4
						c-3.3-5.3-14.2-6.6-15.6-0.1c-1.1,4.8,6.6,6.6,11,15c6.1,11.5-0.3,23.1-11.3,28.7c-4.3,2.2-8.7,4.1-13.2,5.7
						c-3.7,1-7.5,2-12.3,3.4c-4.4,1.2-5.7,2-22.4,4.6c-28.4,4.3-58.4,5.6-83.5,17.4C226.6,233,255.3,226.6,287,221.8 M201.1,168.1
						c-34.3-15-76.1-3.2-108.9,16.1L67,177.9c-22.9-5.9-43.1-10.9-63-6.4c15.2,13.6,35.3,18.9,58.2,24.9l8.9,2.3
						c-8.8,6.9-16.3,14.2-22,21.1l-5.7,7l20.7-3.3C16.3,298.9,94.9,327,147.8,261l54.9-14.4c-7.6,10.1-7.6,25.2-7.6,25.2l3.3-2.5
						c16.6-14,35.8-21,50.6-24l35.2,9.2c-0.1,0.1-0.1,0.3-0.1,0.6c-1.2,19.4,7.7,32.5,27.7,35.8c1.2,0.2,2,0.4,3.5,0.7
						c-0.4-4.2-0.4-7.3-0.2-11.5c15.2,10.8,31.8,8.9,45.6-3.1l1,2.5c14.8,3.6,22.2-21.4,21.1-27c0-0.1-7.9-1.3-16.7,1.7l-37.3-10
						c6.8-5.2,29.6-10.8,29.9-22.8c0-0.2,0-0.3,0-0.5c12.2-9.7,16.5-23.4,12.3-42.1l15.7-39.1c0,0-40.6,9.8-47.1,11.3l6.1-18.3
						L201.1,168.1z"/>
				</defs>
				<clipPath id="SVGID_8_">
					<use xlink:href="#SVGID_7_"  style="overflow:visible;"/>
				</clipPath>
				<g class="st6">
					<path class="st1" d="M380.3,144.6c-0.1,0.1-32.1,7.8-45.7,11.1l6.1-18.3L200.8,172c-32.1-14.6-71.8-4.5-103.7,13.4l62,15.6
						c-0.3,0.8-0.6,1.6-0.9,2.3l-94.1-23.7c-19.1-4.9-36.4-9.6-52.9-6.4c12.9,10.8,30.2,15,49.4,19.9l70.3,18.5
						c-1.3,0.5-2.5,1.1-3.5,1.6l-52-13.6c-9.5,7.2-17.5,14.8-23.6,22.2l18.6-2.4c-53.1,85.1,32.8,95.9,73.5,38.6l67.5-16.9
						c-6.2,6.1-9.8,14.8-11.7,22.6c20-17.3,46-22.6,61.7-23.7c9.5-0.7,20-1.7,28.1-2.6l2.3-2.9c7.4-10.1,18.2-15.1,29.5-16.2
						c8.9-0.9,12,0.4,15.7,1.1c1.7,0.5,7.9,2.1,14.2,2.4c16.4-9.5,21.2-23.4,16.4-43.4L380.3,144.6z M144.2,207.5l-69.9-18.2
						c-19.9-5.5-25.1-10-26.4-11.1l40.6,10.5l65.9,16.9C151.4,206.3,146.9,207,144.2,207.5"/>
				</g>
			</g>
		</g>
	</g>
	<g>
		<path class="st0" d="M368.2,260.2c2.8-1.4,6-2,9.1-2.4c-4.3,1.6-6.5,4.1-6.7,4c-1,2.4-1,4.9-6.4,7.7
			C365.9,266.8,368.4,263.7,368.2,260.2"/>
	</g>
	<g>
		<path class="st0" d="M313.6,264.8c5.9,13,23.1,16,33.5,13.8c-4.6,4-27.2,3.2-34-10.1L313.6,264.8z"/>
	</g>
	<g>
		<path class="st0" d="M319.9,248.3l44.6,11.6c1.5,0.4,0.8,4.5-1.1,4l-45.9-11.7C317.9,251,319.5,248.5,319.9,248.3"/>
	</g>
	<g>
		<path class="st0" d="M358,268c-16.1,15.9-41.4,5-41.3-7.9C317.1,260.1,333.2,271.9,358,268"/>
	</g>
	<g>
		<g>
			<g>
				<defs>
					<path id="SVGID_9_" d="M297.9,240c1.7,1.1,2.8,3.7,2.6,6.6c-0.2,3.6-2.4,6.5-4.8,6.6c0,0.1,0,0.1,0,0.2c0,0,0,0,0,0
						c0.3,5.5,2.2,10.8,4.9,13.6c1-9.5,6.1-22.4,20.3-30.3c-14.2,12.4-17,30.1-16,42.3c-6.6-1.3-12.2-12.5-14.1-18.4
						c1.5,10.1,7.8,22.1,17.4,22.7c-2-19.3,5.5-39.3,18.2-46c5.2-2.8,12.5-4.6,20.5-9.7c-8.6-0.7-11.3-1.5-14.4-2
						c-2.4-0.4-4.7-0.6-7-0.6C314.9,224.8,305.2,229.6,297.9,240"/>
				</defs>
				<clipPath id="SVGID_10_">
					<use xlink:href="#SVGID_9_"  style="overflow:visible;"/>
				</clipPath>
				<g class="st7">
					<path class="st8" d="M299.2,241c-2,2.4-1,6.3,1.4,3.7c5.6-7.6,14.4-16,27.4-18.3C314.9,225.8,304.9,233.7,299.2,241"/>
				</g>
			</g>
		</g>
	</g>
	<g>
		<path class="st8" d="M249.2,167.4l2.9-0.7l0.3,7.5l5.9-9l4-1.1l-11.6,15.6L249.2,167.4z M325.9,149.4l-0.4-0.1l-2.4,0.5l-4.3,11.1
			l1.9-0.5c0.1,0,0.4-0.1,1-0.4l0.7-0.3l4.1-10.2C326.2,149.5,326.1,149.4,325.9,149.4 M320.4,162l-6,1.5l5.6-14.2l6-1.5
			c1-0.2,2-0.3,2.9-0.1c0.9,0.1,1.5,0.3,1.3,0.8l-4.1,10.4c-0.2,0.5-1.1,1.1-2.3,1.7C322.6,161.2,321.4,161.7,320.4,162
			 M211.6,189.2c-0.9,0.2-1.9,0.3-2.9,0.3c-1.3,0-2-0.3-1.8-0.9l4.2-10.7c0.2-0.4,1.1-1,2.2-1.7c1.2-0.6,2.4-1.1,3.4-1.4l5.9-1.5
			l-1,2.5l-3.6,0.9l0.4-1l-1,0.2c-1,0.2-1.7,0.5-2.2,0.7c-0.4,0.2-0.5,0.3-0.6,0.4l-4.1,10.4c0,0,0,0.1,0.6,0.1c0.5,0,0.8-0.1,1-0.1
			c0.5-0.1,0.9-0.3,1.4-0.6c0.5-0.3,0.7-0.5,0.8-0.7l-0.2-0.5l4-1l-0.5,1.2c-0.2,0.6-1.3,1.2-2.7,1.9
			C213.8,188.5,212.6,189,211.6,189.2 M226.9,172.7l3.7-0.9l-4.9,12.6l6-1.5l-0.6,1.6l-9.6,2.4L226.9,172.7z M239.3,169.6l8.3-2
			l-0.6,1.5l-4.7,1.1l-1.7,4.3l4.7-1.1l-0.6,1.6l-4.7,1.1l-2.1,5.2l4.7-1.1l-0.6,1.5l-8.3,2L239.3,169.6z M265.4,163.1l8.3-2
			l-0.6,1.5l-4.7,1.1l-1.7,4.3l4.7-1.1l-0.6,1.6l-4.7,1.1l-2.1,5.2l4.7-1.2l-0.6,1.6l-8.3,2L265.4,163.1z M277.1,160.1l3.7-0.9
			l-4.9,12.6l6-1.5l-0.6,1.6l-9.7,2.4L277.1,160.1z M293.5,163.8l-3.4,0.8L288,170l-3.8,0.9l4.9-12.4c0.2-0.6,1.2-1.3,2.7-2
			c1.2-0.6,2.4-1,3.5-1.3c1.1-0.3,2.1-0.4,3.2-0.3c1.1,0,1.7,0.3,1.5,0.8l-4.9,12.5l-3.7,0.9L293.5,163.8z M296.2,156.8
			c-0.1,0-0.2,0-0.5-0.1c-0.5,0-0.9,0-1,0.1c-0.2,0-0.6,0.2-1.3,0.5c-0.3,0.1-0.5,0.2-0.6,0.3l-2.2,5.5l3.4-0.8L296.2,156.8
			L296.2,156.8z M308.1,161.1l-1.5-5.5l-3.7,10.9l-3.7,0.9l5.5-14.1l3.7-0.9l1.2,4.9l2.3-5.7l3.6-0.9l-5.6,14.1l-3.7,0.9
			L308.1,161.1z"/>
	</g>
	<g>
		<path class="st8" d="M172.8,207l5.7,3.5c-3,8.4-15.8,26.3-23.2,31.7l12.9-34.2l-9.9,2.6l-16.2,41.1l20.7-5.3
			c0.5-0.1,18.6-14.5,29-44.3L172.8,207z"/>
	</g>
	<g>
		<path class="st8" d="M112.7,243.2c-0.1,0-7.6,15.3-9.1,18.5l10.2-2.7l6.9-14.4l8.3-2.4l-5.7,14.4l10.9-2.8l16.8-41.6
			C145.4,214.2,125.5,214.5,112.7,243.2 M131.8,236.5l-8.1,2.3c0,0,6.8-13.2,13.7-15.3L131.8,236.5z"/>
	</g>
	<g>
		<path class="st8" d="M319.9,191.5c-0.6-0.8-1-2.5-1-2.5c0.3-0.2,0.7-0.3,1-0.5c6.7-3.8,14-15.1,13.7-22.8
			c-9.4,2.5-25.1,6.6-25.1,6.7l-15,41.2l9.7-2.5l6.4-17.7c0.7,1.7,5,11.9,13.4,12.7c9.7,1,15.3-8.6,15.3-8.6
			C335.8,199.5,324.3,200.4,319.9,191.5 M312,187.6l4.7-13.2l7.4-2C323.1,175.3,321.1,182.9,312,187.6"/>
	</g>
	<g>
		<path class="st8" d="M186.6,224.4c-0.1,0-7.4,15.1-9,18.2L188,240l6.7-14.1l8.3-2.4l-5.7,14.2l10.8-2.7l16.8-41.3
			C220,195,199.5,195.7,186.6,224.4 M205.8,217.7l-8.1,2.3c0,0,6.8-13.2,13.7-15.3L205.8,217.7z"/>
	</g>
	<g>
		<polygon class="st8" points="262.3,183.7 246.2,225.1 256.4,222.5 272.5,181.1 		"/>
	</g>
	<g>
		<path class="st8" d="M273.3,213.3l5.2-12.1l14.1-7.6l-11.3,0.8l4.9-13.2c6.2-1.9,9.3-0.1,11.9,3.8l4.7-11.6l-24.9,6.3l-16,41.3
			l25.3-6.6l5.4-12.8C287.1,208,280.8,212,273.3,213.3"/>
	</g>
	<g>
		<path class="st8" d="M227.8,224.9l13.5-35.8l-10.8,2.7l-15.9,41.4l27.3-7l6-14.7C240.7,220.1,236.9,223.4,227.8,224.9"/>
	</g>
	<g>
		<g>
			<g>
				<defs>
					<path id="SVGID_11_" d="M200.8,172c-32.1-14.6-71.8-4.5-103.7,13.4l62,15.6c-0.3,0.8-0.6,1.6-0.9,2.3l-27.4,8.4
						c-1.3,0.5-2.5,1.1-3.5,1.7l-52-13.6c-9.5,7.2-17.5,14.8-23.6,22.2l18.6-2.4c-53.1,85.1,32.8,95.9,73.5,38.6l67.5-16.9
						c-6.2,6.1-9.8,14.8-11.7,22.6c20-17.3,46-22.6,61.7-23.7c9.5-0.7,20-1.7,28.1-2.6l2.3-2.9c7.4-10.1,18.2-15.1,29.5-16.2
						c8.9-0.9,12,0.4,15.7,1.1c1.7,0.5,7.9,2.1,14.2,2.4c16.4-9.5,21.2-23.4,16.4-43.4l12.7-33.8c-0.1,0.1-32.1,7.8-45.7,11.1
						l6.1-18.3L200.8,172z"/>
				</defs>
				<clipPath id="SVGID_12_">
					<use xlink:href="#SVGID_11_"  style="overflow:visible;"/>
				</clipPath>
				<g class="st9">
					<path class="st8" d="M367,159.1l-4.1,10.4c-3.3-5.3-14.2-6.6-15.6-0.1c-1.1,4.8,6.6,6.6,11,15c6.1,11.5-0.3,23.1-11.3,28.7
						c-4.3,2.2-8.7,4.1-13.2,5.7c-3.7,1-7.5,2-12.3,3.4c-4.4,1.2-5.7,2-22.4,4.7c-28.4,4.3-58.4,5.6-83.5,17.4
						c10.9-11.2,39.6-17.6,71.4-22.4c34.9-5.2,72.3-13.9,59.1-33.8c-2.5-2.4-3.9-3-5.8-5.7c-8.6-11.6,6.1-24.9,22.7-23.8
						C364.1,158.6,367.1,159,367,159.1"/>
				</g>
			</g>
		</g>
		<g>
			<g>
				<defs>
					<path id="SVGID_13_" d="M200.8,172c-32.1-14.6-71.8-4.5-103.7,13.4l62,15.6c-0.3,0.8-0.6,1.6-0.9,2.3l-27.4,8.4
						c-1.3,0.5-2.5,1.1-3.5,1.7l-52-13.6c-9.5,7.2-17.5,14.8-23.6,22.2l18.6-2.4c-53.1,85.1,32.8,95.9,73.5,38.6l67.5-16.9
						c-6.2,6.1-9.8,14.8-11.7,22.6c20-17.3,46-22.6,61.7-23.7c9.5-0.7,20-1.7,28.1-2.6l2.3-2.9c7.4-10.1,18.2-15.1,29.5-16.2
						c8.9-0.9,12,0.4,15.7,1.1c1.7,0.5,7.9,2.1,14.2,2.4c16.4-9.5,21.2-23.4,16.4-43.4l12.7-33.8c-0.1,0.1-32.1,7.8-45.7,11.1
						l6.1-18.3L200.8,172z"/>
				</defs>
				<clipPath id="SVGID_14_">
					<use xlink:href="#SVGID_13_"  style="overflow:visible;"/>
				</clipPath>
				<g class="st10">
					<path class="st8" d="M200.3,183.2c-0.1-0.5-31.7,18.2-34.9,20.6c20.2-39.4-33.6-15.5-54.2,5.9c-60,62.6-20.5,73.1,23.1,49
						c0.9-0.5-6.2,6.1-6.2,6.1c-48.5,47.7-101.5,11.8-36.8-56.7c-7.3,2.1-22.5,5.5-22.5,5.1C121.5,170.7,179.3,162.6,200.3,183.2"/>
				</g>
			</g>
		</g>
	</g>
</g>
</svg>
