<?xml version="1.0" encoding="utf-8"?>
<!-- Generator: Adobe Illustrator 20.0.0, SVG Export Plug-In . SVG Version: 6.00 Build 0)  -->
<svg version="1.1" id="Layer_2" xmlns="http://www.w3.org/2000/svg" xmlns:xlink="http://www.w3.org/1999/xlink" x="0px" y="0px"
	 width="400px" height="400px" viewBox="0 0 400 400" style="enable-background:new 0 0 400 400;" xml:space="preserve">
<style type="text/css">
	.st0{fill:#ED174C;}
	.st1{fill:#006BB6;}
	.st2{fill:#FFFFFF;}
	.st3{fill:#002D62;}
</style>
<path class="st0" d="M161.5,228.3c0,11.2-6.7,17.7-20,19.4l-0.2,0c-8.7,0.8-15.7,1.6-22.9,2.5l-4.3,0.5l-0.1-18.6l-0.1-2.9v0
	c3.7-0.4,6.2-0.7,8.1-1c2.5-0.3,4.9-0.6,7.4-0.9v0c0-3.3-0.1-12.8-0.1-16c-5-1-12.4-3.3-16-11.3c-0.1-0.2-0.1-0.4-0.2-0.5v44.5
	c-0.1,0-0.1,0-0.2,0v6.8l-3,0.4c-6,0.8-12.2,1.8-19.3,3c19.1,13.5,49.6,26.8,96.9,29.4c0.7-12.2-4.6-25-12.9-38.3l-0.8,0v-1.3
	c-3.6-5.7-7.8-11.4-12.2-17.2L161.5,228.3z"/>
<path class="st0" d="M84.3,172.5c1.6-0.3,3.1-0.5,4.5-0.8v-0.3c7-1.3,13.8-2.4,20.8-3.4c1.1-0.2,2.3-0.3,3.4-0.5v9.5
	c0.8-2.8,2.3-5.2,4.3-7.1c-12.3-18.3-22.1-37.6-24.6-58c-15.9,18.6-26.4,41-30.6,64.9c0.3-0.1,0.6-0.1,0.9-0.2
	c1.3-0.3,3.4-0.7,4.4-1c0.3-0.1,0.5-0.1,0.6-0.1c0.4-0.1,0.8-0.2,1.2-0.3c0,0,0.1,0,0.1,0c0.1,0,0.1,0,0.1,0c0,0,0,0,0,0
	c0.2,0,0.6-0.1,0.7-0.1c4.9-0.5,8,0.1,10.1,1.9h0c0.1,0.1,0.3,0.3,0.4,0.4c0,0,0,0,0.1,0.1c0.1,0.1,0.2,0.3,0.3,0.4
	c0,0,0.1,0.1,0.1,0.1c0.1,0.2,0.3,0.3,0.4,0.5V173L84.3,172.5z"/>
<path class="st0" d="M65.5,228.4c0,0-0.2,0-0.5,0.1c3,4.7,8.3,11.4,16.6,18.7c-0.1-9.8-0.1-19.5-0.1-29.2
	C78.3,223.2,72.8,226.8,65.5,228.4"/>
<path class="st0" d="M81.6,254.7c-7.4-5.9-12.8-11.8-16.7-16.8c6,21.7,17.4,41.7,33.5,58.4c9.2,9.5,19.5,17.5,30.7,23.9
	c18.7,3.1,33.3,1.1,43.3-6.3c7.6-5.6,12.4-14,14.4-25c-52.4-2.9-84.7-18.3-104-33.4l-1.1,0.2L81.6,254.7z"/>
<path class="st0" d="M313.5,254.3c-2.1-0.4-4.3-0.8-6.5-1.2l-3.9-0.7l-4-0.6c-7.6-1.2-15.4-2.3-23.8-3.3l-0.9-0.1
	c-4.2,10.7-7.4,20.8-9.4,29.7C286.7,272.6,302.5,264.2,313.5,254.3"/>
<path class="st0" d="M310,170.7c7.5,1.3,14.7,2.7,22.1,4.2c-3.9-20.4-12.4-39.2-24.3-55.4c4.2,14.7,5.8,31.6,1,51.1
	c0.4,0.1,0.8,0.1,1.2,0.2L310,170.7L310,170.7z"/>
<path class="st0" d="M129.8,165.5c0,0,0,0.1,0,0.1C129.8,165.6,129.8,165.5,129.8,165.5"/>
<path class="st0" d="M218.1,151.8c-0.1,0-0.1,0-0.2,0h-0.1c-4.1-0.5-6.1-2.2-7.2-3.8c0,0.3,0,1.5,0,1.5c0,0.5,0,1.1,0,1.6
	c-5.3,0-10.6,0-15.9-0.1c0.1-9.5,0.3-19,0.4-28.5c-0.1,0.1-0.2,0.2-0.4,0.3c-0.6,0.5-1.2,0.8-2,1.1c-0.1,7.9-0.2,15.6-0.4,23.6
	c-0.4,0-0.7,0-1.1,0c0,1.2,0,2,0,2c0,0.5,0,1-0.1,1.5c-5.3,0.2-10.6,0.5-15.9,0.6c0,0,0.3-23.1,0.3-26.3c-0.9,0-2.4,0.1-3.7,0.2
	c0,0,0,0.1,0,0.1c0,0-5.4,0.4-8.3,0.7c0,0.4,0,0.9,0,1.3c2.2-0.2,4.3-0.4,6.5-0.6c0,3-0.1,5.9-0.1,9c-0.4,0-0.7,0.1-1.1,0.1
	c0,0.7,0,1.3,0,2c0,0.5-0.1,1-0.1,1.4c0,0-3.2,0.3-5.4,0.5c0,0.7,0,1.3,0,2c3.3-0.3,6.3-0.6,9.5-0.8c0,2.4,0,4.8-0.1,7.2
	c-0.4,0-0.7,0.1-1.1,0.1c0,1.1,0,2.2,0,3.3c-0.6,0-1.2,0.1-1.9,0.1c-6.7,0.5-13.4,1.1-20.8,2c-0.8,0.1-1.7,0.2-2.5,0.3
	c0-1.2,0-2.4,0.1-3.6c-1.6,2.5-4.3,4.2-7.9,4.8c-5.9,0.9-11.7,1.8-17.9,3c-0.9,0.2-1.8,0.3-2.7,0.5c0,0,0.3-24.1,0.4-26.9
	c-1.1-0.2-2.2-0.5-3.1-1.2c-1-0.7-2.2-2.1-2.2-4.5c0-0.2,0-0.4,0-0.6c0-0.1,0-0.1,0-0.2c0.1-0.7,0.3-1.4,0.4-2.1
	c0.4-0.1,0.8-0.2,1.2-0.2c1.3-0.3,2.6-0.5,3.8-0.7c0,0,0,0,0-0.1c7.9-1.6,15.6-2.9,23.6-4.1h0c2.2-0.2,3.7-0.1,4.8,0.4
	c0-0.3,0-0.7,0-1c0.6-0.1,1.1-0.1,1.7-0.2c1.2-0.1,2.4-0.3,3.6-0.4v-0.2c6-0.7,11.8-1.2,17.7-1.7v0c0.6,0,1.2-0.1,1.9-0.1
	c0.4,0,0.7,0,1.1-0.1c0.1,0,0.2,0,0.3,0v0c0.7,0,1.4-0.1,2-0.1v0c7.3-0.5,14.2-0.7,21.6-0.9c0.4,0,1,0,1.5,0c0,0.1,0,0.2,0,0.3
	c0.7,0,1.4,0,2.1,0c0-0.1,0-0.2,0-0.3c4.9,0,9.8,0,14.8,0.2C209.8,89.5,203,72,195.8,63.7c-35.2,0.4-68.4,13.9-93.9,38.4
	c-1.5,1.5-3,3-4.4,4.5c1.3,21.2,11.1,41.1,24.2,60.4c0.6-0.3,1.2-0.5,1.9-0.6c3.2-0.8,7.5-1.1,9.7-1.4L133,165c0.1,0,0.1,0,0.2,0
	c0.3,0,0.6-0.1,0.8-0.1c2.9-0.4,16.8-1.7,28-2.4c0.2,0,0.4,0,0.6,0c0.9-0.1,1.5-0.1,1.5-0.1l0.5,0c0.2,0,0.4,0,0.6,0c0,0,0,0,0,0v0
	c2.9-0.1,5.8-0.3,8.6-0.4c14.1-0.6,27.8-0.8,42.1-0.5c1.1,0,2.3,0.1,3.2,0.1c0.2,0.9,0.2,1.8,0.2,2.8v0.5c0,0.9-0.1,2.9-1,4.9
	c1.4-1.5,3.2-2.7,5.2-3.7c-0.5-4.8-1.1-9.5-1.7-14.1C220.5,151.9,219.3,151.8,218.1,151.8"/>
<path class="st0" d="M150.4,187.3c1.1,0.4,2.2,0.7,3.2,1.1c1.5,0.5,2.5,1.1,3.4,1.7c2.6,1.7,4,3.6,4.3,6.2c0.1,1,0.1,2.5,0.2,4.6
	c0.1,2.2,0.1,6,0.1,12.9l0,4.5c4.3,5.5,8.4,10.9,12.2,16.3v-49.2c-3.6,0.2-12.5,0.5-12.5,0.5v-4.6c-2.6,2.9-6.1,4.5-10.5,4.9
	c0,0-1.2,0.1-2.8,0.2c0.7,0.2,1.4,0.5,2.1,0.7C150,187.3,150.2,187.3,150.4,187.3"/>
<path class="st0" d="M192.7,283.9c10,0.4,20.7,0.3,32.1-0.3c1.2-11.7,1.9-24.6,2.2-38c-7.6-2.3-14.3-7.3-14.4-18.3v-42.3
	c0-1.5,0.1-3,0.4-4.3c-0.2,0.2-0.4,0.4-0.7,0.6l-0.1,0.1c-1.8,1.4-2.5,2.4-5,3V245l-26.5,0.3C188.5,258.5,193.4,271.3,192.7,283.9"
	/>
<path class="st0" d="M259.2,279.3c2.3-11.9,7-25.8,13-39.9v-0.5c-0.7,1.1-1.6,2.2-2.6,3.1c-5.4,4.9-14.3,6.8-28.1,5.9
	c-2.7-0.2-5.9-0.5-9.3-1c-0.2,12.7-0.9,25-2,36.4C240.7,282.5,250.4,281.1,259.2,279.3"/>
<path class="st0" d="M303.3,171.3v-1.6c0,0,0.1,0,0.4,0.1c6.2-24.5,1.8-44.7-5.7-62c-24-25.9-57.8-42.6-95.5-44
	c8.1,11.8,14,31.5,18.2,50.9c3,0.6,4.4,1.9,5,4.1c1.8-1.6,4.3-2.3,6.5-2.6c0.7-0.1,1.4-0.1,2.2-0.1c0.4-0.1,0.9-0.2,1.3-0.2
	c1.9-0.3,3.9-0.2,6,0c3.4,0.3,6.9,0.7,9.3,2.3v-0.7c1.8,0.2,3.5,0.5,5.3,0.7c0-0.3,0-0.5,0-0.8c3.3,0.4,6.5,0.9,9.8,1.3
	c0.5,0.1,1,0.2,1.6,0.2c0,0.3,0,0.6,0,0.9c0.6,0.1,1.3,0.2,1.9,0.3c0-0.3,0-0.6,0-0.9c7.3,1.1,14.2,2.3,21.5,3.8
	c0.6,0.1,1,0.2,1.5,0.3c0,0.4,0,0.8,0.1,1.2v0.2c0,0.6-0.1,1.9-1.2,3c-0.2,1.3-0.9,3-3,4.1c-0.5,0.2-1,0.4-1.6,0.5
	c-0.1,7.6-0.2,15-0.3,22.7c-0.4-0.1-0.7-0.1-1.1-0.2c0,1.4,0,2.2,0,2.2c0,0.7,0,1.4-0.1,2.2c-5.2-0.9-10.5-1.8-15.7-2.8
	c0,0,0.3-23.7,0.3-26c-0.8-0.1-1.6-0.3-2.5-0.4c-0.1,7.2-0.2,14.4-0.3,21.8c-0.4-0.1-0.7-0.1-1-0.1c0,0.7,0,1.4,0,2.2
	c0,0.7,0,1.4-0.1,2c-5.2-0.7-10.4-1.4-15.6-2.1c0-1.3,0-2.6,0.1-3.9c-0.3,0.3-0.6,0.5-1,0.8c-2.7,1.9-7.1,2.6-13.2,2.2
	c-0.2,0-0.3,0-0.5,0c-2.2-0.2-6.1-0.5-9.2-2.3c0.6,4.4,1.1,8.9,1.6,13.5c1-0.3,2.1-0.5,3.3-0.7c0,0,0.1,0,0.1,0
	c1.2-0.4,2.4-0.6,3.8-0.9c3.4-0.5,7.2-0.6,12.7-0.2l0,0c9.7,0.8,19.6,1.6,23.8,9.7v-5.8l6.2-0.2c1.7,0,3.6,0.1,5.8,0.4
	c5.2,0.3,12.5,2.3,18.3,7.8C302.7,173.3,303,172.3,303.3,171.3"/>
<path class="st0" d="M266.1,306.4c3.1,3.7,8.9,4.2,17.2,1.6c3.2-2.6,6.3-5.3,9.3-8.2c13.1-12.7,23.4-27.5,30.5-43.8
	c-1.1-0.2-2.1-0.4-3.2-0.6c-12,12-30.3,22.2-56.1,28.2C262.1,294.1,262.6,302.2,266.1,306.4"/>
<path class="st0" d="M262.1,309.8c-4.4-5.2-5.3-14.1-3.8-24.9c-8.7,1.7-18.3,3-28.7,3.7c-2.4,20.2-6.3,37.2-12.2,48.3
	c20.4-3,39.7-10.4,56.7-22C268.9,314.8,264.9,313.2,262.1,309.8"/>
<path class="st0" d="M192,289.2c-2.1,12.6-7.8,22.6-16.5,29c-8.5,6.2-19.6,9.1-33.2,8.7c16.4,7.2,34.1,11.1,52.5,11.4
	c5.4,0.1,10.7-0.1,16-0.7c6.4-9.6,10.8-27,13.4-48.7C212.8,289.5,202,289.6,192,289.2"/>
<path class="st1" d="M349.8,225c-2.1-1.1-4.3-2.4-6.3-3.9c-0.8,5.9-1.9,12-3.4,17.6l1,0.2v0c3,0.7,5.9,1.4,8.8,2.1
	c0-1.6,0-3.9,0-5.9C349.9,231.2,349.8,227.3,349.8,225"/>
<path class="st1" d="M51.4,179.3c10.9-72,73.8-127.2,148.5-125.8c72.7,1.3,132.3,55.3,143.1,124.8c2.2-0.3,4.6-0.1,7.4,0.6l0,0
	c0.2,0.1,1.8,0.5,2.1,0.5c0.1,0,0.1,0,0.2,0c0,0,0,0,0,0c0.8,0.2,1.7,0.5,2.8,0.7c-4.4-33.7-19.4-64.9-43.4-89.9
	c-29.6-30.7-69.4-48-111.9-48.8c-82.5-1.5-151.7,60.8-161.3,141c2.2-0.6,4.3-1.1,6.5-1.7C47.4,180.2,49.4,179.7,51.4,179.3"/>
<path class="st1" d="M334.6,258.4V255c0,0,0,0,0,0V258.4l-1.3-0.3c-22.8,53.9-76.7,91.4-138.7,90.3
	c-67.3-1.2-123.8-48.3-140.3-110.3v16.9c0,0,0,0,0,0v5.9v0l-2.2,0.6c-0.7,0.2-1.4,0.3-2.1,0.5c23.6,56.7,79.2,97.2,144.5,98.4
	c42.6,0.8,82.9-15.1,113.6-44.7c16.4-15.8,29-34.5,37.2-54.9c-2.6-0.6-5.2-1.2-8-1.8L334.6,258.4z"/>
<path class="st2" d="M161.5,219.9l0,7c4.5,5.8,8.6,11.6,12.2,17.2v-9.5c-3.8-5.4-7.9-10.8-12.2-16.3L161.5,219.9z"/>
<path class="st2" d="M323.1,256.1c-7.1,16.2-17.4,31.1-30.5,43.8c-3,2.9-6.1,5.6-9.3,8.2c-8.3,2.6-14.1,2.1-17.2-1.6
	c-3.5-4.2-4-12.3-2.3-22.8c25.9-6,44.1-16.2,56.1-28.2c-2.1-0.4-4.2-0.8-6.4-1.2c-11,9.9-26.8,18.4-48.6,23.7c2-8.8,5.2-19,9.4-29.7
	l-2.1-0.3v-8.7c-6,14.1-10.7,28-13,39.9c-8.8,1.8-18.5,3.2-29.1,4c1.1-11.4,1.8-23.7,2-36.4c-1.7-0.3-3.5-0.7-5.2-1.2
	c-0.2,13.4-1,26.3-2.2,38c-11.5,0.6-22.1,0.7-32.1,0.3c0.7-12.6-4.2-25.4-12.1-38.6l-6.1,0.1c8.4,13.3,13.7,26.1,12.9,38.3
	c-47.3-2.7-77.8-15.9-96.9-29.4c-1.6,0.3-3.2,0.5-4.9,0.8l-2.9,0.5c19.3,15.1,51.5,30.5,104,33.4c-2,11-6.8,19.4-14.4,25
	c-10,7.3-24.6,9.4-43.3,6.3c-11.2-6.4-21.5-14.4-30.7-23.9c-16.1-16.7-27.4-36.7-33.5-58.4c3.9,5,9.3,10.8,16.7,16.7l0-3
	c0-1.5,0-3,0-4.5c-8.3-7.2-13.6-14-16.6-18.7c-2.7,0.6-8.8,1.9-10.7,2.3c0,0.8,0,1.5,0,2.8v4.5c16.8,61.6,73.4,109.2,140.3,110.4
	c62,1.1,115.9-36.4,138.7-90.3l-2.9-0.6C328,257.1,325.6,256.6,323.1,256.1 M194.8,338.3c-18.4-0.3-36.2-4.3-52.5-11.4
	c13.6,0.4,24.8-2.5,33.2-8.7c8.8-6.4,14.4-16.4,16.5-29c10,0.4,20.7,0.3,32.2-0.3c-2.6,21.7-7,39.2-13.4,48.7
	C205.5,338.2,200.2,338.4,194.8,338.3 M217.3,336.9c5.9-11.1,9.9-28.1,12.2-48.3c10.4-0.7,20-2,28.7-3.7
	c-1.5,10.9-0.6,19.7,3.8,24.9c2.8,3.4,6.8,5.1,11.9,5.1C257,326.4,237.7,333.9,217.3,336.9"/>
<path class="st2" d="M224.5,148.8c0,0.5,0,1,0,1.5v1.8c-0.9,0-1.8-0.1-2.8-0.1c0.6,4.6,1.2,9.4,1.7,14.1c1.5-0.8,3.2-1.4,5-1.9
	c-0.5-4.6-1-9.1-1.6-13.5C225.9,150.2,225.1,149.6,224.5,148.8"/>
<path class="st2" d="M334.6,210.5V255c0,0,0,0,0,0v-13.7l0-3.9l5.5,1.3c1.5-5.6,2.6-11.8,3.4-17.6
	C339.9,218.4,336.7,215.1,334.6,210.5"/>
<path class="st2" d="M302.4,174.3c0.3,0.3,0.6,0.6,0.9,0.9v-3.9C303,172.3,302.7,173.3,302.4,174.3"/>
<path class="st2" d="M92.8,111.8c2.5,20.4,12.3,39.7,24.6,58c1.2-1.1,2.6-2.2,4.3-2.9c-13.1-19.2-22.9-39.2-24.2-60.4
	c1.4-1.5,2.9-3,4.4-4.5c25.5-24.5,58.7-38.1,93.9-38.4c7.2,8.3,13.9,25.8,19.4,50.6c1.3,0,2.7,0.1,4,0.1h0.1c0,0,0.1,0,0.1,0
	c0.4,0.1,0.9,0.1,1.3,0.2c-4.1-19.3-10-39.1-18.2-50.9c37.8,1.4,71.6,18.1,95.5,44c7.4,17.3,11.9,37.5,5.7,62
	c0.8,0.1,2.7,0.5,5.1,0.9c4.8-19.4,3.2-36.4-1-51.1c11.9,16.2,20.4,35,24.3,55.4c0.7,0.1,1.3,0.3,1.9,0.4v0.1l0.5,0.1v8.1
	c0.8-1.6,2-2.8,3.5-3.8c1.4-0.9,3.1-1.5,5-1.7C332.2,108.7,272.6,54.8,200,53.5c-74.7-1.4-137.7,53.8-148.5,125.8
	c0.4-0.1,0.8-0.2,1.2-0.3c0.9-0.2,1.8-0.4,2.7-0.6c2.3-0.6,4.6-1.1,6.8-1.6C66.4,152.9,76.9,130.4,92.8,111.8"/>
<path class="st3" d="M54.2,261.1L54.2,261.1v-6c-8.3,1.9-16.5,3.9-24.8,6.3v-60.7c-6.1,1-8.8-1.4-9.9-3.2c-0.6-0.9-1.4-3.1-1.4-5.3
	c0-1.3,0.3-2.4,1.1-3.4c0.4-0.4,0.6-0.8,1-1.2c6-1.7,11.9-3.4,17.7-4.9c-7.1,1.8-14.4,4-22.1,6.2l-1,0.3c0,0-3.7,3.2-3.6,7.5v0.2
	c0.1,2.7,1,4.8,2,6.2c1.3,1.9,4,4.7,9.5,5v61.1l4.4-1.2c7.7-2.2,15.5-4,22.9-5.7c0.7-0.2,1.4-0.3,2.1-0.5L54.2,261.1z"/>
<path class="st3" d="M45.4,180.8c2.1-0.5,4.3-1.1,6.4-1.6c-0.1,0-0.2,0.1-0.4,0.1C49.4,179.7,47.4,180.2,45.4,180.8"/>
<path class="st3" d="M65.5,228.4c7.4-1.6,12.8-5.2,16-10.4c0,9.6,0,19.4,0.1,29.2c0,1.5,0,3,0,4.5l0,3l0,1.1l1.1-0.2l2.9-0.5
	c1.7-0.3,3.3-0.6,4.9-0.8c7.1-1.2,13.3-2.1,19.3-3l3-0.4V244c-8,1.2-15.8,2.4-23.8,3.8c-0.2-25.7-0.1-50.4-0.1-76.1
	c-1.5,0.2-3,0.5-4.5,0.8l-2.9,0.5v5.5c2.6,3.9,2.5,10.9,2.5,21.7c0,0.5,0,0.9,0,1.4v1.1c-0.1,10-6,16.6-16.3,18.9
	c-4.5,1-8.9,1.9-13.4,3v6.3c2.9-0.6,9-1.9,10.7-2.3C65.3,228.5,65.5,228.4,65.5,228.4"/>
<path class="st3" d="M63,176.6c1.5-0.3,3.1-0.7,4.6-1c-0.1,0-0.2,0-0.3,0.1C66.4,175.8,64.3,176.3,63,176.6"/>
<path class="st3" d="M303.3,171.3v3.9c2.5,2.6,4.7,5.9,6.2,10.1c0.2,0.6,0.4,1.1,0.5,1.7v-16.2c-0.4-0.1-0.8-0.1-1.2-0.2
	c-2.5-0.4-4.3-0.8-5.1-0.9c-0.3,0-0.4-0.1-0.4-0.1V171.3z"/>
<path class="st3" d="M384.8,193.6l0-0.2c0,0.3,0,0.6,0,0.9c0,0.1-0.6,2.8-2.2,4.4c-2,2.4-5.2,3.1-9.2,2c-4-1.1-7.9-2.1-11.8-3.2v1.7
	c0,2.5,1.9,4.4,5.1,6.7c1.4,0.4,2.6,0.7,2.6,0.7c7,1.9,10.9-1.1,12.6-3.1c-0.1,0.1-0.1,0.1-0.2,0.2l0.2-0.2c0,0,0,0,0,0c0,0,0,0,0,0
	c2.2-2.4,2.9-5.8,2.9-6.6L384.8,193.6z"/>
<path class="st3" d="M350.4,178.8c-2.7-0.7-5.2-0.9-7.4-0.6c-1.9,0.2-3.5,0.8-5,1.7c-1.5,0.9-2.7,2.2-3.5,3.8v-8.1l-0.4-0.1v76.4
	c-7.8-1.7-15.3-3.1-23.2-4.5c0,0-4.3-10.5-7.9-19.3v18c-7.9-1.3-15.8-2.4-23.7-3.4v-76.1v-0.1c0.9,0,2.7,0,2.7,0c0.6,0,1.4,0,2.1,0
	c-2.1-0.3-4.1-0.5-5.8-0.4l-6.2,0.2v5.8c1.3,2.5,2.1,5.7,2.1,9.9v42.7c0,0,0,1.8,0,1.8c0,3.8-1.4,6.9-4,9.3
	c-4.5,4.2-12.8,5.8-25.3,5c-10.1-0.8-25.3-2-25.4-17.3v-42.7c0.1-9.2,4.1-14.9,12.2-17.4c-0.1,0-0.1,0-0.1,0
	c-1.2,0.2-2.2,0.4-3.3,0.7c-1.8,0.5-3.5,1.1-5,1.9c-2,1-3.7,2.2-5.2,3.7c-0.6,1.5-1.7,3.2-3.3,4.6c-2.1,1.7-4.7,2.6-7.8,2.9v60.7
	c-8.3-0.1-16.4,0-24.8,0.3v-60.5c-4.3,0.1-8.2,0.3-12.4,0.5v-16.1c1.3-0.1,2.5-0.1,3.8-0.2c-2.9,0.1-5.7,0.2-8.6,0.4
	c0,0.9,0.2,1.7,0.2,2.7c0,0.6,0.1,1.2,0.1,1.8c0,0.6-0.1,1.1-0.1,1.6v0.1c0,0,0,0.1,0,0.1c0,0.5-0.5,2.5-1.8,4.7
	c-2.1,3.3-5.2,5.1-9.4,5.5c-4,0.3-7.8,0.6-11.8,1v1.7c0,2.7,2.1,3.9,5.6,5.1c1.6-0.1,2.8-0.2,2.8-0.2c4.4-0.4,7.9-2,10.5-4.9v4.6
	c0,0,8.9-0.4,12.5-0.5v49.2v9.5v1.3l0.8,0l6.1-0.1l26.5-0.3v-60.7c2.5-0.6,3.1-1.6,5-3l0.1-0.1c0.2-0.2,0.5-0.4,0.7-0.6
	c-0.2,1.4-0.3,2.8-0.4,4.3v42.3c0.1,11.1,6.9,16,14.4,18.3c1.7,0.5,3.4,0.9,5.2,1.2c3.4,0.6,6.6,0.8,9.3,1c13.8,0.9,22.7-1,28.1-5.9
	c1-0.9,1.9-2,2.6-3.1v0.5l0,8.7l2.1,0.3l0.9,0.1c8.5,1,16.3,2.1,23.8,3.3l4,0.6l3.9,0.7c2.2,0.4,4.4,0.8,6.5,1.2
	c2.2,0.4,4.3,0.8,6.4,1.2c1.1,0.2,2.1,0.4,3.2,0.6c2.4,0.5,4.8,1,7.2,1.5l2.9,0.6l1.3,0.3V255v-44.5c2.2,4.6,5.4,7.9,8.9,10.5
	c2.1,1.5,4.2,2.8,6.3,3.9c0,2.3,0.1,6.3,0.1,10c0,2,0,4.3,0,5.9c2.1,0.5,4.3,1,6.5,1.5c0-4.4,0.1-19.9-0.1-22.2
	c0-0.1-0.2-0.1-0.3-0.1c-0.2-0.1-0.4-0.2-0.6-0.3c-5.6-2.9-12.4-7-15.5-15c-0.8-2-0.9-5.1-0.9-8.3c-0.1-4.5,0.7-11,0.7-11.5
	c1.1-5,5.7-7.3,12.8-5.6C352.3,179.3,350.6,178.9,350.4,178.8L350.4,178.8z"/>
<path class="st3" d="M352.6,179.4c0.2,0.1,1.6,0.4,3.8,1c-0.3-0.1-0.6-0.2-0.9-0.2C354.4,179.9,353.5,179.6,352.6,179.4L352.6,179.4
	z"/>
<path class="st3" d="M382.3,187.4l-0.7-0.2c0.7,0.2,1.4,0.5,2.2,0.7L382.3,187.4z"/>
<path class="st3" d="M384.7,188.2L384.7,188.2c0,1.3,0.1,2.5,0.1,3.8L384.7,188.2z"/>
<path class="st3" d="M380.7,222c0,0.3,0,0.5,0,0.8C380.8,222.6,380.8,222.3,380.7,222"/>
<path class="st3" d="M380.8,252.3c0,0-0.1,1.1-0.5,1.9c-2.5,4.8-7.8,6.4-16.2,4.6c0,0,0,0,0,0c-8-2.1-15.1-3.8-23.1-5.6v-14.3
	l-1-0.2l-5.5-1.3l0,3.9V255v3.4l2.7,0.6c2.8,0.6,5.4,1.2,8,1.8c4.8,1.1,9.5,2.3,14.9,3.7l0.1,0l0.1,0.1c12.3,2.7,17.4-2,19.6-6.4
	c0.7-1.3,0.9-2.8,0.9-3.3l0-0.1l0-5.2l0-10.3c0-0.5,0-1.1,0-1.7c0,6-0.1,11.7-0.1,14.6L380.8,252.3L380.8,252.3z"/>
<path class="st3" d="M57.4,193.6c-0.8,0.2-1.5,0.3-2.3,0.4c-0.4,0.1-0.8,0.1-1.1,0.3v16.2c1.7-0.4,3.3-0.8,5-1.1
	c0-1.9-0.1-14.4-0.1-14.8C58.5,193.7,58.3,193.5,57.4,193.6"/>
<path class="st3" d="M245.5,179.4L245.5,179.4l-0.2,0c-0.1,0-0.3,0-0.4,0c-0.1,0.5-0.1,1.1-0.1,1.6v0.2l0,0.2
	c-0.1,0.5-0.1,1.1-0.1,1.7c0,0.4,0,0.8,0,1.2l0,1.2v30.3l0,0.1c0,0.6,0,1.1,0,1.6c0,2.3,0.5,2.9,3.8,3.1c0.2,0,0.7,0,0.7,0h0.2
	c0-0.4,0.1-2.2,0.1-2.2v-29.9c0-3.8,0-7.1-0.5-8.2C248.7,179.8,246.9,179.5,245.5,179.4"/>
<path class="st3" d="M136.8,204.4L136.8,204.4C136.8,204.4,136.8,204.4,136.8,204.4"/>
<path class="st3" d="M113.3,200c3.6,8,11,10.3,16,11.3c0,3.7,0.1,13.2,0.1,16v0c2.5-0.3,5-0.6,7.6-0.9c0-7.5-0.1-14.6-0.1-22.1
	c-0.1,0-0.3,0-0.3-0.1c-0.2,0-0.4-0.1-0.6-0.1c-5.6-1-12.4-2.7-15.5-9.5c-0.8-1.7-0.9-4.7-0.9-8c0-4.4,0.3-8.9,0.5-10.3v0.3
	c0-0.6,0.2-1.1,0.2-1.7c1-4.6,4.4-7.9,9.5-9.3c0,0,0,0,0.1,0c1-0.3,2-0.5,3.1-0.6l0.3-0.1c-2.2,0.3-6.5,0.6-9.7,1.4
	c-0.7,0.2-1.3,0.4-1.9,0.6c-1.7,0.7-3.1,1.7-4.3,2.9c-2.1,1.9-3.5,4.3-4.3,7.1v22.5C113.2,199.7,113.2,199.8,113.3,200 M129.8,165.6
	c0-0.1,0-0.1,0-0.1C129.8,165.5,129.8,165.6,129.8,165.6"/>
<path class="st3" d="M113.9,229.3l0.1,2.8l0.1,18.6l4.3-0.5c7.2-0.9,14.2-1.7,22.9-2.5l0.2,0c13.3-1.7,20-8.3,20-19.4l0-1.4l0-7
	l0-1.5l0-4.5c0-6.9,0-10.7-0.1-12.9c0,2.3,0.1,5.3,0.1,9.1c0,4.1-0.1,8.8-0.1,14.5c0,11.3-7.6,14.6-16.6,15.6c0,0,0,0,0,0
	c-7.9,0.7-15.3,1.5-23.1,2.5c0-4.8-0.1-9.5-0.1-14.3c0.1,0,0.2,0,0.3,0C117.8,228.8,113.9,229.3,113.9,229.3"/>
<path class="st0" d="M214.2,123.5v-0.3c0-1.6-0.2-1.9-0.3-1.9c-0.2-0.1-0.9-0.1-1.6-0.1c0.1,0-0.1,0-0.2,0c-0.1,0-0.1,0-0.2,0
	c0,2.3,0,4.5-0.1,6.8c0.7,0,1.4,0,2.1,0.1c0.1-0.1,0.1-0.1,0.1-0.2v0c0-0.2,0-0.3,0-0.4c0.1-0.9,0.1-1.2,0.1-2.7L214.2,123.5
	L214.2,123.5z"/>
<path class="st3" d="M214.2,123.5v-0.3c0-1.6-0.2-1.9-0.3-1.9c-0.2-0.1-0.9-0.1-1.6-0.1c0.1,0-0.1,0-0.2,0c-0.1,0-0.1,0-0.2,0
	c0,2.3,0,4.5-0.1,6.8c0.7,0,1.4,0,2.1,0.1c0.1-0.1,0.1-0.1,0.1-0.2v0c0-0.2,0-0.3,0-0.4c0.1-0.9,0.1-1.2,0.1-2.7L214.2,123.5
	L214.2,123.5z"/>
<path class="st0" d="M215,143.9c-0.1-0.1-0.2-0.4-0.2-2.3c0-0.2,0-0.4,0-0.7c-0.1-1.4-0.1-4.3-0.1-5.2c0-0.4,0.1-1.4-2.6-1.5h-0.2
	c-0.1,4.5-0.1,8.7-0.2,13.2c-3.9-0.1-7.8-0.1-11.7-0.1c0.1-11.2,0.3-21.9,0.5-33c-0.7,0-1.4,0-2,0c0,0.3,0,0.6,0,0.9v0.2
	c0,0.6-0.1,2.1-1.3,3.5c-0.3,1.1-0.8,2.4-2.1,3.5c-0.1,9.5-0.3,19-0.4,28.5c5.3,0.1,10.6,0.1,15.9,0.1c0-0.5,0-1.1,0-1.6
	c0,0,0-1.2,0-1.5c1.1,1.6,3.2,3.3,7.2,3.8h0.1c0.1,0,0.1,0,0.2,0c1.2,0.1,2.4,0.1,3.6,0.2c-0.2-1.3-0.3-2.6-0.5-3.9
	C217.9,147.6,215.8,146.2,215,143.9"/>
<path class="st3" d="M215,143.9c-0.1-0.1-0.2-0.4-0.2-2.3c0-0.2,0-0.4,0-0.7c-0.1-1.4-0.1-4.3-0.1-5.2c0-0.4,0.1-1.4-2.6-1.5h-0.2
	c-0.1,4.5-0.1,8.7-0.2,13.2c-3.9-0.1-7.8-0.1-11.7-0.1c0.1-11.2,0.3-21.9,0.5-33c-0.7,0-1.4,0-2,0c0,0.3,0,0.6,0,0.9v0.2
	c0,0.6-0.1,2.1-1.3,3.5c-0.3,1.1-0.8,2.4-2.1,3.5c-0.1,9.5-0.3,19-0.4,28.5c5.3,0.1,10.6,0.1,15.9,0.1c0-0.5,0-1.1,0-1.6
	c0,0,0-1.2,0-1.5c1.1,1.6,3.2,3.3,7.2,3.8h0.1c0.1,0,0.1,0,0.2,0c1.2,0.1,2.4,0.1,3.6,0.2c-0.2-1.3-0.3-2.6-0.5-3.9
	C217.9,147.6,215.8,146.2,215,143.9"/>
<path class="st2" d="M221.5,148.1C221.5,148.1,221.4,148.1,221.5,148.1c-0.2,0-0.2,0-0.3,0c0.2,1.3,0.3,2.6,0.5,3.9
	c0.9,0,1.9,0.1,2.8,0.1v-1.8c0-0.5,0-1,0-1.5c-0.2-0.2-0.3-0.4-0.5-0.6C223.2,148.2,222.3,148.2,221.5,148.1"/>
<path class="st3" d="M221.5,148.1C221.5,148.1,221.4,148.1,221.5,148.1c-0.2,0-0.2,0-0.3,0c0.2,1.3,0.3,2.6,0.5,3.9
	c0.9,0,1.9,0.1,2.8,0.1v-1.8c0-0.5,0-1,0-1.5c-0.2-0.2-0.3-0.4-0.5-0.6C223.2,148.2,222.3,148.2,221.5,148.1"/>
<path class="st0" d="M253.9,124.5c-0.1,6.2-0.2,12.2-0.3,18.4c0,0.3,0,0.5,0,0.8c-0.1,1.2-0.5,2.3-1.2,3.1c-0.2,1.3-0.8,2.4-1.8,3.3
	c0,1.3,0,2.6-0.1,3.9c5.2,0.7,10.4,1.4,15.6,2.1c0-0.7,0-1.4,0.1-2c0-0.7,0-1.4,0-2.2c-3.5-0.5-6.9-1-10.4-1.4
	c0.2-10.9,0.3-21.3,0.5-32.2c-1.8-0.2-3.5-0.5-5.3-0.7v0.7C252.8,119.4,253.9,121.3,253.9,124.5"/>
<path class="st3" d="M253.9,124.5c-0.1,6.2-0.2,12.2-0.3,18.4c0,0.3,0,0.5,0,0.8c-0.1,1.2-0.5,2.3-1.2,3.1c-0.2,1.3-0.8,2.4-1.8,3.3
	c0,1.3,0,2.6-0.1,3.9c5.2,0.7,10.4,1.4,15.6,2.1c0-0.7,0-1.4,0.1-2c0-0.7,0-1.4,0-2.2c-3.5-0.5-6.9-1-10.4-1.4
	c0.2-10.9,0.3-21.3,0.5-32.2c-1.8-0.2-3.5-0.5-5.3-0.7v0.7C252.8,119.4,253.9,121.3,253.9,124.5"/>
<path class="st0" d="M192.7,121.2c0,0.9,0,1.9,0,2.8c0.8-0.3,1.5-0.6,2-1.1c0.1-0.1,0.3-0.2,0.4-0.3c0-0.7,0-1.3,0-2
	C194.3,120.8,193.5,121,192.7,121.2"/>
<path class="st3" d="M192.7,121.2c0,0.9,0,1.9,0,2.8c0.8-0.3,1.5-0.6,2-1.1c0.1-0.1,0.3-0.2,0.4-0.3c0-0.7,0-1.3,0-2
	C194.3,120.8,193.5,121,192.7,121.2"/>
<path class="st0" d="M172.8,115.1c-0.4,0-0.7,0-1.1,0.1c-0.6,0-1.2,0.1-1.9,0.1v0c0.5,0,1.1-0.1,1.6-0.1
	C172,115.2,172.4,115.2,172.8,115.1"/>
<path class="st3" d="M172.8,115.1c-0.4,0-0.7,0-1.1,0.1c-0.6,0-1.2,0.1-1.9,0.1v0c0.5,0,1.1-0.1,1.6-0.1
	C172,115.2,172.4,115.2,172.8,115.1"/>
<path class="st0" d="M180.9,121.7c-2,0.1-3.9,0.2-5.8,0.4c0-2.4,0.1-4.6,0.1-7c-0.7,0-1.4,0.1-2,0.1c0,2.4-0.1,4.6-0.1,6.9
	c-0.4,0-0.7,0.1-1.1,0.1c0,0.7,0,1.4,0,2.2c0,0.4,0,0.9-0.1,1.3c1.3-0.1,2.8-0.2,3.7-0.2c0,3.2-0.3,26.3-0.3,26.3
	c5.3-0.2,10.6-0.4,15.9-0.6c0-0.5,0.1-1,0.1-1.5c0,0,0-0.7,0-2c-3.6,0.1-7.1,0.2-10.6,0.5C180.7,139.1,180.8,130.6,180.9,121.7"/>
<path class="st3" d="M180.9,121.7c-2,0.1-3.9,0.2-5.8,0.4c0-2.4,0.1-4.6,0.1-7c-0.7,0-1.4,0.1-2,0.1c0,2.4-0.1,4.6-0.1,6.9
	c-0.4,0-0.7,0.1-1.1,0.1c0,0.7,0,1.4,0,2.2c0,0.4,0,0.9-0.1,1.3c1.3-0.1,2.8-0.2,3.7-0.2c0,3.2-0.3,26.3-0.3,26.3
	c5.3-0.2,10.6-0.4,15.9-0.6c0-0.5,0.1-1,0.1-1.5c0,0,0-0.7,0-2c-3.6,0.1-7.1,0.2-10.6,0.5C180.7,139.1,180.8,130.6,180.9,121.7"/>
<path class="st0" d="M197.1,119c-0.2,0.3-0.5,0.5-0.8,0.7c-0.4,0.3-0.8,0.5-1.3,0.8c0,0.7,0,1.3,0,2
	C196.2,121.4,196.8,120.1,197.1,119"/>
<path class="st3" d="M197.1,119c-0.2,0.3-0.5,0.5-0.8,0.7c-0.4,0.3-0.8,0.5-1.3,0.8c0,0.7,0,1.3,0,2
	C196.2,121.4,196.8,120.1,197.1,119"/>
<path class="st3" d="M197.1,119c-0.2,0.3-0.5,0.5-0.8,0.7c-0.4,0.3-0.8,0.5-1.3,0.8c0,0.7,0,1.3,0,2
	C196.2,121.4,196.8,120.1,197.1,119"/>
<path class="st0" d="M287,129.1c0,1.1,0,2.3,0,3.4c0.6-0.1,1.1-0.3,1.6-0.5c2-1.2,2.8-2.8,3-4.1c-0.2,0.3-0.5,0.5-0.9,0.7
	C289.6,129.1,288.4,129.3,287,129.1"/>
<path class="st3" d="M287,129.1c0,1.1,0,2.3,0,3.4c0.6-0.1,1.1-0.3,1.6-0.5c2-1.2,2.8-2.8,3-4.1c-0.2,0.3-0.5,0.5-0.9,0.7
	C289.6,129.1,288.4,129.3,287,129.1"/>
<path class="st0" d="M270,130.6c0,2.3-0.3,26-0.3,26c5.2,1,10.5,1.9,15.7,2.8c0-0.7,0.1-1.4,0.1-2.2c0,0,0-0.9,0-2.2
	c-3.5-0.7-7-1.3-10.5-1.9c0.1-8.8,0.2-17.2,0.3-26c-2-0.3-3.8-0.6-5.8-0.9c0-2,0.1-4,0.1-6.1c-0.6-0.1-1.3-0.2-1.9-0.3
	c0,3.5-0.1,6.9-0.1,10.4C268.4,130.3,269.2,130.5,270,130.6"/>
<path class="st3" d="M270,130.6c0,2.3-0.3,26-0.3,26c5.2,1,10.5,1.9,15.7,2.8c0-0.7,0.1-1.4,0.1-2.2c0,0,0-0.9,0-2.2
	c-3.5-0.7-7-1.3-10.5-1.9c0.1-8.8,0.2-17.2,0.3-26c-2-0.3-3.8-0.6-5.8-0.9c0-2,0.1-4,0.1-6.1c-0.6-0.1-1.3-0.2-1.9-0.3
	c0,3.5-0.1,6.9-0.1,10.4C268.4,130.3,269.2,130.5,270,130.6"/>
<path class="st0" d="M152.2,117.2c-1.2,0.1-2.4,0.2-3.6,0.4c-0.6,0.1-1.1,0.1-1.7,0.2c0,0.3,0,0.7,0,1c2.5,1.2,2.4,4.4,2.4,10.1
	c-0.1,4.9-0.2,9.6-0.2,14.6c0,1.9-0.6,3.5-1.5,4.8c-0.3,0.9-0.6,1.7-1.1,2.5c0,1.2,0,2.4-0.1,3.6c0.8-0.1,1.7-0.2,2.5-0.3
	c7.4-0.9,14.1-1.5,20.8-2c0.6,0,1.2-0.1,1.9-0.1c0-1.1,0-2.2,0-3.3c-6.7,0.5-13.2,1.2-19.9,2C151.9,139.3,152.1,128.5,152.2,117.2"
	/>
<path class="st3" d="M152.2,117.2c-1.2,0.1-2.4,0.2-3.6,0.4c-0.6,0.1-1.1,0.1-1.7,0.2c0,0.3,0,0.7,0,1c2.5,1.2,2.4,4.4,2.4,10.1
	c-0.1,4.9-0.2,9.6-0.2,14.6c0,1.9-0.6,3.5-1.5,4.8c-0.3,0.9-0.6,1.7-1.1,2.5c0,1.2,0,2.4-0.1,3.6c0.8-0.1,1.7-0.2,2.5-0.3
	c7.4-0.9,14.1-1.5,20.8-2c0.6,0,1.2-0.1,1.9-0.1c0-1.1,0-2.2,0-3.3c-6.7,0.5-13.2,1.2-19.9,2C151.9,139.3,152.1,128.5,152.2,117.2"
	/>
<path class="st0" d="M163.3,140.1c2.1-0.2,5.4-0.5,5.4-0.5c0-0.5,0-1,0.1-1.4c0-0.7,0-1.3,0-2c-1.8,0.1-3.5,0.3-5.4,0.5
	C163.4,137.9,163.4,139,163.3,140.1"/>
<path class="st3" d="M163.3,140.1c2.1-0.2,5.4-0.5,5.4-0.5c0-0.5,0-1,0.1-1.4c0-0.7,0-1.3,0-2c-1.8,0.1-3.5,0.3-5.4,0.5
	C163.4,137.9,163.4,139,163.3,140.1"/>
<path class="st0" d="M169.8,122.3c-2,0.2-4.1,0.3-6.2,0.5c0,1.2-0.1,2.4-0.1,3.6c2.9-0.2,8.3-0.7,8.3-0.7c0-0.1,0-0.1,0-0.1
	c-1.2,0.1-2.1,0.1-2.1,0.1C169.7,124.6,169.8,123.4,169.8,122.3"/>
<path class="st3" d="M169.8,122.3c-2,0.2-4.1,0.3-6.2,0.5c0,1.2-0.1,2.4-0.1,3.6c2.9-0.2,8.3-0.7,8.3-0.7c0-0.1,0-0.1,0-0.1
	c-1.2,0.1-2.1,0.1-2.1,0.1C169.7,124.6,169.8,123.4,169.8,122.3"/>
<path class="st0" d="M172,122.1c-0.7,0.1-1.5,0.1-2.2,0.2c0,1.1,0,2.3-0.1,3.4c0,0,1-0.1,2.1-0.1c0-0.4,0-0.9,0.1-1.3
	C171.9,123.6,171.9,122.9,172,122.1"/>
<path class="st3" d="M172,122.1c-0.7,0.1-1.5,0.1-2.2,0.2c0,1.1,0,2.3-0.1,3.4c0,0,1-0.1,2.1-0.1c0-0.4,0-0.9,0.1-1.3
	C171.9,123.6,171.9,122.9,172,122.1"/>
<path class="st3" d="M172,122.1c-0.7,0.1-1.5,0.1-2.2,0.2c0,1.1,0,2.3-0.1,3.4c0,0,1-0.1,2.1-0.1c0-0.4,0-0.9,0.1-1.3
	C171.9,123.6,171.9,122.9,172,122.1"/>
<path class="st0" d="M137.5,127.4C137.5,127.4,137.5,127.3,137.5,127.4c0-0.5-0.1-1-0.3-1.1c-0.2,0-0.6,0-1.9,0.2
	c-0.1,6.5-0.2,12.8-0.3,19.3c0.8-0.2,1.5-0.3,2.3-0.4c0-3.3,0.2-7.3,0.2-10.9C137.6,131.2,137.7,128.4,137.5,127.4
	C137.5,127.4,137.5,127.4,137.5,127.4"/>
<path class="st3" d="M137.5,127.4C137.5,127.4,137.5,127.3,137.5,127.4c0-0.5-0.1-1-0.3-1.1c-0.2,0-0.6,0-1.9,0.2
	c-0.1,6.5-0.2,12.8-0.3,19.3c0.8-0.2,1.5-0.3,2.3-0.4c0-3.3,0.2-7.3,0.2-10.9C137.6,131.2,137.7,128.4,137.5,127.4
	C137.5,127.4,137.5,127.4,137.5,127.4"/>
<path class="st0" d="M141.3,152c-6.1,0.9-11.9,1.9-18.1,3.1c0.1-9,0.3-17.6,0.4-26.6c-1.7,0-2.9-0.3-3.9-1c-1.3-1-1.5-2.4-1.5-3.2
	c0-0.3,0-0.5,0-0.6c0.1-0.4,0.1-0.7,0.2-1.1c-1.3,0.2-2.6,0.5-3.8,0.7c-0.4,0.1-0.8,0.2-1.2,0.2c-0.1,0.7-0.2,1.4-0.4,2.1
	c0,0.1,0,0.1,0,0.2c0,0.2,0,0.4,0,0.6c0,2.4,1.2,3.8,2.2,4.5c0.9,0.7,2,1,3.1,1.2c0,2.8-0.4,26.9-0.4,26.9c0.9-0.2,1.8-0.3,2.7-0.5
	c6.3-1.2,12-2.2,17.9-3c3.6-0.6,6.3-2.3,7.9-4.8c0-0.4,0-0.8,0-1.2C145.2,150.8,143.4,151.6,141.3,152"/>
<path class="st3" d="M141.3,152c-6.1,0.9-11.9,1.9-18.1,3.1c0.1-9,0.3-17.6,0.4-26.6c-1.7,0-2.9-0.3-3.9-1c-1.3-1-1.5-2.4-1.5-3.2
	c0-0.3,0-0.5,0-0.6c0.1-0.4,0.1-0.7,0.2-1.1c-1.3,0.2-2.6,0.5-3.8,0.7c-0.4,0.1-0.8,0.2-1.2,0.2c-0.1,0.7-0.2,1.4-0.4,2.1
	c0,0.1,0,0.1,0,0.2c0,0.2,0,0.4,0,0.6c0,2.4,1.2,3.8,2.2,4.5c0.9,0.7,2,1,3.1,1.2c0,2.8-0.4,26.9-0.4,26.9c0.9-0.2,1.8-0.3,2.7-0.5
	c6.3-1.2,12-2.2,17.9-3c3.6-0.6,6.3-2.3,7.9-4.8c0-0.4,0-0.8,0-1.2C145.2,150.8,143.4,151.6,141.3,152"/>
<path class="st0" d="M146.5,149.5c0,0.4,0,0.8,0,1.2c0.5-0.8,0.9-1.6,1.1-2.5C147.3,148.7,146.9,149.1,146.5,149.5"/>
<path class="st3" d="M146.5,149.5c0,0.4,0,0.8,0,1.2c0.5-0.8,0.9-1.6,1.1-2.5C147.3,148.7,146.9,149.1,146.5,149.5"/>
<path class="st3" d="M146.5,149.5c0,0.4,0,0.8,0,1.2c0.5-0.8,0.9-1.6,1.1-2.5C147.3,148.7,146.9,149.1,146.5,149.5"/>
<path class="st0" d="M226,126.8c0,0.2,0,0.4,0,0.6v0.5c0,1.8-0.5,3-1.5,4.2c0,0.2-0.1,0.3-0.2,0.5c0.8,1,1.3,2.3,1.3,3.4
	c0,2.2,0,4.3-0.1,6.4c0.4,2.7,0.8,5.5,1.1,8.3c3,1.7,6.9,2.1,9.2,2.3c0.1,0,0.3,0,0.5,0c6.1,0.5,10.5-0.3,13.2-2.2
	c0.4-0.2,0.7-0.5,1-0.8c0-0.6,0-1.3,0-2c-2.3,1.2-5.9,1.6-10.7,1.3c-3.9-0.3-11.9-0.7-12-7.6c0.1-6.2,0.2-12.2,0.3-18.4
	c0.1-4,2.1-6.4,6.2-7.2c-0.7,0-1.4,0.1-2.2,0.2c-2.2,0.3-4.7,1-6.5,2.6C226.1,120.6,226.1,123.3,226,126.8"/>
<path class="st3" d="M226,126.8c0,0.2,0,0.4,0,0.6v0.5c0,1.8-0.5,3-1.5,4.2c0,0.2-0.1,0.3-0.2,0.5c0.8,1,1.3,2.3,1.3,3.4
	c0,2.2,0,4.3-0.1,6.4c0.4,2.7,0.8,5.5,1.1,8.3c3,1.7,6.9,2.1,9.2,2.3c0.1,0,0.3,0,0.5,0c6.1,0.5,10.5-0.3,13.2-2.2
	c0.4-0.2,0.7-0.5,1-0.8c0-0.6,0-1.3,0-2c-2.3,1.2-5.9,1.6-10.7,1.3c-3.9-0.3-11.9-0.7-12-7.6c0.1-6.2,0.2-12.2,0.3-18.4
	c0.1-4,2.1-6.4,6.2-7.2c-0.7,0-1.4,0.1-2.2,0.2c-2.2,0.3-4.7,1-6.5,2.6C226.1,120.6,226.1,123.3,226,126.8"/>
<path class="st2" d="M225.5,148.3c-0.4,0-0.7,0-1.1,0c0,0.2,0,0.4,0,0.6c0.7,0.7,1.4,1.3,2.3,1.8c-0.4-2.8-0.8-5.6-1.1-8.3
	C225.6,144.3,225.6,146.3,225.5,148.3"/>
<path class="st3" d="M225.5,148.3c-0.4,0-0.7,0-1.1,0c0,0.2,0,0.4,0,0.6c0.7,0.7,1.4,1.3,2.3,1.8c-0.4-2.8-0.8-5.6-1.1-8.3
	C225.6,144.3,225.6,146.3,225.5,148.3"/>
<path class="st0" d="M241.4,140.9c0.1,0.1,0.3,0.1,0.4,0.1c0.1-0.4,0.1-0.8,0.1-1.3c0-4.4,0.1-8.5,0.1-12.9c0-1.6,0-3.1-0.2-3.7
	c0-0.1-0.2-0.2-1.4-0.4c-0.1,0-0.3,0-0.3,0c-0.1,0.7-0.1,1.4-0.2,2.2v0.8c-0.1,4.4-0.1,8.6-0.2,13c0,0,0,0.1,0,0.1v0.5
	c0,0.5,0,1.1,0.3,1.3C240.3,140.8,240.7,140.9,241.4,140.9"/>
<path class="st3" d="M241.4,140.9c0.1,0.1,0.3,0.1,0.4,0.1c0.1-0.4,0.1-0.8,0.1-1.3c0-4.4,0.1-8.5,0.1-12.9c0-1.6,0-3.1-0.2-3.7
	c0-0.1-0.2-0.2-1.4-0.4c-0.1,0-0.3,0-0.3,0c-0.1,0.7-0.1,1.4-0.2,2.2v0.8c-0.1,4.4-0.1,8.6-0.2,13c0,0,0,0.1,0,0.1v0.5
	c0,0.5,0,1.1,0.3,1.3C240.3,140.8,240.7,140.9,241.4,140.9"/>
<path class="st0" d="M224.2,132.4c0,0.1,0.1,0.1,0.1,0.2c0.1-0.2,0.1-0.3,0.2-0.5C224.4,132.2,224.3,132.3,224.2,132.4"/>
<path class="st3" d="M224.2,132.4c0,0.1,0.1,0.1,0.1,0.2c0.1-0.2,0.1-0.3,0.2-0.5C224.4,132.2,224.3,132.3,224.2,132.4"/>
<path class="st3" d="M224.2,132.4c0,0.1,0.1,0.1,0.1,0.2c0.1-0.2,0.1-0.3,0.2-0.5C224.4,132.2,224.3,132.3,224.2,132.4"/>
<path class="st2" d="M224,148.2c0.1,0.2,0.3,0.4,0.5,0.6c0-0.2,0-0.4,0-0.6C224.3,148.2,224.1,148.2,224,148.2"/>
<path class="st3" d="M224,148.2c0.1,0.2,0.3,0.4,0.5,0.6c0-0.2,0-0.4,0-0.6C224.3,148.2,224.1,148.2,224,148.2"/>
<path class="st3" d="M224,148.2c0.1,0.2,0.3,0.4,0.5,0.6c0-0.2,0-0.4,0-0.6C224.3,148.2,224.1,148.2,224,148.2"/>
<path class="st0" d="M250.6,148c0,0.7,0,1.3,0,2c0.9-0.9,1.5-2,1.8-3.3C251.9,147.2,251.3,147.7,250.6,148"/>
<path class="st3" d="M250.6,148c0,0.7,0,1.3,0,2c0.9-0.9,1.5-2,1.8-3.3C251.9,147.2,251.3,147.7,250.6,148"/>
<path class="st3" d="M250.6,148c0,0.7,0,1.3,0,2c0.9-0.9,1.5-2,1.8-3.3C251.9,147.2,251.3,147.7,250.6,148"/>
<path class="st1" d="M215.7,127.8c0.1-1.5,0.2-1.5,0.2-4.3c0.1-3.6-1-3.5-3.7-3.6c-0.6,0-1.3,0-1.8,0c0,3.2-0.1,6.2-0.1,9.4
	c1.3,0,2.6,0.1,3.9,0.1C215.2,129.4,215.7,128.5,215.7,127.8 M214.1,127.8L214.1,127.8c0,0.1,0,0.2-0.1,0.3c-0.7,0-1.4-0.1-2.1-0.1
	c0-2.3,0-4.5,0.1-6.8c0.1,0,0.1,0,0.2,0c0,0,0.3,0,0.2,0c0.6,0,1.4,0,1.6,0.1c0,0,0.3,0.3,0.3,1.9v0.3v1.2c0,1.5,0,1.7-0.1,2.7
	C214.1,127.5,214.1,127.6,214.1,127.8"/>
<path class="st1" d="M200.4,114.1c0,0.1,0,0.2,0,0.3c-0.1,11.1-0.3,21.8-0.5,33c3.9-0.1,7.7,0,11.7,0.1c0.1-4.5,0.1-8.7,0.2-13.2
	h0.2c2.7,0.1,2.6,1.1,2.6,1.5c0,1,0,3.9,0.1,5.2c0,0.3,0,0.4,0,0.7c0,1.9,0.1,2.1,0.2,2.3c0.8,2.3,2.8,3.7,6.1,4.2
	c0.1,0,0.2,0,0.2,0c0,0,0.1,0,0.1,0c0.9,0,1.7,0.1,2.5,0.1c0.1,0,0.3,0,0.5,0c0.4,0,0.7,0,1.1,0c0-2,0-4,0.1-5.9
	c0-2.1,0.1-4.3,0.1-6.4c0-1.1-0.6-2.4-1.3-3.4c0-0.1-0.1-0.1-0.1-0.2c0.1-0.1,0.2-0.2,0.3-0.3c1-1.1,1.4-2.4,1.5-4.2v-0.5
	c0-0.2,0-0.4,0-0.6c0.1-3.6,0.1-6.2-0.4-8.1c-0.6-2.2-1.9-3.5-5-4.1c-0.4-0.1-0.8-0.2-1.3-0.2c0,0-0.1,0-0.1,0h-0.1
	c-1.4-0.1-2.7-0.1-4-0.1C210.3,114.1,205.4,114.1,200.4,114.1 M219.2,115.7c5.1,0.7,5.3,2.2,5.2,11v0.6c0,0.1,0,0.3,0,0.5
	c0,1.9-0.5,3.1-2.1,4.4c0.1,0.1,0.2,0.2,0.3,0.4c0.9,1,1.5,2.3,1.5,3.3c-0.1,3.8-0.1,7.3-0.1,11.1c-0.8-0.1-1.6-0.1-2.4-0.1
	c-2.5-0.3-4.3-1.3-5-3.2c-0.1-0.3-0.2-2-0.2-2c0-0.5-0.1-4.7-0.1-5.9c0-2-1.9-2.7-4.2-2.8c-0.6,0-1.2,0-1.8-0.1
	c-0.1,4.5-0.1,8.8-0.2,13.2c-2.8,0-5.5,0-8.5,0c0.1-10.4,0.3-20.3,0.4-30.7C207.8,115.4,213.4,115.4,219.2,115.7"/>
<path class="st1" d="M266.2,151.8c0.3,0,0.7,0.1,1,0.1c0.1-7.4,0.2-14.5,0.3-21.7c0-3.4,0.1-6.9,0.1-10.4c0-0.3,0-0.6,0-0.9
	c-0.6,0-1.1-0.1-1.6-0.2c-3.3-0.5-6.5-0.9-9.8-1.3c0,0.3,0,0.5,0,0.8c-0.2,10.9-0.3,21.3-0.5,32.2
	C259.3,150.8,262.7,151.3,266.2,151.8 M257.9,118.9c2.8,0.4,5.4,0.7,8.2,1.1c-0.1,10.3-0.3,20.1-0.4,30.4c-2.8-0.4-5.4-0.7-8.2-1.1
	C257.6,139,257.8,129.2,257.9,118.9"/>
<path class="st1" d="M195,120.5c0.5-0.2,0.9-0.4,1.3-0.8c0.3-0.2,0.5-0.5,0.8-0.7c1.2-1.4,1.3-2.9,1.3-3.5v-0.2c0-0.3,0-0.6,0-0.9
	c0-0.1,0-0.2,0-0.3c-0.6,0-1.1,0-1.5,0c-7.4,0.1-14.3,0.4-21.6,0.9v0c0,2.4-0.1,4.7-0.1,7c2-0.1,3.9-0.3,5.8-0.4
	c-0.1,8.9-0.2,17.4-0.3,26.4c3.5-0.2,7.1-0.4,10.6-0.5c0.4,0,0.7,0,1.1,0c0.1-8,0.2-15.7,0.4-23.6c0-0.9,0-1.9,0-2.8
	C193.5,121,194.3,120.8,195,120.5 M191,119.9c-0.1,8.9-0.2,17.4-0.4,26.4c-2.9,0.1-5.6,0.2-8.5,0.3c0.1-8.9,0.2-17.4,0.4-26.3
	c-2,0.1-3.9,0.2-5.9,0.3c0-1.5,0-3,0.1-4.5c6.8-0.4,13.3-0.7,20-0.7C196.8,115.4,197.2,120,191,119.9"/>
<path class="st1" d="M275.3,127.2c-0.1,8.8-0.2,17.2-0.3,26c3.6,0.6,7,1.2,10.5,1.9c0.4,0.1,0.7,0.1,1.1,0.2
	c0.1-7.7,0.2-15,0.3-22.7c0-1.1,0-2.3,0-3.4c1.4,0.2,2.6,0,3.6-0.6c0.4-0.2,0.6-0.4,0.9-0.7c1.1-1.1,1.2-2.5,1.2-3v-0.2
	c-0.1-0.4-0.1-0.8-0.1-1.2c-0.5-0.1-1-0.2-1.5-0.3c-7.2-1.5-14.2-2.7-21.5-3.8c0,0.3,0,0.6,0,0.9c0,2,0,4-0.1,6.1
	C271.5,126.5,273.4,126.8,275.3,127.2 M271.2,120.8c6.7,1,13.1,2.2,19.9,3.6c0,0,0.3,4.7-5.7,3.3c-0.1,8.8-0.3,17.2-0.4,26
	c-2.9-0.6-5.6-1-8.4-1.5c0.1-8.8,0.2-17.2,0.3-26c-2-0.3-3.8-0.7-5.8-1C271.2,123.7,271.2,122.3,271.2,120.8"/>
<path class="st1" d="M169.8,122.3c0.7-0.1,1.4-0.1,2.2-0.2c0.4,0,0.7-0.1,1.1-0.1c0-2.3,0-4.6,0.1-6.9v0c-0.1,0-0.2,0-0.3,0
	c-0.4,0-0.9,0.1-1.3,0.1c-0.6,0-1.1,0.1-1.6,0.1c-5.9,0.5-11.6,1-17.7,1.7v0.2c-0.1,11.3-0.3,22.1-0.5,33.3c6.7-0.8,13.2-1.5,19.9-2
	c0.4,0,0.7-0.1,1.1-0.1c0-2.4,0.1-4.7,0.1-7.2c-3.1,0.3-6.2,0.5-9.5,0.8c0-0.7,0-1.4,0-2c0-1.1,0-2.3,0-3.4c1.9-0.2,3.6-0.4,5.4-0.5
	c0.4,0,0.7-0.1,1.1-0.1c0-3.1,0.1-5.9,0.1-9c-2.2,0.1-4.2,0.3-6.5,0.6c0-0.5,0-0.9,0-1.3c0-1.2,0-2.4,0.1-3.6
	C165.7,122.6,167.7,122.5,169.8,122.3 M162,121.7c0,2.5,0,5-0.1,7.5c2.2-0.2,4.3-0.4,6.5-0.6c0,2.1-0.1,4.2-0.1,6.4
	c-2.2,0.2-4.3,0.4-6.5,0.6c0,2.7-0.1,5.3-0.1,8c3.3-0.3,6.3-0.6,9.5-0.8c0,1.5,0,3.1,0,4.6c-3,0.2-5.8,0.5-8.8,0.8
	c-3.1,0.3-5.9,0.6-8.9,0.9c0.1-10.4,0.3-20.4,0.4-30.9c5.9-0.7,11.7-1.2,17.7-1.7c0,1.5,0,2.9-0.1,4.4
	C168.3,121.2,165.2,121.4,162,121.7"/>
<path class="st1" d="M118.2,124.3c0,0.8,0.2,2.2,1.5,3.2c1,0.7,2.2,1,3.9,1c-0.1,9-0.2,17.6-0.4,26.6c6.2-1.2,12-2.2,18.1-3.1
	c2.1-0.3,3.9-1.2,5.2-2.5c0.4-0.4,0.8-0.8,1.1-1.3c0.9-1.3,1.5-3,1.5-4.8c0-4.9,0.1-9.6,0.2-14.6c0.1-5.7,0.2-8.9-2.4-10.1
	c-1.1-0.5-2.6-0.6-4.8-0.4h0c-8.1,1.2-15.7,2.5-23.6,4.1c0,0,0,0,0,0.1c-0.1,0.4-0.1,0.8-0.2,1.1C118.2,123.7,118.2,124,118.2,124.3
	 M119.9,123.5c7.6-1.5,14.7-2.7,22.2-3.8c6-0.7,5.7,1.4,5.6,10.4c-0.1,4.6-0.2,9-0.2,13.5c-0.2,3.9-2.6,6.4-6.2,7.1
	c-5.6,0.8-10.9,1.7-16.5,2.8c0.2-8.9,0.3-17.5,0.4-26.5C119.1,127.9,119.9,123.5,119.9,123.5"/>
<path class="st1" d="M139.1,127.1c0,0,0.1-1.8-1.3-2.1c0,0-0.6-0.2-4.2,0.5c-0.1,7.4-0.2,14.5-0.3,21.9c1.9-0.3,3.6-0.6,5.5-0.9
	C138.9,146.5,139.4,129.8,139.1,127.1 M137.5,134.6c0,3.6-0.2,7.6-0.2,10.9c-0.8,0.1-1.5,0.2-2.3,0.4c0.1-6.5,0.2-12.8,0.3-19.3
	c1.3-0.2,1.7-0.2,1.9-0.2c0.2,0.1,0.3,0.6,0.3,1c0,0,0,0,0,0.1c0,0,0,0,0,0.1C137.7,128.4,137.6,131.2,137.5,134.6"/>
<path class="st1" d="M241.4,142.3c0.6,0,1.3,0,1.9,0c0.3-0.8,0.3-1.5,0.3-2.4c0.1-4.4,0.1-8.6,0.2-12.9c0-4.3,0-5.1-3.2-5.4
	c-0.6-0.1-1.1-0.1-1.8,0c-0.4,1.3-0.4,2.7-0.4,4.1c-0.1,4.4-0.1,8.6-0.2,13.1C238.2,140.3,238.1,141.9,241.4,142.3 M239.8,139.3
	v-0.5c0,0,0,0,0-0.1c0.1-4.4,0.1-8.6,0.2-13v-0.8c0-0.8,0.1-1.5,0.2-2.1c0.1,0,0.2,0,0.3,0c1.2,0.1,1.4,0.3,1.4,0.4
	c0.2,0.6,0.3,2,0.2,3.7c0,4.4-0.1,8.5-0.1,12.9c0,0.5,0,0.9-0.1,1.3c-0.1,0-0.3,0-0.4-0.1c-0.7,0-1.2-0.1-1.3-0.3
	C239.8,140.4,239.8,139.8,239.8,139.3"/>
<path class="st1" d="M228.2,123.2c-0.1,6.2-0.2,12.2-0.3,18.4c0.1,6.9,8.1,7.3,12,7.6c4.8,0.3,8.4-0.1,10.7-1.3
	c0.7-0.4,1.3-0.8,1.8-1.3c0.8-0.8,1.2-1.9,1.2-3.1c0-0.2,0-0.5,0-0.8c0.1-6.2,0.2-12.2,0.3-18.4c0-3.1-1.1-5.1-2.9-6.3
	c-2.4-1.7-6-2-9.3-2.3c-2.2-0.2-4.2-0.3-6,0c-0.5,0.1-0.9,0.1-1.3,0.2C230.3,116.9,228.3,119.3,228.2,123.2 M236,117.1
	c1.5-0.2,3.4-0.2,5.6,0c6.1,0.5,10.6,1,10.6,7.2c-0.1,6.2-0.2,12.2-0.2,18.4c0,0.3,0,0.5,0,0.8c-0.1,4.2-5.4,5.1-12.1,4.6
	c-6.5-0.6-10.3-1.6-10.4-6.2c0.1-6.2,0.1-12.2,0.3-18.4C229.9,119,232.4,117.5,236,117.1"/>
<path class="st2" d="M201.6,146.1c2.9,0,5.7,0,8.5,0c0.1-4.4,0.1-8.7,0.2-13.2c0.6,0,1.2,0,1.8,0.1c2.3,0.1,4.3,0.8,4.2,2.8
	c0,1.2,0.1,5.4,0.1,5.9c0,0,0.1,1.7,0.2,2c0.7,1.9,2.5,2.9,5,3.2c0.8,0,1.6,0.1,2.4,0.1c0-3.8,0.1-7.4,0.1-11.1
	c-0.1-1-0.7-2.3-1.5-3.3c-0.1-0.1-0.3-0.2-0.3-0.4c1.6-1.3,2.1-2.5,2.1-4.4c0-0.1,0-0.3,0-0.5v-0.6c0.1-8.8-0.1-10.4-5.2-11
	c-5.8-0.2-11.4-0.3-17.2-0.3C201.9,125.7,201.7,135.7,201.6,146.1 M210.4,119.9c0.6,0,1.2,0,1.8,0c2.6,0.1,3.8,0,3.7,3.6
	c0,2.8,0,2.8-0.2,4.3c0,0.7-0.6,1.5-1.6,1.5c-1.3,0-2.6-0.1-3.9-0.1C210.3,126.1,210.4,123.1,210.4,119.9"/>
<path class="st2" d="M266.1,120c-2.8-0.4-5.4-0.8-8.2-1.1c-0.1,10.3-0.3,20.2-0.4,30.5c2.8,0.4,5.4,0.7,8.2,1.1
	C265.8,140.1,265.9,130.3,266.1,120"/>
<path class="st2" d="M196.8,115.4c-6.7,0.1-13.2,0.3-20,0.7c0,1.5,0,2.9-0.1,4.5c2-0.1,3.9-0.2,5.9-0.3c-0.1,8.9-0.3,17.4-0.4,26.3
	c2.9-0.1,5.6-0.3,8.5-0.3c0.1-9,0.3-17.5,0.4-26.4C197.2,120,196.8,115.4,196.8,115.4"/>
<path class="st2" d="M276.6,152.2c2.8,0.5,5.5,0.9,8.4,1.5c0.1-8.8,0.3-17.2,0.4-26c6,1.4,5.7-3.3,5.7-3.3
	c-6.7-1.4-13.2-2.5-19.9-3.6c0,1.5,0,2.9,0,4.4c2,0.3,3.8,0.6,5.8,1C276.8,135,276.7,143.4,276.6,152.2"/>
<path class="st2" d="M171.5,116.5c-6,0.4-11.7,1-17.7,1.7c-0.2,10.4-0.3,20.4-0.4,30.9c3-0.4,5.8-0.6,8.9-0.9c3-0.3,5.8-0.6,8.8-0.8
	c0-1.5,0-3.1,0-4.6c-3.1,0.3-6.2,0.5-9.5,0.8c0-2.7,0.1-5.3,0.1-8c2.2-0.2,4.3-0.4,6.5-0.6c0-2.1,0.1-4.2,0.1-6.4
	c-2.2,0.2-4.3,0.4-6.5,0.6c0-2.5,0-4.9,0.1-7.5c3.3-0.3,6.3-0.5,9.5-0.8C171.4,119.4,171.4,118,171.5,116.5"/>
<path class="st2" d="M125.2,127c-0.1,8.9-0.2,17.5-0.4,26.5c5.6-1,10.9-2,16.5-2.8c3.6-0.6,6-3.2,6.2-7.1c0-4.6,0.1-9,0.2-13.5
	c0.1-8.9,0.4-11-5.6-10.4c-7.5,1.1-14.6,2.3-22.2,3.8C119.9,123.5,119.1,127.9,125.2,127 M133.6,125.5c3.6-0.7,4.2-0.5,4.2-0.5
	c1.4,0.3,1.3,2.1,1.3,2.1c0.3,2.7-0.2,19.4-0.2,19.4c-1.9,0.3-3.6,0.6-5.5,0.9C133.5,140,133.5,132.9,133.6,125.5"/>
<path class="st2" d="M229.5,141.7c0.1,4.6,3.9,5.7,10.4,6.2c6.7,0.5,12-0.3,12.1-4.6c0-0.3,0-0.5,0-0.8c0.1-6.2,0.2-12.2,0.2-18.4
	c0-6.1-4.5-6.6-10.6-7.2c-2.2-0.2-4.1-0.2-5.6,0c-3.6,0.4-6.1,2-6.3,6.2C229.7,129.6,229.6,135.5,229.5,141.7 M238.2,138.6
	c0.1-4.4,0.1-8.7,0.2-13.1c0-1.4,0-2.8,0.4-4.1c0.6-0.1,1.1,0,1.7,0c3.2,0.3,3.2,1.1,3.2,5.4c-0.1,4.4-0.1,8.6-0.2,12.9
	c0,0.9,0,1.6-0.3,2.4c-0.6,0-1.3,0-1.9,0C238.1,141.9,238.2,140.3,238.2,138.6"/>
<path class="st1" d="M113.1,199.5V177v-9.5c-1.1,0.2-2.3,0.3-3.4,0.5c-7,1-13.8,2.2-20.8,3.4v0.3c0,25.7-0.1,50.4,0.1,76.1
	c8-1.4,15.8-2.7,23.9-3.8c0.1,0,0.2,0,0.2,0L113.1,199.5L113.1,199.5z M109.7,241.5c-5.9,0.9-11.4,1.7-17.3,2.8
	c0-23.9-0.1-46.7-0.1-70.6c5.9-1.1,11.5-1.9,17.4-2.8L109.7,241.5L109.7,241.5z"/>
<path class="st1" d="M162.5,162.4c-0.2,0-0.4,0-0.6,0c-11.1,0.7-25,2-28,2.4c-0.2,0-0.5,0.1-0.8,0.1c-0.1,0-0.1,0-0.2,0
	c-1.1,0.1-2.2,0.3-3.1,0.6c0,0,0,0-0.1,0c-5.1,1.4-8.5,4.7-9.5,9.3c0,0.6-0.2,1.1-0.2,1.7v-0.3c-0.2,1.4-0.5,5.9-0.5,10.3
	c0,3.3,0.2,6.3,0.9,8c3.1,6.9,9.8,8.6,15.5,9.5c0.2,0,0.4,0,0.6,0.1c0,0.1,0.2,0.1,0.3,0.1v0c0,0,0,0,0,0c0,7.5,0.1,14.6,0.1,22.1
	c-2.6,0.3-5.1,0.6-7.6,0.9c-2.5,0.3-4.9,0.6-7.4,0.9c-0.1,0-0.1,0-0.2,0c-0.1,0-0.2,0-0.3,0c0,4.8,0.1,9.5,0.1,14.3
	c7.7-1,15.1-1.8,23-2.5c0,0,0.1,0,0,0c9-1,16.6-4.3,16.6-15.6c0-5.7,0.1-10.4,0.1-14.5c0-3.8,0-6.8,0-9.1c0-2.1-0.1-3.6-0.2-4.6
	c-0.2-2.6-1.6-4.5-4.3-6.2c-0.9-0.6-1.9-1.1-3.4-1.7c-0.9-0.4-2-0.7-3.2-1.1c-0.2,0-0.4,0-0.4-0.1c-0.8-0.3-1.5-0.5-2.1-0.7
	c-3.5-1.3-5.6-2.5-5.6-5.1v-1.7c4-0.4,7.9-0.7,11.8-1c4.2-0.4,7.3-2.2,9.4-5.5c1.3-2.2,1.8-4.1,1.8-4.7c0,0,0,0,0-0.1v-0.1
	c0-0.5,0.1-1,0.1-1.6c0-0.6-0.1-1.1-0.1-1.8c0-0.9-0.2-1.7-0.2-2.7h0C164.1,162.3,163.4,162.4,162.5,162.4 M161.9,168.3
	c0,0-0.3,1.8-1.4,3.6c-1.3,1.9-3,3.5-6.4,3.8c-5.1,0.4-10.1,0.8-15.2,1.4v4.6c0.2,5.1,4.9,6.8,9.6,8.3c1.1,0.4,2.3,0.7,3.4,1.2
	c1.1,0.4,2,0.9,2.9,1.4c1.7,1.1,2.8,2.3,3,4.2c0.4,5.3,0.2,29,0.1,29c0,0.5-0.2,3.1-0.7,4.2c-2.1,4.8-6.8,6.4-12.7,7.2
	c-6.8,0.6-13,1.4-19.6,2.2c0-2.9,0-5.7,0-8.5c5.3-0.7,10.3-1.3,15.4-1.7c0-9-0.1-17.5-0.1-26.4c-0.4-0.6-1-0.8-1.6-1
	c-0.6-0.1-1.3-0.2-1.7-0.3c-6.2-1-10.9-2.7-13.2-8c-1.4-3.6-0.2-16.9-0.2-17.1c0,0-0.1-0.5,0.1-1.2c1-4.2,4.4-6.6,9.6-7.1
	c0.2-0.1,0.6-0.1,0.8-0.1c3.6-0.4,22.7-2.1,27.8-2.4C162.1,166.1,162.1,167.2,161.9,168.3"/>
<path class="st1" d="M332.2,175c-7.4-1.6-14.6-2.9-22.1-4.2v0.1V187c-0.2-0.6-0.4-1.1-0.5-1.7c-1.5-4.2-3.7-7.5-6.2-10.1
	c-0.3-0.3-0.6-0.6-0.9-0.9c-5.8-5.6-13.2-7.5-18.3-7.9c-0.8,0-1.5-0.1-2.1,0c0,0-1.8,0-2.7,0v0.1v76.1c8,1,15.8,2.1,23.7,3.4v-18
	c3.6,8.8,7.9,19.3,7.9,19.3c8,1.4,15.5,2.8,23.2,4.5v-76.4v-0.1C333.5,175.2,332.8,175.1,332.2,175 M330.7,248.3
	c-5.9-1.2-11.4-2.3-17.5-3.4c-4.5-11.3-9.1-22.1-13.6-33.3v31c-5.9-0.9-11.1-1.7-17-2.4c0-23.9,0-46.8,0-70.7
	c0,0,17.3-0.7,23.6,16.2c2.1,6.2,4,12.1,5.8,18.2c0.6,1.5,0.8,2.9,1.4,4.4v-33.9c5.8,1.1,11.4,2.1,17.3,3.4L330.7,248.3L330.7,248.3
	z"/>
<path class="st1" d="M361.7,199.2v-1.7c3.9,1.1,7.9,2.1,11.8,3.2c4,1.1,7.1,0.4,9.2-2c1.5-1.6,2.2-4.3,2.2-4.4c0-0.3,0-0.6,0-0.9
	c0-0.5,0-0.9,0-1.4c-0.1-1.3-0.1-2.5-0.1-3.8v0c-0.3-0.1-0.6-0.2-0.9-0.3c-0.7-0.2-1.4-0.5-2.2-0.7c-0.1,0-0.2-0.1-0.3-0.1
	c-7.8-2.3-19.1-5.3-24.9-6.8c-2.1-0.5-3.5-0.9-3.8-0.9h0.1c0,0,0,0,0,0c-0.1,0-0.1,0-0.2,0c-7.1-1.7-11.6,0.6-12.8,5.6
	c0,0.6-0.8,7-0.7,11.5c0.1,3.3,0.2,6.3,0.9,8.3c3.1,8,9.8,12.1,15.5,15c0.2,0.1,0.4,0.2,0.6,0.3c0.1,0,0.3,0.1,0.3,0.1
	c0.2,2.3,0.1,17.8,0.1,22.2c-2.2-0.5-4.4-1.1-6.5-1.5c-2.9-0.7-5.8-1.3-8.8-2.1v0v0v14.3c7.9,1.8,15.1,3.5,23.1,5.6c0,0,0.1,0,0,0
	c8.4,1.8,13.7,0.2,16.2-4.6c0.4-0.8,0.5-1.9,0.5-1.9v-0.1c0-2.9,0.1-8.6,0.1-14.6v-0.7c0-5.5-0.1-10.8-0.2-14.1c0-0.3,0-0.6,0-0.8
	c0-0.5,0-0.9-0.1-1.2c-0.2-2.7-1.6-5.1-4.2-7.7c-0.9-0.9-1.9-1.8-3.4-2.8c-1-0.7-2.1-1.4-3.1-2.2c-0.1-0.1-0.4-0.2-0.5-0.3
	c-1-0.7-1.8-1.3-2.6-1.9C363.6,203.6,361.7,201.7,361.7,199.2 M368,210c1.1,0.7,2.3,1.5,3.4,2.4c1,0.8,2,1.6,2.9,2.4
	c1.7,1.7,2.8,3.3,3,5.2c0.3,5.3,0.2,29.3,0.2,31.3c0,0,0,0.5-0.4,1c-1.9,4.2-5.9,5.5-13,3.5c-6.6-1.8-13-3.3-19.6-4.8v-8.5
	c5.1,1.2,10.2,2.4,15.3,3.7c0-9-0.1-17.6-0.1-26.5c-0.4-0.7-1-1.1-1.6-1.6c-0.6-0.3-1.3-0.6-1.6-0.8c-6.2-3.2-11-6.6-13.2-12.7
	c-1.4-4.1-0.2-17-0.2-17.2c0,0,0-0.4,0.2-1.1c1-3.9,4.3-5.1,9.6-3.7c0.2,0,22.5,5.8,28.5,7.6c0,1,0.1,2,0.1,2.9
	c0,0.4-0.6,1.9-1.5,3.2c-1.3,1.3-3,2.3-6.3,1.4c-5.1-1.4-10.1-2.7-15.2-4v4.6C358.3,203.4,363.4,206.8,368,210"/>
<path class="st1" d="M219.2,164.3c0-1,0-1.8-0.2-2.8c-0.9,0-2.1-0.1-3.2-0.1c-14.3-0.3-27.9-0.2-42.1,0.5c-1.3,0.1-2.5,0.1-3.8,0.2
	v16.1c4.2-0.2,8.1-0.4,12.4-0.5v60.5c8.3-0.3,16.4-0.4,24.8-0.3v-60.7c3-0.3,5.6-1.2,7.8-2.9c1.7-1.4,2.7-3.1,3.3-4.6
	c0.9-2.1,1-4,1-5L219.2,164.3L219.2,164.3z M203.7,174.4V235c-6-0.1-11.9,0-17.9,0.2v-60.5c-4.2,0.1-8.1,0.2-12.4,0.4v-10.2
	c14.4-0.7,28-0.8,42.4-0.5C215.8,164.4,216.8,175,203.7,174.4"/>
<path class="st1" d="M19.1,188.8c-0.8,1-1,2.1-1.1,3.4c0,2.2,0.9,4.4,1.4,5.3c1.1,1.8,3.8,4.1,9.9,3.2v60.7
	c8.3-2.4,16.5-4.3,24.8-6.3c0,0,0,0,0,0v-16.9v-0.1v-4.5v-2.8v-6.3c4.5-1.1,8.9-2.1,13.4-3c10.2-2.3,16.2-8.9,16.3-18.9v-1.1
	c0-0.5,0-0.9,0-1.4c0-10.8,0.1-17.9-2.5-21.7c-0.1-0.2-0.3-0.4-0.4-0.5c0,0-0.1-0.1-0.1-0.1c-0.1-0.1-0.2-0.3-0.3-0.4
	c0,0,0,0-0.1-0.1c-0.1-0.1-0.3-0.3-0.4-0.4h0c-2-1.8-5.2-2.4-10.1-1.9c-0.1,0-0.5,0.1-0.7,0.1c-0.1,0-0.1,0-0.1,0
	c-0.1,0-0.1,0-0.1,0c-0.4,0.1-0.8,0.2-1.2,0.3c-0.1,0-0.2,0-0.3,0.1c-1.6,0.3-3.1,0.7-4.6,1c-0.3,0.1-0.6,0.1-0.9,0.2
	c-2.3,0.5-4.6,1-6.9,1.6c-0.9,0.2-1.8,0.4-2.7,0.6c-0.3,0.1-0.5,0.1-0.8,0.2c-2.1,0.5-4.3,1-6.4,1.6c-2.2,0.5-4.3,1.1-6.5,1.7
	c-0.3,0.1-0.7,0.2-1,0.3c-5.9,1.6-11.8,3.2-17.7,4.9C19.7,188.1,19.5,188.4,19.1,188.8 M21.6,190.1c16.1-4.6,31.5-8.6,47.6-12
	c10.7-1.1,11.4,2.1,11.4,22.6c0,0.6,0,1,0,1.5v1.1c0,8.7-5.1,13.6-12.9,15.3c-5.6,1.3-11.1,2.5-16.8,3.8V253c-6.1,1.4-12,2.9-18,4.6
	c-0.2-20.4,0-40.1,0-60.6C19.7,200.8,21.6,190.1,21.6,190.1"/>
<path class="st1" d="M62.2,211.4c0-0.3,0.1-0.8,0.1-1.1c0.2-3.8,0.1-12.3,0.1-12.3c0-0.8,0-1.6,0-2.4c0-0.9,0-1.7-0.2-2.5
	c-0.6-1.6-1.7-2.7-4.4-2.4c-1,0.1-1.9,0.3-3.3,0.7c-1.3,0.2-2.6,0.5-4,0.9v22.1c3.2-0.8,6.2-1.5,9.4-2.2
	C60.7,211.9,61.5,211.7,62.2,211.4 M54,210.5v-16.2c0.4-0.1,0.7-0.2,1.1-0.3c0.7-0.1,1.5-0.3,2.3-0.4c0.9-0.1,1.1,0,1.5,0.9
	c0,0.5,0.1,12.9,0.1,14.8C57.3,209.7,55.7,210.1,54,210.5"/>
<path class="st2" d="M92.4,244.3c5.9-1,11.5-1.9,17.3-2.8v-70.7c-5.9,0.9-11.5,1.7-17.4,2.8C92.3,197.6,92.4,220.4,92.4,244.3"/>
<path class="st2" d="M134.1,167.7c-0.2,0.1-0.6,0-0.8,0.1c-5.3,0.5-8.7,2.9-9.6,7.1c-0.2,0.7-0.1,1.2-0.1,1.2
	c0,0.2-1.2,13.5,0.2,17.1c2.3,5.3,7,7,13.2,8c0.4,0.1,1.1,0.1,1.7,0.3c0.6,0.2,1.2,0.4,1.6,1c0,9,0.1,17.5,0.1,26.4
	c-5.1,0.5-10.1,1-15.4,1.7c0,2.8,0,5.6,0,8.5c6.6-0.9,12.8-1.7,19.6-2.2c5.9-0.8,10.6-2.3,12.7-7.2c0.4-1.1,0.7-3.7,0.7-4.2
	c0,0,0.2-23.7-0.1-29c-0.2-2-1.3-3.1-3-4.2c-0.9-0.5-1.8-1-2.9-1.4c-1.1-0.4-2.3-0.8-3.4-1.2c-4.7-1.5-9.4-3.1-9.6-8.3v-4.6
	c5.1-0.6,10.1-1,15.2-1.4c3.4-0.3,5.1-1.9,6.4-3.8c1.1-1.8,1.4-3.6,1.4-3.6c0.2-1.1,0.2-2.2,0-2.9
	C156.8,165.7,137.7,167.3,134.1,167.7"/>
<path class="st1" d="M248.4,162.4L248.4,162.4c-5.6-0.4-9.4-0.3-12.8,0.2c-1.3,0.2-2.6,0.5-3.8,0.9c-8.1,2.5-12.2,8.2-12.2,17.4
	v42.7c0.1,15.3,15.3,16.5,25.4,17.3c12.5,0.8,20.7-0.8,25.3-5c2.6-2.4,3.9-5.6,4-9.3c0,0,0-1.8,0-1.8v-42.7c0-4.1-0.8-7.4-2.1-9.9
	C267.9,163.9,258,163.1,248.4,162.4 M270.8,224.6c0,0.6,0,1.2,0,1.8c-0.1,9.7-11.3,11.9-25.5,11c-13.8-1.1-22.1-3.3-22.2-13.8v-42.7
	c0.1-9.9,5.3-13.5,13.1-14.8c3.4-0.6,7.2-0.5,11.9-0.2c13.1,1,22.6,2,22.7,16.1L270.8,224.6L270.8,224.6z"/>
<path class="st1" d="M245.8,175.9c-1.1-0.1-2.1-0.1-3.2,0c-0.2,0.2-0.4,0.3-0.6,0.4c-0.4,1.4-0.6,3-0.6,4.6
	c-0.2,1.6-0.1,3.2-0.1,4.5v30.3c-0.2,4-0.1,7.7,7,8.3c1.1,0,2.3,0.1,3.6,0c0.2-0.1,0.4-0.3,0.6-0.4c0.2-0.9,0.2-1.7,0.4-2.7
	c0-0.9,0.1-1.7,0.1-2.6v-29.9C252.9,178.5,252.9,176.6,245.8,175.9 M249.5,218.4c0,0-0.1,1.8-0.1,2.2h-0.2c0,0-0.5,0-0.7,0
	c-3.3-0.3-3.8-0.9-3.8-3.1c0-0.5,0-1,0-1.6l0-0.1v-30.3l0-1.2c0-0.4,0-0.8,0-1.2c0-0.6,0-1.2,0.1-1.7l0-0.2V181c0-0.5,0-1.1,0.1-1.6
	c0.1,0,0.3,0,0.4,0l0.1,0l0.1,0c1.4,0.1,3.2,0.4,3.4,0.8c0.5,1.1,0.5,4.4,0.5,8.2L249.5,218.4L249.5,218.4z"/>
<path class="st2" d="M248.1,165.8c-4.7-0.3-8.5-0.4-11.9,0.2c-7.8,1.3-13,4.9-13.1,14.8v42.7c0.1,10.5,8.3,12.8,22.2,13.8
	c14.2,0.9,25.4-1.2,25.5-11c0-0.6,0-1.2,0-1.8v-42.7C270.7,167.8,261.2,166.9,248.1,165.8 M252.9,218.4c0,0.9-0.1,1.7-0.1,2.6
	c-0.2,0.9-0.2,1.7-0.4,2.7c-0.2,0.2-0.4,0.3-0.6,0.4c-1.3,0.1-2.5,0-3.6,0c-7.1-0.6-7.2-4.3-7-8.3v-30.3c0-1.3-0.1-2.9,0.1-4.5
	c0-1.7,0.2-3.2,0.6-4.6c0.2-0.1,0.4-0.3,0.6-0.4c1.1,0,2.1-0.1,3.2,0c7.1,0.6,7.1,2.6,7.1,12.5L252.9,218.4L252.9,218.4z"/>
<path class="st2" d="M313.4,208.2c-0.6-1.5-0.8-2.9-1.4-4.4c-1.9-6.1-3.7-12-5.8-18.2c-6.3-17-23.6-16.2-23.6-16.2
	c0,23.9,0,46.8,0,70.7c5.9,0.8,11.2,1.6,17,2.4v-31c4.5,11.2,9.1,22,13.6,33.3c6,1.1,11.6,2.2,17.5,3.4v-70.7
	c-5.9-1.2-11.4-2.3-17.3-3.4L313.4,208.2L313.4,208.2z"/>
<path class="st2" d="M358.3,198.4v-4.6c5.1,1.3,10.1,2.6,15.2,4c3.2,0.9,4.9-0.1,6.3-1.4c1-1.3,1.5-2.8,1.5-3.2c0-1-0.1-2-0.1-2.9
	c-6-1.8-28.3-7.6-28.5-7.6c-5.3-1.3-8.7-0.2-9.6,3.7c-0.1,0.7-0.2,1.1-0.2,1.1c0,0.2-1.2,13.1,0.2,17.2c2.3,6.1,7,9.5,13.2,12.7
	c0.4,0.2,1.1,0.5,1.6,0.8c0.6,0.4,1.2,0.9,1.6,1.5c0,9,0.1,17.6,0.1,26.5c-5.1-1.3-10.2-2.5-15.3-3.7v8.5c6.6,1.5,13,3,19.6,4.8
	c7.2,2,11.1,0.7,13-3.5c0.4-0.6,0.4-1,0.4-1c0-2.1,0.2-26-0.2-31.3c-0.2-2-1.3-3.5-3-5.2c-0.9-0.8-2-1.6-2.9-2.4
	c-1.1-0.8-2.3-1.6-3.4-2.4C363.4,206.8,358.3,203.4,358.3,198.4"/>
<path class="st2" d="M173.3,164.9v10.2c4.4-0.2,8.3-0.3,12.4-0.4v60.5c6.1-0.2,11.9-0.3,17.9-0.2v-60.6c13.1,0.7,12.1-10,12.1-10
	C201.4,164.1,187.7,164.2,173.3,164.9"/>
<path class="st2" d="M32.8,197c0,20.5-0.2,40.1,0,60.6c6-1.6,12-3.2,18-4.6v-30.5c5.7-1.4,11.2-2.6,16.8-3.8
	c7.8-1.7,12.8-6.6,12.9-15.3v-1.1c0-0.5,0-1,0-1.5c0-20.5-0.7-23.7-11.4-22.6c-16.1,3.5-31.5,7.4-47.6,12
	C21.6,190.1,19.7,200.8,32.8,197 M50.6,192.2c1.3-0.3,2.7-0.7,4-0.9c1.3-0.3,2.3-0.6,3.3-0.7c2.7-0.3,3.8,0.8,4.4,2.4
	c0.2,0.8,0.2,1.6,0.2,2.5c0,0.9,0,1.6,0,2.4c0,0,0,7.9-0.1,12.3c0,0.4-0.1,0.8-0.1,1.1c-0.8,0.2-1.5,0.4-2.2,0.6
	c-3.2,0.7-6.2,1.4-9.4,2.2L50.6,192.2L50.6,192.2z"/>
</svg>
