<?xml version="1.0" encoding="UTF-8"?>
<!-- Generator: Adobe Illustrator 16.0.3, SVG Export Plug-In . SVG Version: 6.00 Build 0)  -->
<!DOCTYPE svg PUBLIC "-//W3C//DTD SVG 1.1//EN" "http://www.w3.org/Graphics/SVG/1.1/DTD/svg11.dtd">
<svg version="1.1" id="Layer_1" xmlns="http://www.w3.org/2000/svg" xmlns:xlink="http://www.w3.org/1999/xlink" x="0px" y="0px" width="400px" height="400px" viewBox="0 0 400 400" enable-background="new 0 0 400 400" xml:space="preserve">
<g>
	<path fill="#FFFFFF" d="M365,201c0,90.575-73.425,164-164,164c-90.574,0-164-73.425-164-164c0-90.574,73.426-164,164-164   C291.575,37,365,110.426,365,201"/>
	<path fill="#006BB5" d="M358.95,201c0,87.232-70.716,157.951-157.951,157.951C113.766,358.951,43.05,288.232,43.05,201   c0-87.233,70.716-157.952,157.949-157.952C288.234,43.048,358.95,113.767,358.95,201"/>
	<g>
		<polygon fill="#FFFFFF" points="67.419,227.916 70.654,238.22 81.608,238.22 72.74,244.691 75.976,254.808 67.419,248.609     58.774,254.808 62.026,244.655 53.143,238.22 64.064,238.22   "/>
		<polygon fill="#FFFFFF" points="334.668,227.916 337.902,238.22 348.857,238.22 339.989,244.691 343.224,254.808 334.668,248.609     326.022,254.808 329.275,244.655 320.392,238.22 331.313,238.22   "/>
		<polygon fill="#FFFFFF" points="105.776,283.145 109.012,293.447 119.966,293.447 111.098,299.92 114.333,310.035     105.776,303.837 97.131,310.035 100.384,299.885 91.5,293.447 102.422,293.447   "/>
		<polygon fill="#FFFFFF" points="299.872,283.145 303.106,293.447 314.062,293.447 305.193,299.92 308.429,310.035     299.872,303.837 291.227,310.035 294.479,299.885 285.596,293.447 296.518,293.447   "/>
		<polygon fill="#FFFFFF" points="165.62,319.082 168.854,329.386 179.809,329.386 170.941,335.858 174.176,345.974 165.62,339.775     156.975,345.974 160.228,335.822 151.344,329.386 162.266,329.386   "/>
		<polygon fill="#FFFFFF" points="238.353,319.082 241.589,329.386 252.543,329.386 243.675,335.858 246.91,345.974     238.353,339.775 229.709,345.974 232.961,335.822 224.077,329.386 234.999,329.386   "/>
	</g>
	<path fill="#FFFFFF" d="M319.427,201.751c0,65.405-53.023,118.425-118.425,118.425c-65.406,0-118.428-53.02-118.428-118.425   c0-65.406,53.022-118.425,118.428-118.425C266.403,83.326,319.427,136.345,319.427,201.751"/>
	<path fill="#006BB5" d="M89.612,225.017c6.213,29.75,23.65,55.302,49.077,71.949c25.437,16.638,55.825,22.382,85.58,16.165   c29.743-6.21,55.553-23.476,71.948-49.064c16.317-25.466,22.082-55.852,16.169-85.58c-5.919-29.757-23.645-55.24-49.1-71.9   c-25.472-16.671-55.85-22.431-85.549-16.226c-29.749,6.213-55.307,23.65-71.951,49.081   C89.152,164.87,83.402,195.262,89.612,225.017"/>
	<g>
		<path fill="#FFFFFF" d="M239.749,113.076c0.377,4.425-1.693,8.75-6.14,12.884c-21.344-15.654-41.673-23.366-61.621-23.439    c-4.284-0.016-8.453,0.329-12.498,0.961c6.287-2.642,12.881-4.703,19.702-6.125c17.813-3.721,35.886-2.843,52.836,2.361    C235.713,103.23,239.299,107.917,239.749,113.076"/>
		<path fill="#FFFFFF" d="M217.479,296.891c22.434-20.588,32.832-64.74,39.042-91.116l0.972-4.127    c3.195-13.434,8.85-23.442,14.916-29.455c22.507,34.953,19.456,71.069,13.767,93.729c-15.553,20.695-37.804,34.877-63.371,40.222    c-7.277,1.518-14.6,2.271-21.864,2.277C206.263,305.77,211.834,302.063,217.479,296.891"/>
		<path fill="#FFFFFF" d="M258.237,147.126c9.097-7.635,16.418-13.456,21.556-17.238c11.245,12.261,19.439,27.008,23.95,43.285    c-4.208-5.623-9.581-10.974-15.395-12.168c-5.017-1.032-10.163,0.412-14.988,3.808    C269.112,158.861,264.105,152.935,258.237,147.126"/>
		<path fill="#FFFFFF" d="M96.413,196.934c10.354-27.813,48.333-39.161,62.629-43.432l0.636-0.192    c4.693-1.405,11.424-2.549,19.223-3.869c18.421-3.118,41.125-6.996,54.818-17.232c5.554,4.239,11.268,9.096,17.149,14.631    c-31.04,26.356-79.009,70.646-130.232,125.079c-11.936-13.618-20.223-30.151-24.024-48.368    c-1.517-7.242-2.271-14.522-2.285-21.752C95.542,198.976,96.4,196.969,96.413,196.934"/>
		<path fill="#FFFFFF" d="M254.646,143.649c-5.77-5.443-11.456-10.341-17.069-14.692c5.191-5.061,7.565-10.54,7.058-16.322    c-0.308-3.514-1.671-6.772-3.537-9.683c6.316,2.584,12.432,5.792,18.273,9.61c6.18,4.051,11.856,8.658,16.98,13.747    C270.968,130.276,263.62,136.126,254.646,143.649"/>
		<path fill="#FFFFFF" d="M229.598,129.154c-12.881,8.891-34.17,12.508-51.515,15.45c-7.958,1.352-14.827,2.511-19.813,4.007    l-0.632,0.191c-13.708,4.093-48.228,14.425-62.45,39.267c2.026-15.778,7.607-31.018,16.58-44.719    c7.556-11.549,17.597-22.21,28.58-29.89C165.598,102.798,193.938,103.526,229.598,129.154"/>
		<path fill="#FFFFFF" d="M287.359,165.816c7.449,1.534,15.459,14.041,19.271,21.261c3.28,23.388-1.225,46.885-12.951,67.418    c0.574-3.613,1.047-7.421,1.341-11.405c1.492-19.961-1.23-47.164-18.826-74.114C280.088,166.222,283.99,165.123,287.359,165.816"/>
	</g>
	<path fill="#FFFFFF" d="M254.474,150.304c5.875,5.789,10.868,11.696,15.076,17.657c-7.28,6.955-13.479,18.446-16.829,32.547   l-0.978,4.141c-6.083,25.829-16.259,69.063-37.583,88.624c-8.809,8.074-17.446,12.294-25.123,14.498   c-16.389-1.831-32.238-7.498-46.438-16.785c-6.856-4.488-13.089-9.673-18.635-15.437   C175.654,220.598,223.837,176.318,254.474,150.304"/>
	<path fill="#FFFFFF" d="M230.428,233.429l2.886-0.789c1.738-0.458,2.926-1.052,2.926-3.586c0-2.096-0.592-5.926-3.106-5.926   c-2.705,0-2.705,4.545-2.705,7.013V233.429z"/>
	<path fill="#FFFFFF" d="M195.736,231.799c0-9.114-0.331-16.989-6.519-16.989c-5.039,0-5.903,7.875-5.903,16.989   c0,9.109-0.262,17.006,5.903,17.006C194.466,248.805,195.736,240.908,195.736,231.799"/>
	<path fill="#FFFFFF" d="M230.428,233.429l2.886-0.789c1.738-0.458,2.926-1.052,2.926-3.586c0-2.096-0.592-5.926-3.106-5.926   c-2.705,0-2.705,4.545-2.705,7.013V233.429z"/>
	<path fill="#FFFFFF" d="M182.632,210.937h-0.119h0.223c2.973-4.62,8.62-6.823,14.134-6.823c12.529,0,20.221,10.795,20.221,25.33   c0,17.206-11.672,27.443-26.068,27.443c-22.172,0-30.22-17.88-30.22-38.591c0-23.854,10.362-43.554,36.178-43.554   c10.051,0,18.334,6.502,18.334,16.407c0,6.423-4.973,9.566-9.717,9.566c-6.963,0-9.18-5.831-10.172-10.916   c-0.406-2.17,0.403-6.951-3.199-6.951c-7.494,0-8.722,14.691-9.043,20.094L182.632,210.937z"/>
	<path fill="#FFFFFF" d="M195.736,231.799c0-9.114-0.331-16.989-6.519-16.989c-5.039,0-5.903,7.875-5.903,16.989   c0,9.109-0.262,17.006,5.903,17.006C194.466,248.805,195.736,240.908,195.736,231.799"/>
	<g>
		<path fill="#FFFFFF" d="M61.449,175.586c4.201,0.498,5.948,3.457,5.296,8.951l-0.471,3.975l2.262,0.268    c2.91,0.345,3.998,0.278,4.341-2.074l2.683,0.318l-1.278,10.792l-2.683-0.317c0.214-2.366-0.829-2.688-3.737-3.032l-8.4-0.996    c-2.908-0.346-3.998-0.277-4.343,2.074l-2.681-0.317l1.407-11.859C54.517,177.68,57.12,175.073,61.449,175.586z M63.687,187.123    c0.423-3.586-0.627-5.513-3.178-5.816c-2.229-0.263-3.834,1.118-4.154,3.801c-0.227,1.906,0.449,2.281,2.486,2.523l4.685,0.556    C63.602,187.834,63.644,187.478,63.687,187.123z"/>
		<path fill="#FFFFFF" d="M77.251,163.671c0.859-2.217-0.056-2.811-2.757-3.941l-7.805-3.268c-2.701-1.13-3.767-1.365-4.744,0.8    l-2.49-1.042l4.196-10.025l2.431,1.018c-0.857,2.217,0.058,2.812,2.76,3.942l2.01,0.842l3.141-7.505l-2.011-0.842    c-2.702-1.129-3.765-1.364-4.745,0.801l-2.431-1.017l4.197-10.027l2.493,1.043c-0.859,2.217,0.058,2.812,2.759,3.942l7.803,3.268    c2.701,1.131,3.769,1.365,4.746-0.8l2.491,1.042l-4.196,10.025l-2.433-1.019c0.856-2.216-0.056-2.811-2.76-3.943l-3.389-1.418    l-3.143,7.503l3.392,1.421c2.701,1.129,3.769,1.364,4.742-0.802l2.435,1.019l-4.198,10.024L77.251,163.671z"/>
		<path fill="#FFFFFF" d="M87.754,110.375c-1.37,1.942-0.627,2.741,1.716,4.497l6.777,5.073c2.347,1.756,3.321,2.243,4.798,0.38    l2.162,1.62l-6.494,8.677l-2.163-1.618c1.372-1.943,0.607-2.717-1.738-4.473l-6.774-5.072c-2.346-1.754-3.303-2.269-4.78-0.406    l-2.163-1.618l6.498-8.678L87.754,110.375z"/>
		<path fill="#FFFFFF" d="M112.212,111.654l-1.735-2.069c1.775-1.578,1.212-2.505-0.67-4.748l-5.443-6.484    c-1.882-2.244-2.697-2.962-4.56-1.484l-1.736-2.07l8.305-6.967l1.736,2.069c-1.778,1.576-1.238,2.525,0.646,4.769l6.066,7.232    c1.403,1.671,2.047,1.936,3.771,0.49c2.292-1.924,3.263-5.374,2.437-9.653l2.377-0.507l2.445,7.977L112.212,111.654z"/>
		<path fill="#FFFFFF" d="M138.02,91.808l-1.12-2.458c2.039-1.253,1.943-2.64,1.867-5.004l-0.586-16.801l4.534-2.068l12.517,12.214    c1.421,1.389,2.195,2.073,4.058,1.439l1.119,2.458l-9.89,4.515l-1.094-2.398c0.056-0.027,0.147-0.067,0.205-0.095    c1.363-0.622,1.881-1.215,1.487-2.073c-0.135-0.297-0.331-0.566-0.582-0.808l-2.294-2.281l-6.397,2.92l0.398,3.145    c0.034,0.235,0.085,0.5,0.179,0.706c0.433,0.947,1.36,1.024,2.914,0.351l1.098,2.398L138.02,91.808z M146.081,76.463l-4.687-5.017    l0.394,6.977L146.081,76.463z"/>
		<path fill="#FFFFFF" d="M171.524,75.578c2.342-0.399,2.386-1.491,1.975-4.392l-1.19-8.382c-0.413-2.902-0.756-3.937-3.121-3.667    l-0.379-2.676l10.959-1.558c8.415-1.195,13.457,2.101,14.444,9.065c0.994,6.995-2.9,11.528-11.345,12.728l-10.962,1.557    L171.524,75.578z M179.359,71.702c0.309,2.159,0.684,2.732,2.942,2.411c4.351-0.619,6.693-4.042,5.946-9.298    c-0.744-5.255-3.943-7.859-8.296-7.241c-2.258,0.32-2.458,0.974-2.151,3.134L179.359,71.702z"/>
		<path fill="#FFFFFF" d="M209.698,72.367c2.361,0.279,2.71-0.754,3.133-3.652l1.223-8.371c0.424-2.898,0.388-3.989-1.955-4.397    l0.392-2.671l18.063,2.64l2.001,7.002l-2.185,0.765c-1.767-3.644-4.292-5.724-7.609-6.209c-2.157-0.315-2.539,0.287-2.849,2.413    l-0.457,3.123l1.032,0.15c2.284,0.334,2.966-0.29,3.485-2.942l2.288,0.333l-1.438,9.82l-2.285-0.333    c0.076-2.554-0.656-3.845-2.458-4.109l-1.029-0.15l-0.743,5.086c-0.311,2.125-0.112,2.779,2.079,3.1    c3.217,0.47,6.965-1.087,9.915-4.633l1.896,1.427l-4.375,6.99l-18.512-2.706L209.698,72.367z"/>
		<path fill="#FFFFFF" d="M243.787,81.981l1.083-2.474c2.204,0.896,2.781-0.024,3.957-2.705l3.398-7.749    c1.173-2.682,1.456-3.73-0.693-4.743l1.084-2.473l9.922,4.349l-1.083,2.473c-2.202-0.894-2.81,0.012-3.986,2.692l-3.789,8.643    c-0.873,1.996-0.824,2.692,1.232,3.594c2.739,1.201,6.263,0.542,9.726-2.095l1.511,1.906l-6.063,5.727L243.787,81.981z"/>
		<path fill="#FFFFFF" d="M299.505,98.089c-2.661,3.29-6.095,3.192-10.397-0.285l-3.114-2.517l-1.433,1.772    c-1.839,2.277-2.363,3.235-0.557,4.779l-1.698,2.101l-8.453-6.831l1.698-2.102c1.889,1.443,2.715,0.73,4.556-1.547l5.32-6.582    c1.84-2.278,2.362-3.236,0.556-4.779l1.698-2.102l9.289,7.508C301.423,91.104,302.246,94.697,299.505,98.089z M288.548,93.837    c2.81,2.27,4.997,2.408,6.616,0.408c1.408-1.747,1.096-3.842-1.008-5.54c-1.49-1.206-2.169-0.834-3.458,0.761l-2.967,3.67    C287.991,93.386,288.269,93.611,288.548,93.837z"/>
		<path fill="#FFFFFF" d="M301.163,117.839c1.414,1.908,2.406,1.453,4.806-0.226l6.938-4.852c2.399-1.679,3.168-2.454,1.859-4.439    l2.213-1.549l6.233,8.911l-2.161,1.51c-1.416-1.91-2.408-1.454-4.809,0.226l-1.787,1.25l4.665,6.668l1.787-1.25    c2.399-1.679,3.168-2.455,1.861-4.44l2.159-1.511l6.232,8.908l-2.215,1.549c-1.414-1.91-2.407-1.454-4.808,0.226l-6.936,4.853    c-2.4,1.677-3.169,2.454-1.859,4.439l-2.215,1.548l-6.229-8.91l2.159-1.511c1.414,1.911,2.408,1.455,4.807-0.225l3.017-2.108    l-4.666-6.668l-3.017,2.108c-2.397,1.679-3.167,2.455-1.858,4.44l-2.161,1.511l-6.231-8.908L301.163,117.839z"/>
		<path fill="#FFFFFF" d="M340.638,155.146c-0.915-2.195-1.986-1.993-4.722-0.941l-7.901,3.037    c-2.737,1.052-3.669,1.619-2.878,3.861l-2.522,0.97l-3.89-10.12l2.522-0.97c0.915,2.195,1.976,1.962,4.711,0.91l7.901-3.036    c2.736-1.052,3.681-1.59,2.888-3.832l2.524-0.969l3.89,10.12L340.638,155.146z"/>
		<path fill="#FFFFFF" d="M326.458,173.938l2.681-0.35c0.596,2.318,1.951,2.633,4.232,3.255l16.231,4.381l0.645,4.938l-15.354,8.374    c-1.746,0.95-2.625,1.493-2.568,3.454l-2.681,0.351l-1.406-10.781l2.615-0.342c0.009,0.066,0.021,0.162,0.027,0.226    c0.196,1.485,0.611,2.153,1.547,2.031c0.324-0.042,0.638-0.149,0.944-0.321l2.854-1.521l-0.91-6.972l-3.126-0.544    c-0.232-0.035-0.5-0.066-0.727-0.036c-1.032,0.134-1.379,1-1.194,2.683l-2.614,0.341L326.458,173.938z M338.756,186.153    l6.174-3.006l-6.785-1.674L338.756,186.153z"/>
	</g>
	<g>
		<g>
			<path fill="#FFFFFF" d="M267.548,215.605c-2.459,0-4.282,1.068-5.668,2.603c-0.146-0.333-0.303-0.664-0.47-0.99l-1.188-2.311     l-17.037,4.99v9.319h3.144c0.304,0,0.479,0.037,0.512,0.017c0.147,0.264,0.416,1.137,0.416,3.997v10.836l-3.113,0.438v10.242     h23.594v-10.24l-3.098-0.438v-3.177c0-1.838,0.381-5.301,0.86-7.333c0.872,0.258,1.921,0.473,3.083,0.473     c4.229,0,7.185-3.803,7.185-9.247C275.767,219.294,272.464,215.605,267.548,215.605z"/>
			<path fill="#FFFFFF" d="M297.099,226.468c-0.202-0.776-0.274-1.066-0.274-1.486c0-2.791-1.113-9.282-11.434-9.282     c-5.71,0-16.906,4.395-16.906,14.554c0,3.774,1.123,6.52,2.739,8.568c-2.241,1.322-3.626,3.86-3.626,7.043     c0,3.664,1.845,9.811,14.204,9.811c10.568,0,16.631-5.479,16.631-15.033C298.433,231.537,297.63,228.487,297.099,226.468z"/>
			<path fill="#FFFFFF" d="M172.52,171.673c-0.644-0.749-1.583-1.179-2.577-1.179c-1.557,0-2.797,0.98-4.293,2.561     c-5.032,5.313-11.833,8.122-19.668,8.122c-10.273,0-21.085-4.723-29.663-12.952c-0.692-0.668-1.588-1.036-2.525-1.036     c-4.189,0-5.299,6.742-5.306,6.809l-0.017,33.779l2.686,0.397c10.213,1.507,18.971,1.203,26.976-0.958     c-8.646,7.744-28.112,28.792-27.825,48.874c0.048,3.702,2.339,4.101,3.321,4.101c1.226,0,2.028-0.652,2.56-1.085     c0.144-0.116,0.321-0.262,0.539-0.424c2.765-2.051,7.268-3.228,12.354-3.228c4.204,0,8.371,0.842,11.461,2.322     c0.583,0.271,1.276,0.562,2.117,0.562c0.976,0,1.87-0.391,2.517-1.1c1.095-1.198,0.962-2.673,0.872-3.671     c-1.427-14.556,1.78-30.488,7.988-39.658l0.929-1.379c5.28-7.813,16.268-24.075,18.341-37.502     C173.518,173.655,173.253,172.527,172.52,171.673z"/>
			<path fill="#FFFFFF" d="M250.914,236.201l-0.153-2.56c-0.102-1.683-0.354-3.28-0.741-4.777l-0.113-2.935l-0.542,0.84     c-2.549-6.883-8.264-11.166-15.563-11.166c-10.931,0-18.565,8.642-18.565,21.015c0,9.485,5.554,19.056,17.96,19.056     c7.103,0,13.617-3.576,16.999-9.334l0.468-0.794l-0.354-9.183L250.914,236.201z M237.678,242.119     c-1.185,0-1.997-0.75-2.527-1.674l6.052-1.629C239.486,240.87,238.167,241.981,237.678,242.119z"/>
			<path fill="#FFFFFF" d="M210.252,206.318c-0.622-0.88-1.315-1.864-1.892-2.732c5.368-1.074,10.1-5.301,10.1-12.438     c0-11.146-9.234-19.551-21.479-19.551c-24.622,0-39.322,17.458-39.322,46.699c0,26.523,12.161,41.736,33.364,41.736     c17.2,0,29.213-12.578,29.213-30.589C220.236,220.479,214.227,211.957,210.252,206.318z"/>
		</g>
		<g>
			<path fill="#006BB5" d="M237.744,245.295c-3.823,0-6.073-3.486-6.46-7.016l16.403-4.416c-0.481-8.003-5.111-15.084-13.82-15.084     c-9.268,0-15.42,7.226-15.42,17.869c0,8.316,4.77,15.912,14.814,15.912c5.743,0,11.312-2.718,14.288-7.782l-3.244-3.854     C242.721,243.377,240.875,245.295,237.744,245.295z M230.494,230.172c0-2.469,0-7.013,2.705-7.013     c2.514,0,3.106,3.831,3.106,5.927c0,2.534-1.188,3.126-2.927,3.584l-2.885,0.789V230.172z"/>
			<path fill="#006BB5" d="M264.657,251.633h-17.303v-4.364l3.113-0.438v-13.567c0-4.843-0.636-7.161-4.073-7.161v-3.816     l12.284-3.599c1.404,2.73,1.84,5.867,2.039,8.964h0.122c1.228-3.687,2.763-8.869,6.773-8.869c3.516,0,5.075,2.718,5.075,6.034     c0,3.358-1.47,6.103-4.041,6.103c-1.767,0-3.273-0.746-4.118-1.031c-2.246-0.763-2.97,9.011-2.97,11.037v5.906l3.098,0.438     V251.633z"/>
			<path fill="#006BB5" d="M293.746,225.014c0,2.688-2.318,4.026-4.764,4.026c-2.98,0-5.075-2.412-5.621-5.316     c-1.268,0-2.168,0.651-2.168,2.806c0,5.023,14.163,1.444,14.163,14.145c0,9.517-6.875,11.888-13.488,11.888     c-4.024,0-11.061-0.53-11.061-6.667c0-2.775,1.546-4.897,4.31-4.897c4.299,0,5.038,3.936,5.763,6.728     c0.206,0.738,0.841,0.855,1.438,0.855c2.271,0,3.914-0.937,3.914-2.433c0-5.7-14.537-3.49-14.537-15.862     c0-7.861,9.292-11.411,13.762-11.411C290.548,218.874,293.746,220.581,293.746,225.014"/>
			<path fill="#006BB5" d="M196.937,204.145c-5.514,0-11.162,2.204-14.134,6.822h-0.105h-0.118h0.118l0.554-7.995     c0.32-5.401,1.548-20.092,9.042-20.092c3.602,0,2.792,4.78,3.199,6.951c0.992,5.085,3.208,10.916,10.172,10.916     c4.743,0,9.717-3.143,9.717-9.566c0-9.904-8.283-16.407-18.334-16.407c-25.815,0-36.178,19.7-36.178,43.555     c0,20.711,8.048,38.59,30.219,38.59c14.396,0,26.067-10.237,26.067-27.442C217.156,214.938,209.466,204.145,196.937,204.145z      M189.284,248.836c-6.165,0-5.903-7.897-5.903-17.005c0-9.115,0.864-16.989,5.903-16.989c6.188,0,6.518,7.874,6.518,16.989     C195.802,240.938,194.532,248.836,189.284,248.836z"/>
			<path fill="#EC174C" d="M111.683,174.351v30.743c17.222,2.541,37.775,0.854,52.305-20.397c0.609-0.904,0.969-0.269,0.577,0.521     c-4.06,8.263-13.659,15.901-21.959,22.417c-7.979,6.256-29.368,28.706-29.086,48.445c0.02,1.516,0.069,1.1,1.401,0.108     c6.496-4.82,19.208-4.975,27.017-1.231c1.097,0.511,1.176,0.357,1.048-1.051c-1.5-15.303,1.942-32.021,8.506-41.718     c4.515-6.728,16.677-24.028,18.773-37.605c0.216-1.408-0.507-1.189-2.266,0.664c-13.781,14.553-38.689,14.199-54.761-1.221     C112.223,173.047,111.771,173.486,111.683,174.351"/>
		</g>
	</g>
	<g>
		<circle fill="#FFFFFF" cx="141.563" cy="155.892" r="29.471"/>
		<g>
			<polygon fill="#006BB5" points="141.538,127.463 142.521,130.603 145.851,130.603 143.143,132.565 144.135,135.649      141.538,133.76 138.898,135.649 139.882,132.552 137.19,130.603 140.52,130.603    "/>
			<polygon fill="#006BB5" points="161.154,138.91 162.164,142.024 165.503,142.024 162.793,144 163.786,147.079 161.164,145.177      158.533,147.079 159.55,144 156.807,142.024 160.154,142.024    "/>
			<polygon fill="#006BB5" points="152.735,130.076 153.737,133.204 157.083,133.204 154.375,135.18 155.357,138.271      152.744,136.353 150.13,138.271 151.113,135.167 148.405,133.204 151.735,133.204    "/>
			<polygon fill="#006BB5" points="164.364,149.72 165.364,152.846 168.694,152.846 166.002,154.809 166.979,157.897      164.381,155.986 161.759,157.897 162.76,154.809 160.033,152.846 163.346,152.846    "/>
			<polygon fill="#006BB5" points="162.958,161.145 163.959,164.263 167.297,164.263 164.589,166.252 165.581,169.336      162.967,167.43 160.362,169.336 161.336,166.235 158.636,164.263 161.966,164.263    "/>
			<polygon fill="#006BB5" points="156.652,170.267 157.635,173.396 160.982,173.396 158.273,175.37 159.257,178.446      156.67,176.548 154.038,178.446 155.03,175.37 152.304,173.396 155.651,173.396    "/>
			<polygon fill="#006BB5" points="146.732,175.37 147.741,178.498 151.053,178.498 148.353,180.478 149.354,183.57      146.741,181.667 144.117,183.57 145.101,180.473 142.393,178.498 145.723,178.498    "/>
			<polygon fill="#006BB5" points="121.542,137.896 120.533,141.011 117.211,141.011 119.903,142.995 118.919,146.075      121.525,144.164 124.164,146.075 123.164,142.995 125.889,141.011 122.542,141.011    "/>
			<polygon fill="#006BB5" points="129.754,130.076 128.753,133.204 125.424,133.204 128.133,135.18 127.132,138.271      129.754,136.353 132.377,138.271 131.394,135.167 134.102,133.204 130.764,133.204    "/>
			<polygon fill="#006BB5" points="117.711,148.322 116.729,151.436 113.389,151.436 116.107,153.398 115.115,156.5      117.711,154.602 120.334,156.5 119.351,153.398 122.077,151.436 118.747,151.436    "/>
			<polygon fill="#006BB5" points="118.747,159.73 117.729,162.866 114.399,162.866 117.108,164.846 116.125,167.934      118.729,166.023 121.353,167.934 120.352,164.838 123.06,162.866 119.73,162.866    "/>
			<polygon fill="#006BB5" points="125.044,169.06 124.052,172.191 120.714,172.191 123.422,174.163 122.422,177.242      125.044,175.332 127.685,177.242 126.675,174.154 129.383,172.191 126.054,172.191    "/>
			<polygon fill="#006BB5" points="134.965,174.978 133.973,178.114 130.635,178.114 133.343,180.084 132.36,183.16      134.947,181.279 137.595,183.16 136.585,180.063 139.313,178.114 135.975,178.114    "/>
		</g>
	</g>
</g>
</svg>