<?xml version="1.0" encoding="utf-8"?>
<!-- Generator: Adobe Illustrator 20.0.0, SVG Export Plug-In . SVG Version: 6.00 Build 0)  -->
<svg version="1.1" id="Layer_3" xmlns="http://www.w3.org/2000/svg" xmlns:xlink="http://www.w3.org/1999/xlink" x="0px" y="0px"
	 width="400px" height="400px" viewBox="0 0 400 400" style="enable-background:new 0 0 400 400;" xml:space="preserve">
<style type="text/css">
	.st0{fill:#BEC0C2;}
	.st1{fill:#002D62;}
	.st2{fill:#FDBB30;}
</style>
<g>
	<path class="st0" d="M320.9,92.2c-21.8-26.4-53.3-41-88.6-41.1l-141.1,0L25.8,348.7l120.4,0.1l17.3-72c16.2,0,58.7,0,58.7,0
		c40.3,0.3,73.4-13.4,95.7-39.5C358.4,193.2,351.3,128.9,320.9,92.2"/>
	<path class="st1" d="M157.4,268.9l-17.3,72l-104.5,0l62-282l134.7,0.1c33.6,0.1,62.3,13.7,82.6,38.1c29.9,36.1,32.8,96-2.9,135
		c-21.9,25.7-54.1,37-89.7,36.8L157.4,268.9z"/>
	<path class="st2" d="M83.7,121.6l59.1,0c6.8,0,14,5.7,10.9,14.3c-1.9,5.3-3.4,11.5-4.1,17.3c-0.5,4.5,4.5,7.4,7.4,7.4l120.4,0.1
		c2.3,0,3.5-0.6,3.5-1.7c0-1.1-0.1-5.1-0.5-7.9c-0.4-2.7-0.9-3.1-3-3.1c-15,0-21.1-6.7-36.8-16.8c-15.7-10.1-38.8-16-58.6-16
		l-96.6-0.1L83.7,121.6z"/>
	<path class="st2" d="M156.6,199.6c-2.1-4.5-4-9.8-5.2-14.6c-1.5-6.3-6.8-11.3-15.8-11.3l-63.3,0l1.6-7.1l205.3,0.1
		c2,0,1.6,0.9,1.5,3.1c-0.1,2.3-0.6,6.5-1,8.9c-0.3,2.5-2.4,1.9-4.3,1.9c-4.6,0.1-13.2,1.2-18.2,4.9c-8.5,6.4-26.6,17.6-36.9,20.9
		c-10.9,3.5-51.8,16-63.8-7.1"/>
	<path class="st2" d="M60.9,225.3l107.2,0.1c4.7,0,8.8,1.1,12,3.8c9.1,7.5,20.8,12.9,33.3,16.5c5.6,1.6,15.2-0.5,23.8-5.3
		c21.5-12.1,35.3-35.2,39.8-50.1c1.2-3.9-1.1-3.6-4.1-3.4c-9,0.6-18.6,8.8-31,16.8c-12.5,8-37.9,15.5-62.1,15.5L62.3,219L60.9,225.3
		z"/>
	<path class="st2" d="M218.2,81.7c1.5-0.3,6.9-0.6,10,0.6c20.4,8,39.6,29.2,47.7,51.8c1.6,4.3,1.9,7.1,0,7.3
		c-9.3,1-13.7-3.6-24.7-11c-11-7.4-21.1-12.5-35-16.9c-13.7-4.4-38.7-5-41.9-5.1c-3.2-0.1-2.8-1.5-1.4-2.9
		C184.8,93.5,200.9,84.9,218.2,81.7"/>
	<path class="st2" d="M315.9,159c0.1,0.9-0.9,1.8-1.9,1.8c-0.1,0-23.5,0-23.5,0c-3,0-3.1-1.4-3.2-3.1c-0.1-1.7-0.6-5.2-0.7-7.2
		c-0.1-2-0.8-4.3,1.8-5.4c6.5-2.8,12.7-9.2,15.5-14.6c0.9-1.8,2.4-4.9,4-2.3C313.5,137,315.2,147.9,315.9,159"/>
	<path class="st2" d="M307.5,201.2c-0.4,0.8-1.9,1.4-2.4,0.1c-3.4-9.2-11.6-15.5-17.2-18.6c-1.7-0.9-1.8-2-1.6-3.7
		c0.2-1.7,0.9-7,1-9.3c0.1-1.8,0.8-3.1,2.2-3.1l24.5,0c0.9,0,1.9,0.8,1.9,1.4C315.9,179.7,312.4,191.2,307.5,201.2"/>
	<path class="st2" d="M243.9,247.1c-1.7,0.2-5.5-0.3,0.4-3.8c17.8-10.3,33.6-34.6,37.9-48.5c1.6-5.3,1.8-5.6,3.8-5
		c2.7,0.8,7,4.5,10.3,9c3.3,4.5,4.7,13.3,2.8,15.9C286.3,231.8,266,243.8,243.9,247.1"/>
	<path class="st2" d="M289.1,137.3c-4.1,2.2-4.9,1.8-5.8-1.3c-7.7-27.1-30.5-47.2-39.8-53.1c-1.8-1.1-1.3-1.9,0-1.7
		c22.3,3,44.2,15.1,55.2,31.8C304.9,122.5,293.1,135.1,289.1,137.3"/>
	<path class="st1" d="M195.3,299.9c-0.3,1.1-4.4,18.6-4.6,19.6h-11c0.3-1.4,4.4-18.7,4.6-19.6H195.3z M177.1,291.9l-13.4,56.3h9
		c0,0,4.7-19.9,5-20.9h14.4c3.5,0,6.1-2.1,6.9-5.5l5.8-24.2c0.1-0.5,0.2-1,0.2-1.5c0-1-0.3-1.8-0.8-2.5c-0.9-1.1-2.4-1.7-4.3-1.7
		H177.1z"/>
	<path class="st1" d="M225,328.2c-0.3,1.2-2.8,11.6-3,12.5h-10c0.3-1.2,2.8-11.6,3-12.5L225,328.2L225,328.2z M217.8,302.9
		c-3.5,0-5.7,1.8-6.5,5.1l-2.4,10h8.8c0,0,1.6-6.6,1.8-7.5h9.7c-0.3,1.3-2.2,9.2-2.4,10H214c-3.9,0-6.4,2.2-7.4,6.3l-3.9,16.3
		c-0.1,0.4-0.1,0.8-0.1,1.2c0,1,0.3,1.8,0.8,2.5c0.9,1.1,2.3,1.7,4,1.7c0,0,0.2,0,0.2,0c3.2-0.2,10.1-0.8,12.8-1
		c0,0.1-0.2,0.7-0.2,0.7h8.8l9.5-39.9c0.4-1.7,0.3-3.1-0.5-4c-0.7-0.9-2-1.4-3.6-1.4L217.8,302.9L217.8,302.9z"/>
	<path class="st1" d="M254.8,302.9c-3.4,0-5.6,1.8-6.4,5.1l-8.2,34.7c-0.4,1.8-0.3,3.1,0.5,4c0.7,0.9,2,1.4,3.7,1.4h16.3
		c3.4,0,5.5-1.7,6.4-5.1l3.2-13.5h-8.7c0,0-2.4,10.1-2.6,11h-9.4c0.3-1.4,6.9-29.1,7.1-30h9.4c-0.3,1.3-1.8,7.4-1.8,7.4h8.7l2.3-9.6
		c0.4-1.8,0.3-3.1-0.5-4.1c-0.7-0.9-2-1.4-3.7-1.4L254.8,302.9L254.8,302.9z"/>
	<path class="st1" d="M301.7,310.6c-0.3,1.2-2.2,9.3-2.4,10.1H290c0.3-1.2,2.2-9.2,2.4-10.1H301.7z M290.5,302.9
		c-3.4,0-5.6,1.8-6.4,5.1l-8.2,34.7c-0.4,1.8-0.3,3.1,0.5,4c0.7,0.9,2,1.4,3.7,1.4h16.3c1.7,0,3-0.4,4.1-1.2
		c1.1-0.9,1.8-2.1,2.2-3.9l3-12.7h-8.8c0,0-2.2,9.3-2.4,10.2h-9.3c0.3-1.3,2.8-11.8,3-12.6h16l2.6-2.1l4.2-17.6
		c0.1-0.6,0.2-1.2,0.2-1.7c0-0.9-0.2-1.7-0.7-2.3c-0.7-0.9-2-1.4-3.7-1.4L290.5,302.9L290.5,302.9z"/>
	<path class="st1" d="M342,302.5c-3.5,0.4-9.2,1.1-11.7,1.5c0-0.1,0.3-1.1,0.3-1.1l-8.8,0L311,348.2h8.8c0,0,8.6-36.1,8.8-37h8.7
		c-0.3,1.3-1.4,6.7-1.4,6.7h8.9l2.2-9.9c0.4-1.7,0.2-3.1-0.5-4c-0.8-1-2.2-1.5-4.1-1.5C342.2,302.5,342,302.5,342,302.5"/>
	<path class="st1" d="M358,302.9c-1.8,0-4.9,0.7-5.9,5.1l-2.6,10.8c-0.1,0.4-0.2,1.1-0.2,1.8c0,0.8,0.2,1.6,0.7,2.2
		c0,0,0,0.1,0.1,0.1c0,0,0,0,0,0l0,0c0.1,0.1,0.2,0.2,0.5,0.4c10.1,6.9,12.7,8.8,13.4,9.4c-0.2,0.7-1.8,7.7-1.9,8h-8.7
		c0.3-1.3,2.4-10,2.4-10h-8.8l-2.9,12.2c-0.4,1.8-0.3,3.2,0.5,4.1c0.7,0.9,1.8,1.3,3.2,1.3h16.5c3.1,0,5.1-1.8,5.9-5.1l2.8-11.9
		c0.1-0.3,0.2-0.9,0.2-1.6c0-1-0.2-2.1-1.2-3.1l0-0.1l-0.1,0c-4.7-3-12-7.9-13.3-8.9c0.2-0.7,1.5-6.3,1.6-6.9h8.9
		c-0.3,1.3-1.7,7.5-1.7,7.5h8.8l2.2-9.7c0.4-1.7,0.2-3.1-0.5-4.1c-0.5-0.6-1.5-1.3-3.3-1.3L358,302.9L358,302.9z"/>
</g>
</svg>
