<?xml version="1.0" encoding="utf-8"?>
<!-- Generator: Adobe Illustrator 20.0.0, SVG Export Plug-In . SVG Version: 6.00 Build 0)  -->
<svg version="1.1" id="Layer_1" xmlns="http://www.w3.org/2000/svg" xmlns:xlink="http://www.w3.org/1999/xlink" x="0px" y="0px"
	 width="400px" height="400px" viewBox="0 0 400 400" style="enable-background:new 0 0 400 400;" xml:space="preserve">
<style type="text/css">
	.st0{fill:#C4CED4;}
	.st1{fill:#E03A3E;}
	.st2{clip-path:url(#SVGID_2_);fill:url(#SVGID_3_);}
	.st3{clip-path:url(#SVGID_5_);fill:url(#SVGID_6_);}
	.st4{clip-path:url(#SVGID_8_);fill:url(#SVGID_9_);}
	.st5{clip-path:url(#SVGID_11_);fill:url(#SVGID_12_);}
	.st6{clip-path:url(#SVGID_14_);fill:url(#SVGID_15_);}
	.st7{clip-path:url(#SVGID_17_);fill:url(#SVGID_18_);}
	.st8{clip-path:url(#SVGID_20_);fill:url(#SVGID_21_);}
	.st9{clip-path:url(#SVGID_23_);fill:url(#SVGID_24_);}
	.st10{clip-path:url(#SVGID_26_);fill:url(#SVGID_27_);}
	.st11{clip-path:url(#SVGID_29_);fill:url(#SVGID_30_);}
	.st12{clip-path:url(#SVGID_32_);fill:url(#SVGID_33_);}
	.st13{clip-path:url(#SVGID_35_);fill:url(#SVGID_36_);}
	.st14{fill:#FFFFFF;}
</style>
<g>
	<polygon class="st0" points="151.8,26.5 58.2,374.7 248.6,374.7 342.2,26.5 	"/>
	<polygon points="243.2,367.6 67.4,367.6 157.2,33.6 333,33.6 	"/>
	<path class="st0" d="M199.2,196.2l5.9-5.9c-6.7-2.1-10.5-6.7-10.5-12.5c0-3.1,1.3-5.8,3.4-7.8l76.3-76.4H270l-71.8,64.7l-6.1,5.5
		c-3.7,3.5-5.9,8.4-5.9,13.8c0,1.3,0.1,2.5,0.4,3.7C187.8,188.3,193.5,194.1,199.2,196.2"/>
	<path class="st0" d="M190.3,205l5.8-5.8c-9-4.6-14-12.1-14-21.5c0-6.3,2.5-12,6.6-16.1l67.9-68h-3.9l-63.6,56.2
		c-0.9,0.7-6.3,5.7-7,6.5c-5.3,5.6-8.5,13.1-8.5,21.4c0,1.5,0.1,2.9,0.3,4.3C175.4,192.1,181.7,200.6,190.3,205"/>
	<path class="st0" d="M181.2,214.1l5.9-5.9c-10.9-6.7-17.4-17.6-17.4-30.5c0-9.5,3.7-18.1,9.8-24.5l59.6-59.6h-3.6l-55.3,47.6
		c-1.8,1.4-6.4,5.8-7.9,7.5c-6.8,7.7-11,17.9-11,29c0,1.7,0.1,3.3,0.3,4.9C163.1,195.9,170.6,207.3,181.2,214.1"/>
	<path class="st0" d="M172.2,223.1l6-6c-12.8-8.9-20.9-23.1-20.9-39.4c0-12.7,5-24.2,13-32.8l51.2-51.3h-3.3l-47.1,39
		c-2.6,2.1-6.6,5.9-8.8,8.5c-8.5,9.9-13.6,22.6-13.6,36.6c0,1.9,0.1,3.7,0.3,5.5C150.7,199.7,159.5,214.1,172.2,223.1"/>
	<path class="st0" d="M136.6,183.9c1.7,19.6,11.7,36.9,26.5,48.3l6.1-6c-14.8-11-24.3-28.6-24.3-48.4c0-15.9,6.2-30.4,16.3-41.2
		L204,93.7h-3l-38.8,30.4c-3.5,2.8-6.7,6-9.7,9.4c-10.1,12-16.1,27.4-16.1,44.2C136.4,179.8,136.4,181.9,136.6,183.9"/>
	<path class="st1" d="M212.8,160.5l-5.9,5.9c6.7,2.1,10.5,6.7,10.5,12.5c0,3.1-1.3,5.8-3.4,7.8L137.7,263h4.3l71.8-64.7l6.1-5.5
		c3.6-3.5,5.9-8.4,5.9-13.8c0-1.3-0.1-2.5-0.4-3.7C224.2,168.4,218.5,162.6,212.8,160.5"/>
	<path class="st1" d="M221.7,151.7l-5.8,5.8c9,4.6,13.9,12.1,13.9,21.5c0,6.3-2.5,12-6.6,16.1l-67.9,68h3.9l63.6-56.2
		c0.9-0.7,6.3-5.7,7-6.5c5.2-5.6,8.5-13.1,8.5-21.4c0-1.5-0.1-2.9-0.3-4.3C236.5,164.6,230.3,156.1,221.7,151.7"/>
	<path class="st1" d="M230.7,142.6l-5.9,5.9c10.9,6.7,17.4,17.6,17.4,30.5c0,9.5-3.7,18.1-9.8,24.5L172.9,263h3.6l55.3-47.6
		c1.8-1.4,6.4-5.8,7.9-7.5c6.9-7.7,11-17.9,11-29c0-1.7-0.1-3.3-0.3-4.9C248.9,160.8,241.4,149.4,230.7,142.6"/>
	<path class="st1" d="M239.8,133.5l-6,6c12.8,8.9,20.9,23.1,20.9,39.4c0,12.7-5,24.2-13,32.8L190.5,263h3.3l47.1-39
		c2.6-2.1,6.6-5.9,8.8-8.5c8.5-9.9,13.6-22.6,13.6-36.6c0-1.9-0.1-3.7-0.3-5.5C261.2,157,252.5,142.6,239.8,133.5"/>
	<path class="st1" d="M275.3,172.8c-1.7-19.6-11.7-36.9-26.5-48.3l-6,6c14.8,11,24.3,28.6,24.3,48.4c0,15.9-6.2,30.4-16.3,41.2
		L208,263h3l38.8-30.4c3.5-2.8,6.7-6,9.6-9.4c10.1-12,16.1-27.4,16.1-44.2C275.6,176.9,275.5,174.8,275.3,172.8"/>
	<g>
		<g>
			<g>
				<defs>
					<polygon id="SVGID_1_" points="118.7,321.7 109.3,356.7 119.1,356.7 120.1,353.2 115,353.2 124.3,318.5 116.9,318.5 					"/>
				</defs>
				<clipPath id="SVGID_2_">
					<use xlink:href="#SVGID_1_"  style="overflow:visible;"/>
				</clipPath>

					<linearGradient id="SVGID_3_" gradientUnits="userSpaceOnUse" x1="-183.2176" y1="506.7481" x2="-180.5717" y2="506.7481" gradientTransform="matrix(0 14.4807 14.4807 0 -7221.2666 2971.6191)">
					<stop  offset="0" style="stop-color:#FFFFFF"/>
					<stop  offset="0.1461" style="stop-color:#FFFFFF"/>
					<stop  offset="0.2936" style="stop-color:#F6F8F8"/>
					<stop  offset="0.4681" style="stop-color:#E5EAED"/>
					<stop  offset="0.6557" style="stop-color:#CCD5DA"/>
					<stop  offset="0.7079" style="stop-color:#C4CED4"/>
					<stop  offset="1" style="stop-color:#C4CED4"/>
				</linearGradient>
				<rect x="109.3" y="318.5" class="st2" width="15" height="38.1"/>
			</g>
		</g>
	</g>
	<g>
		<g>
			<g>
				<defs>
					<path id="SVGID_4_" d="M145.7,325.1l-3.8,18.3h-2.8L145.7,325.1z M142.6,321.6l-13.1,35.1h4.9l3.4-9.7h3.5l-2.1,9.7h5l7-38.1
						H141L142.6,321.6z"/>
				</defs>
				<clipPath id="SVGID_5_">
					<use xlink:href="#SVGID_4_"  style="overflow:visible;"/>
				</clipPath>

					<linearGradient id="SVGID_6_" gradientUnits="userSpaceOnUse" x1="-183.2173" y1="507.7616" x2="-180.5714" y2="507.7616" gradientTransform="matrix(0 14.48 14.48 0 -7212.0371 2971.4866)">
					<stop  offset="0" style="stop-color:#FFFFFF"/>
					<stop  offset="0.1461" style="stop-color:#FFFFFF"/>
					<stop  offset="0.2936" style="stop-color:#F6F8F8"/>
					<stop  offset="0.4681" style="stop-color:#E5EAED"/>
					<stop  offset="0.6557" style="stop-color:#CCD5DA"/>
					<stop  offset="0.7079" style="stop-color:#C4CED4"/>
					<stop  offset="1" style="stop-color:#C4CED4"/>
				</linearGradient>
				<rect x="129.5" y="318.5" class="st3" width="21.7" height="38.1"/>
			</g>
		</g>
	</g>
	<g>
		<g>
			<g>
				<defs>
					<polygon id="SVGID_7_" points="162.1,318.5 164,321.8 169,321.8 153,356.7 165.7,356.7 166.6,353.2 159.7,353.2 175.8,318.5
											"/>
				</defs>
				<clipPath id="SVGID_8_">
					<use xlink:href="#SVGID_7_"  style="overflow:visible;"/>
				</clipPath>

					<linearGradient id="SVGID_9_" gradientUnits="userSpaceOnUse" x1="-183.2175" y1="508.7955" x2="-180.5713" y2="508.7955" gradientTransform="matrix(0 14.4802 14.4802 0 -7203.0605 2971.5256)">
					<stop  offset="0" style="stop-color:#FFFFFF"/>
					<stop  offset="0.1461" style="stop-color:#FFFFFF"/>
					<stop  offset="0.2936" style="stop-color:#F6F8F8"/>
					<stop  offset="0.4681" style="stop-color:#E5EAED"/>
					<stop  offset="0.6557" style="stop-color:#CCD5DA"/>
					<stop  offset="0.7079" style="stop-color:#C4CED4"/>
					<stop  offset="1" style="stop-color:#C4CED4"/>
				</linearGradient>
				<rect x="153" y="318.5" class="st4" width="22.8" height="38.1"/>
			</g>
		</g>
	</g>
	<g>
		<g>
			<g>
				<defs>
					<path id="SVGID_10_" d="M185.2,318.5l1.8,3.2l-9.4,34.9h10.5l0.9-3.4h-5.6c0,0,3.6-13.5,4.1-15.1h5l0.9-3.4h-5l3.4-12.8h5.6
						l0.9-3.3h-13.1L185.2,318.5L185.2,318.5z"/>
				</defs>
				<clipPath id="SVGID_11_">
					<use xlink:href="#SVGID_10_"  style="overflow:visible;"/>
				</clipPath>

					<linearGradient id="SVGID_12_" gradientUnits="userSpaceOnUse" x1="-183.2175" y1="509.8081" x2="-180.5713" y2="509.8081" gradientTransform="matrix(0 14.4802 14.4802 0 -7194.123 2971.5256)">
					<stop  offset="0" style="stop-color:#FFFFFF"/>
					<stop  offset="0.1461" style="stop-color:#FFFFFF"/>
					<stop  offset="0.2936" style="stop-color:#F6F8F8"/>
					<stop  offset="0.4681" style="stop-color:#E5EAED"/>
					<stop  offset="0.6557" style="stop-color:#CCD5DA"/>
					<stop  offset="0.7079" style="stop-color:#C4CED4"/>
					<stop  offset="1" style="stop-color:#C4CED4"/>
				</linearGradient>
				<rect x="177.7" y="318.5" class="st5" width="20.6" height="38.1"/>
			</g>
		</g>
	</g>
	<g>
		<g>
			<g>
				<defs>
					<path id="SVGID_13_" d="M213.8,321.6c0,0,1.7-0.1,2.3,0.1c0.5,0.2,0.6,0.7,0.3,1.6l-2.4,8.8c-0.4,1.3-0.6,1.6-0.9,1.8
						c-0.3,0.3-1,0.6-2.5,0.6h-0.4L213.8,321.6z M215.6,318.5L215.6,318.5h-8.5l1.8,3.2l-9.4,35h4.8c0,0,4.5-16.8,5-18.6h0.4
						c0.9,0,1.6,0.1,1.9,0.4c0.3,0.3,0.4,0.8,0.2,1.7l-4.4,16.5h4.8l4.3-16c0.4-1.5,0.7-2.8-0.3-3.8c-0.4-0.3-0.8-0.5-0.8-0.5
						s0.4-0.1,1.1-0.5c0.4-0.2,0.9-0.5,1.2-1c0.3-0.4,0.6-0.8,0.8-1.7l2.5-9.4c0,0,0.1-0.3,0.1-0.4c0.4-1.3,0.7-2.9-0.8-4
						C218.9,318.4,217.2,318.4,215.6,318.5L215.6,318.5L215.6,318.5z"/>
				</defs>
				<clipPath id="SVGID_14_">
					<use xlink:href="#SVGID_13_"  style="overflow:visible;"/>
				</clipPath>

					<linearGradient id="SVGID_15_" gradientUnits="userSpaceOnUse" x1="-183.2179" y1="510.7883" x2="-180.5723" y2="510.7883" gradientTransform="matrix(0 14.4808 14.4808 0 -7185.873 2971.6423)">
					<stop  offset="0" style="stop-color:#FFFFFF"/>
					<stop  offset="0.1461" style="stop-color:#FFFFFF"/>
					<stop  offset="0.2936" style="stop-color:#F6F8F8"/>
					<stop  offset="0.4681" style="stop-color:#E5EAED"/>
					<stop  offset="0.6557" style="stop-color:#CCD5DA"/>
					<stop  offset="0.7079" style="stop-color:#C4CED4"/>
					<stop  offset="1" style="stop-color:#C4CED4"/>
				</linearGradient>
				<rect x="199.6" y="318.5" class="st6" width="22.3" height="38.2"/>
			</g>
		</g>
	</g>
	<g>
		<g>
			<g>
				<defs>
					<path id="SVGID_16_" d="M240.2,318.3c-0.9,0-1.6,0.1-2.3,0.2h-6.3l0.9,1.6l0.7,1.3c-0.4,0.7-0.7,1.4-0.9,2.2l-0.5,1.8
						c-0.4,1.5-0.7,3.1-0.8,4.4c0,1.3,0.4,2.9,0.8,4c0.4,1.1,2.8,6.9,2.9,7.8c0.2,0.8,0.3,1.4-0.3,3.5l-2.1,7.7
						c-0.2,0.9-0.4,1.4-1.9,1.4s-1.5-0.6-1.3-1.4l2.6-9.6h-4.8l-2.3,8.5c-0.4,1.4-0.6,2.8,0.2,3.8s2.4,1.5,4.9,1.5
						c5.5,0,7-2.6,7.7-5.3c0,0,1.5-5.5,1.9-6.9c0.6-2.4,0.5-3.5,0.2-4.8s-0.8-2.4-1.1-3.4l-1.8-4.6c-0.5-1.3-0.7-2.2-0.7-3.3
						c0-1.2,0.4-2.4,0.8-4l0.6-2.1c0.2-0.8,0.4-1.4,2-1.4c0.6,0,1,0.1,1.2,0.3c0.1,0.2,0.1,0.5,0,1.1l-2.1,7.7h4.8l1.7-6.5
						c0.3-1.3,0.6-2.8-0.2-3.9C244.3,318.8,242.7,318.3,240.2,318.3C240.3,318.3,240.3,318.3,240.2,318.3"/>
				</defs>
				<clipPath id="SVGID_17_">
					<use xlink:href="#SVGID_16_"  style="overflow:visible;"/>
				</clipPath>

					<linearGradient id="SVGID_18_" gradientUnits="userSpaceOnUse" x1="-183.2163" y1="511.8372" x2="-180.5702" y2="511.8372" gradientTransform="matrix(0 14.4796 14.4796 0 -7176.0474 2971.4165)">
					<stop  offset="0" style="stop-color:#FFFFFF"/>
					<stop  offset="0.1461" style="stop-color:#FFFFFF"/>
					<stop  offset="0.2936" style="stop-color:#F6F8F8"/>
					<stop  offset="0.4681" style="stop-color:#E5EAED"/>
					<stop  offset="0.6557" style="stop-color:#CCD5DA"/>
					<stop  offset="0.7079" style="stop-color:#C4CED4"/>
					<stop  offset="1" style="stop-color:#C4CED4"/>
				</linearGradient>
				<rect x="224.4" y="318.3" class="st7" width="21.5" height="38.6"/>
			</g>
		</g>
	</g>
	<g>
		<g>
			<g>
				<defs>
					<path id="SVGID_19_" d="M93.2,338.1h0.4c0.9,0,1.6,0.1,1.9,0.4s0.4,0.8,0.2,1.7l-3.2,12.1c-0.2,0.6-0.3,0.9-0.7,1.2
						c-0.3,0.2-0.9,0.3-1.9,0.3H89L93.2,338.1z M97.6,321.6c0,0,1.7-0.1,2.3,0.1c0.5,0.2,0.6,0.7,0.3,1.6l-2.4,8.8
						c-0.4,1.3-0.6,1.6-0.9,1.8c-0.3,0.3-1,0.6-2.5,0.6H94L97.6,321.6z M99.8,318.5H91l1.7,3.2l-9.3,34.9h5.7c1.6,0,3.7,0.2,5.7-1
						c2.1-1.2,2.4-3.1,2.8-4.3l2.9-10.7c0.4-1.5,0.7-2.8-0.3-3.8c-0.4-0.3-0.8-0.5-0.8-0.5s0.4-0.1,1.1-0.5c0.4-0.2,0.9-0.5,1.2-1
						c0.3-0.4,0.5-0.8,0.8-1.7l2.6-9.7c0-0.1,0.1-0.2,0.1-0.3c0.3-1.2,0.6-2.7-0.8-3.7s-3.2-1-4.3-1h-0.3L99.8,318.5L99.8,318.5z"/>
				</defs>
				<clipPath id="SVGID_20_">
					<use xlink:href="#SVGID_19_"  style="overflow:visible;"/>
				</clipPath>

					<linearGradient id="SVGID_21_" gradientUnits="userSpaceOnUse" x1="-183.2167" y1="505.7986" x2="-180.5715" y2="505.7986" gradientTransform="matrix(0 14.4789 14.4789 0 -7228.8574 2971.2761)">
					<stop  offset="0" style="stop-color:#FFFFFF"/>
					<stop  offset="0.1461" style="stop-color:#FFFFFF"/>
					<stop  offset="0.2936" style="stop-color:#F6F8F8"/>
					<stop  offset="0.4681" style="stop-color:#E5EAED"/>
					<stop  offset="0.6557" style="stop-color:#CCD5DA"/>
					<stop  offset="0.7079" style="stop-color:#C4CED4"/>
					<stop  offset="1" style="stop-color:#C4CED4"/>
				</linearGradient>
				<rect x="83.4" y="318.5" class="st8" width="22.3" height="38.3"/>
			</g>
		</g>
	</g>
	<g>
		<g>
			<g>
				<defs>
					<polygon id="SVGID_22_" points="222.7,277.4 213.3,312.4 223.2,312.4 224.1,308.9 219.1,308.9 228.4,274.2 220.9,274.2
						"/>
				</defs>
				<clipPath id="SVGID_23_">
					<use xlink:href="#SVGID_22_"  style="overflow:visible;"/>
				</clipPath>

					<linearGradient id="SVGID_24_" gradientUnits="userSpaceOnUse" x1="-185.0626" y1="511.2436" x2="-182.4136" y2="511.2436" gradientTransform="matrix(0 14.4001 14.4001 0 -7141.1592 2939.1204)">
					<stop  offset="0" style="stop-color:#FFFFFF"/>
					<stop  offset="0.1461" style="stop-color:#FFFFFF"/>
					<stop  offset="0.2936" style="stop-color:#F6F8F8"/>
					<stop  offset="0.4681" style="stop-color:#E5EAED"/>
					<stop  offset="0.6557" style="stop-color:#CCD5DA"/>
					<stop  offset="0.7079" style="stop-color:#C4CED4"/>
					<stop  offset="1" style="stop-color:#C4CED4"/>
				</linearGradient>
				<rect x="213.3" y="274.2" class="st9" width="15" height="38.1"/>
			</g>
		</g>
	</g>
	<g>
		<g>
			<g>
				<defs>
					<path id="SVGID_25_" d="M179.9,280.8l-3.8,18.3h-2.8L179.9,280.8z M176.8,277.3l-13.1,35.1h4.9l3.4-9.7h3.5
						c-0.4,1.9-2.1,9.7-2.1,9.7h5l7-38.1h-10.2L176.8,277.3z"/>
				</defs>
				<clipPath id="SVGID_26_">
					<use xlink:href="#SVGID_25_"  style="overflow:visible;"/>
				</clipPath>

					<linearGradient id="SVGID_27_" gradientUnits="userSpaceOnUse" x1="-185.0736" y1="509.2414" x2="-182.4276" y2="509.2414" gradientTransform="matrix(0 14.416 14.416 0 -7166.6743 2942.2217)">
					<stop  offset="0" style="stop-color:#FFFFFF"/>
					<stop  offset="0.1461" style="stop-color:#FFFFFF"/>
					<stop  offset="0.2936" style="stop-color:#F6F8F8"/>
					<stop  offset="0.4681" style="stop-color:#E5EAED"/>
					<stop  offset="0.6557" style="stop-color:#CCD5DA"/>
					<stop  offset="0.7079" style="stop-color:#C4CED4"/>
					<stop  offset="1" style="stop-color:#C4CED4"/>
				</linearGradient>
				<rect x="163.7" y="274.2" class="st10" width="21.7" height="38.1"/>
			</g>
		</g>
	</g>
	<g>
		<g>
			<g>
				<defs>
					<path id="SVGID_28_" d="M153.4,277.3c0,0,1.7-0.1,2.3,0.1c0.5,0.2,0.6,0.7,0.3,1.6l-2.4,8.9c-0.4,1.3-0.6,1.6-0.9,1.8
						c-0.3,0.3-1,0.6-2.5,0.6h-0.4L153.4,277.3z M155.2,274.2L155.2,274.2h-8.5l1.8,3.2l-9.4,35h4.8l5-18.6h0.4
						c0.9,0,1.6,0.1,1.9,0.4c0.3,0.3,0.4,0.8,0.2,1.7l-4.4,16.5h4.8l4.3-16c0.4-1.5,0.7-2.8-0.3-3.8c-0.4-0.3-0.8-0.5-0.8-0.5
						s0.5-0.1,1.1-0.5c0.4-0.2,0.9-0.5,1.2-1c0.3-0.4,0.5-0.8,0.8-1.7l2.5-9.4c0,0,0.1-0.3,0.1-0.4c0.4-1.3,0.7-2.9-0.8-4
						C158.6,274.2,156.9,274.2,155.2,274.2L155.2,274.2z"/>
				</defs>
				<clipPath id="SVGID_29_">
					<use xlink:href="#SVGID_28_"  style="overflow:visible;"/>
				</clipPath>

					<linearGradient id="SVGID_30_" gradientUnits="userSpaceOnUse" x1="-185.0659" y1="508.2046" x2="-182.4199" y2="508.2046" gradientTransform="matrix(0 14.4015 14.4015 0 -7168.5576 2939.3774)">
					<stop  offset="0" style="stop-color:#FFFFFF"/>
					<stop  offset="0.1461" style="stop-color:#FFFFFF"/>
					<stop  offset="0.2936" style="stop-color:#F6F8F8"/>
					<stop  offset="0.4681" style="stop-color:#E5EAED"/>
					<stop  offset="0.6557" style="stop-color:#CCD5DA"/>
					<stop  offset="0.7079" style="stop-color:#C4CED4"/>
					<stop  offset="1" style="stop-color:#C4CED4"/>
				</linearGradient>
				<rect x="139.2" y="274.2" class="st11" width="22.3" height="38.2"/>
			</g>
		</g>
	</g>
	<g>
		<g>
			<g>
				<defs>
					<polygon id="SVGID_31_" points="201.6,277.4 192.3,312.4 197.1,312.4 207.3,274.2 199.9,274.2 					"/>
				</defs>
				<clipPath id="SVGID_32_">
					<use xlink:href="#SVGID_31_"  style="overflow:visible;"/>
				</clipPath>

					<linearGradient id="SVGID_33_" gradientUnits="userSpaceOnUse" x1="-185.0626" y1="510.3376" x2="-182.4136" y2="510.3376" gradientTransform="matrix(0 14.4001 14.4001 0 -7149.1123 2939.1204)">
					<stop  offset="0" style="stop-color:#FFFFFF"/>
					<stop  offset="0.1461" style="stop-color:#FFFFFF"/>
					<stop  offset="0.2936" style="stop-color:#F6F8F8"/>
					<stop  offset="0.4681" style="stop-color:#E5EAED"/>
					<stop  offset="0.6557" style="stop-color:#CCD5DA"/>
					<stop  offset="0.7079" style="stop-color:#C4CED4"/>
					<stop  offset="1" style="stop-color:#C4CED4"/>
				</linearGradient>
				<rect x="192.3" y="274.2" class="st12" width="15" height="38.1"/>
			</g>
		</g>
	</g>
	<g>
		<g>
			<g>
				<defs>
					<polygon id="SVGID_34_" points="123,274.2 124.9,277.5 127.1,277.5 117.8,312.4 122.6,312.4 131.9,277.5 135.6,277.5
						137.1,274.2 					"/>
				</defs>
				<clipPath id="SVGID_35_">
					<use xlink:href="#SVGID_34_"  style="overflow:visible;"/>
				</clipPath>

					<linearGradient id="SVGID_36_" gradientUnits="userSpaceOnUse" x1="-185.0601" y1="507.2138" x2="-182.4138" y2="507.2138" gradientTransform="matrix(0 14.3976 14.3976 0 -7175.1611 2938.6216)">
					<stop  offset="0" style="stop-color:#FFFFFF"/>
					<stop  offset="0.1461" style="stop-color:#FFFFFF"/>
					<stop  offset="0.2936" style="stop-color:#F6F8F8"/>
					<stop  offset="0.4681" style="stop-color:#E5EAED"/>
					<stop  offset="0.6557" style="stop-color:#CCD5DA"/>
					<stop  offset="0.7079" style="stop-color:#C4CED4"/>
					<stop  offset="1" style="stop-color:#C4CED4"/>
				</linearGradient>
				<rect x="117.8" y="274.2" class="st13" width="19.4" height="38.1"/>
			</g>
		</g>
	</g>
	<path class="st1" d="M152.7,289.7c0.3-0.2,0.5-0.5,0.9-1.8l2.4-8.9c0.3-1,0.2-1.4-0.3-1.6c-0.6-0.2-2.3-0.1-2.3-0.1l0,0
		c0.2,0,0.4,0.1,0.5,0.1c0.5,0.2,0.6,0.7,0.3,1.6l-2.4,8.9c-0.4,1.3-0.6,1.6-0.9,1.8c-0.2,0.2-1,0.5-1,0.5v0.2h0.4
		C151.8,290.4,152.4,290,152.7,289.7 M115.9,312.4h1.9l9.3-34.8h-1.9L115.9,312.4z M140,343.5h1.8l3.8-18.3l-4.3,11.9L140,343.5z
		 M163.7,312.4l13.1-35.1l-1.6-3.1h-1.9l1.6,3.1l-13.1,35.1H163.7z M124.9,277.5l-1.9-3.3h-1.9l1.9,3.3H124.9z M139.2,312.4l9.4-35
		l-1.8-3.2h-1.9l1.8,3.2l-9.4,35H139.2z M151.3,294.2c-0.4-0.3-1-0.4-1.9-0.4H149v0.1c0.2,0.1,0.4,0.1,0.5,0.2
		c0.3,0.3,0.4,0.8,0.2,1.7l-4.4,16.5h1.9l4.4-16.5C151.7,295,151.6,294.5,151.3,294.2 M231.9,333.8c-0.4-1.1-0.8-2.7-0.8-4
		s0.4-2.8,0.8-4.4l0.5-1.8c0.2-0.8,0.5-1.5,0.9-2.2l-1.6-2.9h-1.9l1.6,2.9c-0.4,0.7-0.7,1.5-0.9,2.2l-0.5,1.8
		c-0.4,1.5-0.7,3.1-0.8,4.4c0,1.3,0.4,2.8,0.8,4c0.4,1.1,2.8,6.9,2.9,7.8c0.2,0.8,0.3,1.4-0.3,3.5l-2,7.6c-0.2,0.6-0.3,1.1-0.9,1.2
		c0.2,0.1,0.5,0.1,0.9,0.1c1.5,0,1.6-0.5,1.9-1.4l2.1-7.6c0.6-2.1,0.4-2.7,0.3-3.5C234.7,340.7,232.3,334.9,231.9,333.8
		 M171.5,312.4h1.9l2.1-9.7h-1.9L171.5,312.4z M192.3,312.4l9.4-34.9l-1.8-3.2H198l1.8,3.2l-9.4,34.9H192.3z M239.3,318.4
		c-0.3,0-0.6,0-1,0c-0.8,0-1.6,0.1-2.2,0.2h1.8C238.4,318.4,238.8,318.4,239.3,318.4 M220.9,274.2H219l1.8,3.2l-9.4,34.9h1.9
		l9.4-34.9L220.9,274.2z M216.2,321.7c-0.6-0.2-2.3-0.1-2.3-0.1l0,0c0.2,0,0.4,0.1,0.5,0.1c0.5,0.2,0.6,0.7,0.3,1.6l-2.4,8.8
		c-0.4,1.4-0.6,1.6-0.9,1.8c-0.2,0.2-0.5,0.3-1,0.5c0,0.1,0,0.2,0,0.2h0.4c1.5,0,2.2-0.4,2.5-0.6s0.5-0.5,0.9-1.8l2.4-8.8
		C216.7,322.4,216.7,322,216.2,321.7 M174.3,299.2h-1l0,0h2.8l3.8-18.3l-4.3,12L174.3,299.2z M99.9,321.7c-0.6-0.2-2.3-0.1-2.3-0.1
		l0,0c0,0,0.4,0.1,0.5,0.1c0.5,0.2,0.6,0.7,0.3,1.6l-2.4,8.8c-0.4,1.4-0.6,1.6-0.9,1.8c-0.2,0.2-1,0.5-1,0.5v0.2h0.4
		c1.5,0,2.2-0.4,2.5-0.6s0.5-0.5,0.9-1.8l2.4-8.8C100.5,322.4,100.4,322,99.9,321.7 M238.6,330.2l2.1-7.7c0.1-0.5,0.2-0.9,0-1.1
		s-0.6-0.3-1.2-0.3c-0.4,0-0.7,0.1-1,0.1c0.1,0,0.2,0.1,0.3,0.2c0.1,0.2,0.1,0.5,0,1.1l-2.1,7.7L238.6,330.2z M209.8,338.1h-0.4v0.2
		c0,0,0.4,0.1,0.5,0.2c0.3,0.3,0.4,0.8,0.2,1.7l-4.4,16.5h1.9l4.4-16.5c0.2-1,0.1-1.5-0.2-1.7C211.4,338.2,210.8,338.1,209.8,338.1
		 M185.2,318.5h-1.9l1.8,3.2l-9.4,34.9h10.5l0,0h-8.6l9.4-34.9L185.2,318.5z M225.2,355.4c-0.8-1.1-0.6-2.5-0.2-3.8l2.3-8.5h-1.9
		l-2.3,8.5c-0.4,1.4-0.6,2.8,0.2,3.8s2.4,1.5,4.9,1.5c0.3,0,0.7,0,1,0C227.1,356.8,225.8,356.3,225.2,355.4 M209,321.7l-1.8-3.2
		h-1.9l1.8,3.2l-9.4,35h1.8L209,321.7z M164,321.8l-1.9-3.3h-1.9l1.9,3.3H164z M167.1,321.8l-16,34.8h1.9l16-34.8H167.1z
		 M83.4,356.7l9.3-34.9l-1.7-3.2h-1.9l1.7,3.3l-9.3,34.9L83.4,356.7L83.4,356.7z M93.6,338.1h-0.4v0.2c0,0,0.4,0.1,0.5,0.2
		c0.3,0.3,0.4,0.8,0.2,1.7l-3.2,12.1c-0.2,0.6-0.3,0.9-0.7,1.1c-0.2,0.1-0.9,0.2-0.9,0.2l0,0H90c1,0,1.5-0.1,1.9-0.3
		c0.3-0.2,0.5-0.5,0.7-1.1l3.2-12.1c0.3-1,0.1-1.5-0.2-1.7C95.1,338.2,94.5,338.1,93.6,338.1 M116.9,318.5H115l1.8,3.2l-9.4,34.9
		h1.9l9.4-34.9L116.9,318.5z M129.5,356.7l13.1-35.1l-1.6-3.1h-1.9l1.6,3.1l-13.1,35.1H129.5z M139.1,356.7l2.1-9.7h-1.9l-2.1,9.7
		H139.1z"/>
	<polygon class="st14" points="239.2,44.2 237.7,49.1 233,49.1 223.3,82.1 217.9,82.1 227.6,49.1 225,49.1 222.7,44.2 	"/>
	<path class="st14" d="M173.3,44.2h-9.4l2.4,4.6l-9.8,33.4h5.4l4.3-14.6h2.2c4.2,0,7.2-2.6,8.8-7.8l2.4-8.2
		C181.2,46,178.9,44.2,173.3,44.2 M173.9,52.3l-2.7,9c-0.5,1.7-2.2,1.7-3.8,1.7l4.2-14.3h1C174.5,48.7,174.7,49.7,173.9,52.3"/>
	<path class="st14" d="M194.6,43.4c-1.2,0-2.6,0.2-3.9,0.8h-7l2.4,4.5c-0.2,0.3-0.3,0.7-0.4,1.1l-7.9,26.7c-1.5,5,1.8,6.4,5.1,6.4
		c3.4,0,7.5-1.4,9-6.4l7.9-26.7C201.3,44.9,198,43.4,194.6,43.4 M194.3,50.3L186.7,76c-0.6,1.9-1.3,2.3-2.3,2.3
		c-1.1,0-1.6-0.4-1-2.3l7.6-25.7c0.6-1.9,1.3-2.4,2.4-2.4C194.4,48,194.8,48.4,194.3,50.3"/>
	<path class="st14" d="M214.4,44.2h-10.8l2.4,4.5l-9.9,33.5h5.4l5.3-18.1c2.5-0.1,3.1,0.8,2.4,3.1c-2.3,7.7-4.5,15.1-4.5,15.1h5.4
		c0,0,1.5-5.3,4.7-16.3c1-3.4-0.9-3.9-0.9-3.9c2.7-1.1,2.8-2.3,3.6-5.1l1.8-6.1C220.8,45.8,218.7,44.2,214.4,44.2 M214.1,50.6
		l-2.2,7.3c-0.4,1.4-1.1,2.5-3,2.5h-1l3.5-11.6h1.3C213.8,48.7,214.5,49.1,214.1,50.6"/>
	<polygon class="st14" points="251.2,44.2 242.1,44.2 244.5,48.7 234.6,82.1 246.9,82.1 248.4,77.2 241.5,77.2 	"/>
	<path class="st14" d="M262.2,44.2l2.4,4.5l-13.5,33.4h4.9l4.2-10.3h3.8l-2,10.3h5.5l7.1-38L262.2,44.2z M264.9,66.9h-2.8l6-15.8
		h0.4L264.9,66.9z"/>
	<polygon class="st14" points="295.9,44.2 286.5,76.6 286.3,76.6 291.8,44.2 280,44.2 282.4,48.7 272.5,82.1 276.9,82.1 286.3,49.7
		286.5,49.7 281.2,82.1 289.1,82.1 300.4,44.2 	"/>
	<path class="st14" d="M313.2,44.2h-10.3l2.4,4.6l-9.8,33.4h7.7c4.2,0,7.4-3.3,8.5-6.9l6.6-22.5C320.2,46.1,318.6,44.2,313.2,44.2
		 M313.2,51.5l-6.9,23.3c-0.7,2.4-1.5,2.8-2.9,2.8h-1.3l8.5-28.9h1.3C313.4,48.7,314,49.1,313.2,51.5"/>
</g>
</svg>
