<?xml version="1.0" encoding="utf-8"?>
<!-- Generator: Adobe Illustrator 20.0.0, SVG Export Plug-In . SVG Version: 6.00 Build 0)  -->
<svg version="1.1" id="Layer_3" xmlns="http://www.w3.org/2000/svg" xmlns:xlink="http://www.w3.org/1999/xlink" x="0px" y="0px"
	 width="400px" height="400px" viewBox="0 0 400 400" style="enable-background:new 0 0 400 400;" xml:space="preserve">
<style type="text/css">
	.st0{fill-rule:evenodd;clip-rule:evenodd;fill:#C2CCD2;}
	.st1{fill-rule:evenodd;clip-rule:evenodd;}
	.st2{fill-rule:evenodd;clip-rule:evenodd;fill:#FFFFFF;}
</style>
<path class="st0" d="M380.7,173.6c1.3-4.3,3.2-11,3.2-11l-14.4-5.8c-0.6-0.2-1.3-0.5-1.9-0.8l2.5-7.3l-13.7-4.4
	c1.1-3.6,1.7-5.8,1.7-5.9l1.6-5.5l-5.4-1.8c-51-17.3-98.4-25-153.7-25c-55.3,0-102.7,7.7-153.7,25l-5.4,1.8l1.6,5.5
	c0,0.1,0.7,2.2,1.7,5.9l-13.7,4.4l2.5,7.3c-0.6,0.3-1.3,0.5-1.9,0.8l-14.4,5.8c0,0,1.9,6.7,3.2,11c-4.1,1.5-12.6,4.5-12.6,4.5
	l31,94.4c0,0,8.2-3,12.8-4.6c1.9,4.9,4.1,10.9,4.1,10.9l16.4-6.8c0.5-0.2,1-0.4,1.6-0.6l1.7,5.3l6-2.7c4.9-2.1,19.9-8.2,40.4-13.6
	c-7.3,10.8-15,22.3-15,22.3s42.7-13.9,46.9-15.3c1.5,3.7,18.6,44.8,18.6,44.8s12.4-42.5,13.5-46.4c3.4,0.9,53.4,13.8,53.4,13.8
	s-14.2-16.4-24.6-28.4c48.2,0.4,91.8,17.4,104.9,23l6,2.6l1.7-5.3c0.5,0.2,1,0.4,1.6,0.6l16.4,6.8c0,0,2.3-6,4.1-10.9
	c4.6,1.6,12.8,4.6,12.8,4.6l31-94.4C393.3,178.2,384.8,175.1,380.7,173.6"/>
<path class="st1" d="M373,177.6c0.1-0.4,3.3-11.2,3.3-11.2l-9.2-3.7c-2.3-1-4.7-1.9-7.1-2.8l2.5-7.3l-13.5-4.3
	c2.1-7,3.4-11.4,3.4-11.4c-47-16-93.5-24.7-151.8-24.7c-58.3,0-104.7,8.8-151.8,24.7c0,0,1.3,4.4,3.4,11.4l-13.5,4.3l2.5,7.3
	c-2.4,0.9-4.8,1.8-7.1,2.8l-9.2,3.7c0,0,3.1,10.8,3.3,11.2c-0.7,0.3-12.4,4.5-12.4,4.5l27.1,82.5c0,0,12-4.3,12.5-4.5l4,10.6
	l10.4-4.3c2.5-1,5.1-2.1,7.6-3c0.9,2.9,1.5,4.8,1.7,5.4c5.9-2.5,27-11.2,55-17.2c-6.4,9.5-14.8,22-14.8,22s36.8-12,37.3-12.2
	c0.3,0.7,14.9,35.8,14.9,35.8s10.7-36.6,10.9-37.3c0.9,0.2,42.5,10.9,42.5,10.9s-13.6-15.8-21.8-25.2
	c56.6-2.7,108.9,18.9,118.9,23.2c0.2-0.6,0.8-2.5,1.7-5.4c2.5,1,5,2,7.6,3l10.4,4.3l4-10.6c0.5,0.2,12.5,4.5,12.5,4.5l27.1-82.5
	C385.4,182,373.7,177.8,373,177.6"/>
<path class="st2" d="M37.6,171.3L37.6,171.3c0,0-0.7,0.3-1.4,0.6c0.7,2.2,3.4,11.5,3.4,11.5s-9.7,3.5-12.1,4.4
	c1,2.9,20.3,61.7,21.3,64.8c2.5-0.9,12.1-4.4,12.1-4.4s3,7.9,3.9,10.2c0.8-0.3,1.6-0.7,1.6-0.7c46-19,88.7-27.8,134.3-27.8
	c45.6,0,88.3,8.8,134.3,27.8c0,0,0.8,0.3,1.6,0.7c0.9-2.3,3.9-10.2,3.9-10.2s9.7,3.5,12.1,4.4c1-3.1,20.3-61.9,21.3-64.8
	c-2.4-0.9-12.1-4.4-12.1-4.4s2.7-9.3,3.4-11.5c-0.7-0.3-1.4-0.6-1.4-0.6c-50.2-20.4-108-31.6-162.8-31.6
	C145.8,139.7,87.9,150.9,37.6,171.3"/>
<path class="st0" d="M349.3,246c-3.5-1.2-11.9-4.3-11.9-4.3s-2.7,7.1-3.8,10c-45.4-18.3-87.8-26.9-133-26.9
	c-45.2,0-87.6,8.6-133,26.9c-1.1-3-3.8-10-3.8-10s-8.4,3-11.9,4.3c-1.8-5.6-16.4-50-18.1-55.3c3.4-1.2,11.9-4.3,11.9-4.3
	s-2.4-8.4-3.4-11.6c49-19.4,105.1-30.1,158.5-30.1c53.1,0,109.1,10.7,158.1,30.1c-1,3.3-3.4,11.6-3.4,11.6s8.5,3.1,11.9,4.3
	C365.7,196,351.1,240.5,349.3,246"/>
<path class="st2" d="M116.3,214.7l-13-39.9c-1.6-5-7-7.7-11.9-6.1l0,0L55,180.5c-2.4,0.8-4.4,2.4-5.5,4.7c-0.7,1.3-1,2.8-1,4.3
	c0,1,0.2,2,0.5,2.9l13,39.9c1.6,5,6.9,7.7,11.9,6.1c0,0-0.1,0-0.2,0.1c0.3-0.1,3-1,36.6-11.9c3.9-1.3,6.5-4.9,6.5-9
	C116.8,216.6,116.6,215.6,116.3,214.7 M72.3,198.4l-1-2.9l16-5.3l1,2.9L72.3,198.4z M78.5,216.9l-1-2.9l16-5.3l1,2.9L78.5,216.9z"/>
<path class="st2" d="M169.8,184c0,0-4.1-21.4-4.1-21.4c-0.5-2.5-1.9-4.6-4-6c-2.1-1.4-4.6-1.9-7.1-1.5c0,0-45.2,8.6-48.4,9.2
	c0.4,2.3,9.2,48.4,9.2,48.4l1.2,6.5l0.9,4.9c0,0,19.3-3.7,22.1-4.2c-0.5-2.8-3.8-19.8-3.8-19.8l26.4-5c2.5-0.5,4.6-1.9,6-4
	c1.1-1.7,1.7-3.6,1.6-5.6L169.8,184z M129.9,182.1l-0.6-3l17.7-3.4l0.6,3L129.9,182.1z"/>
<path class="st2" d="M155.9,205.7c0.1,1.5,1.3,18.7,1.3,18.7s-20.6,0.9-23.4,1c2.2,1.6,18.9,13.3,18.9,13.3s-11.6,17.3-13.1,19.5
	c2.6-0.8,21.8-7.1,21.8-7.1s7.8,18.8,8.8,21.2c0.7-2.6,6.6-22.5,6.6-22.5s21.7,5.6,24.6,6.3c-1.9-2.2-16-18.5-16-18.5
	s17.1-14.6,19.1-16.2c-2.4,0-13.2-0.2-13.2-0.2l2.8-3h18.1l21.4-37.9v-27.1h-18.8l-8.2,14.5c0,0-0.9,7.3-1.1,8.9
	c-0.8,1.4-7.1,12.7-9.2,16.4h-3c3.2-5.6,7.3-12.9,7.3-12.9v-26.9h-19.3l-7.9,14.5c0,0-0.8,7.3-1,8.9
	C171.5,177.9,155.9,205.7,155.9,205.7"/>
<polygon class="st1" points="217.7,158.2 211.4,169.2 210.3,178.1 199.2,197.9 184.6,197.9 195.5,178.7 195.5,158.2 184.2,158.2
	178.2,169.1 177.2,178.1 161.3,206.4 163.9,213.1 173.8,213.1 169.3,224.5 160.9,215.3 161.9,228.7 147.3,229.3 158.9,237.5
	150.6,249.8 164,245.5 169.5,258.7 173.7,244.3 188.6,248.1 179,237 190.8,227.2 178.6,228 191.8,213.1 209.2,213.1 228.5,178.9
	228.5,158.2 "/>
<path class="st2" d="M351.6,185c-1.1-2.3-3.1-3.9-5.5-4.7l-36.4-11.8c-2.4-0.8-5-0.6-7.2,0.6c-2.2,1.1-3.9,3.1-4.7,5.5l-13,39.9
	c-0.3,1-0.5,1.9-0.5,2.9c0,1.5,0.4,2.9,1,4.3c1.1,2.2,3.1,3.9,5.5,4.7l36.4,11.8c2.4,0.8,5,0.6,7.2-0.6c2.2-1.1,3.9-3.1,4.7-5.5
	l13-39.9c0.3-1,0.5-2,0.5-2.9C352.6,187.8,352.3,186.3,351.6,185 M323.5,216.5l-16-5.3l1-2.9l16,5.3L323.5,216.5z M329.7,198
	l-16-5.3l1-2.9l16,5.3L329.7,198z"/>
<polygon class="st0" points="219.2,161.1 215.3,168 220.6,168 224.3,161.1 "/>
<polygon class="st0" points="191.4,161.1 186,161.1 182.1,168 187.8,168 "/>
<path class="st0" d="M201.2,200.6h-27.7l11.6-20.3h-5.4l-13.9,24.6h15.5l-11.3,25.8l-5.1-5.5l0.5,7l-7.6,0.3l6,4.3l-4.3,6.4l6.9-2.3
	l2.9,6.9l2.2-7.5l7.7,2l-5-5.8l6.2-5.1l-8.6,0.5H171l17.9-27h15.5l13.7-24.6h-5.3L201.2,200.6z M168.2,238c-1,0-1.9-0.9-1.9-1.9
	c0-1.1,0.9-1.9,1.9-1.9c1,0,1.9,0.8,1.9,1.9C170.1,237.2,169.2,238,168.2,238"/>
<polygon class="st0" points="186.4,170.8 181.4,170.8 180.8,176.7 185.9,176.7 "/>
<polygon class="st0" points="213.9,176.7 219,176.7 219.5,170.8 214.5,170.8 "/>
<path class="st2" d="M69.8,149.2c0.7,2.6,2.2,2.8,5.5,1.9l4.4-1.2c4.8-1.3,5.7-2.1,4.9-5.3c-0.9-3.4-2.3-3.4-7.9-1.9
	c-3.9,1.1-4.3,1.1-4.6,0.1c-0.2-0.6,0.3-1.1,1.1-1.3l4-1.1c1.7-0.4,1.9-0.1,2.1,0.8l3.6-1l-0.1-0.4c-0.6-2.1-1.3-3.4-5.5-2.3l-5,1.4
	c-4.6,1.2-4.3,2.9-3.7,5.1c0.8,2.9,1.6,3.4,7,1.9c4.7-1.2,5.1-1.3,5.4-0.3c0.2,0.9-0.5,1.2-1.3,1.4l-4.4,1.2c-1,0.3-1.6,0.3-1.9-0.9
	l-3.6,1L69.8,149.2z"/>
<path class="st2" d="M95.7,145.6l4.1-0.9l0.6-2.3l7.4-1.6l1.6,1.9l4.1-0.9l-9.1-10.5l-4.8,1L95.7,145.6z M102.6,134.6l3.3,4l-4.7,1
	L102.6,134.6z"/>
<polygon class="st2" points="124.2,140 127.9,139.4 126.5,130.6 126.5,130.6 134.8,138.3 140.6,137.4 138.7,125.3 135,125.9
	136.3,134.7 136.3,134.7 128,127 122.3,127.9 "/>
<path class="st2" d="M163.1,135.2l4.2-0.2l1-2.2l7.6-0.4l1.3,2.1l4.2-0.2l-7.3-11.8l-4.9,0.3L163.1,135.2z M171.7,125.3l2.7,4.5
	l-4.8,0.3L171.7,125.3z"/>
<polygon class="st2" points="192.1,133.9 195.8,133.9 195.8,125 195.8,125 202.9,133.9 208.7,133.9 208.7,121.7 204.9,121.7
	204.9,130.5 204.9,130.5 197.9,121.7 192.1,121.7 "/>
<polygon class="st2" points="220.2,124.9 225.5,125.2 225,134.4 228.8,134.5 229.2,125.4 234.5,125.7 234.7,122.6 220.4,121.9 "/>
<path class="st2" d="M245.2,131.5c-0.4,3.6,1.5,4.6,4.9,5l6,0.6c3.4,0.4,5.4-0.3,5.8-3.8l0.4-3.6c0.4-3.6-1.5-4.6-4.9-5l-6-0.6
	c-3.4-0.4-5.4,0.3-5.8,3.8L245.2,131.5 M249.3,129.4c0.2-1.5,0.6-2.4,2.6-2.2l4.4,0.5c2,0.2,2.2,1.2,2.1,2.7l-0.1,1.3
	c-0.2,1.8-0.6,2.4-2.4,2.2l-4.8-0.5c-1.8-0.2-2.1-0.9-1.9-2.7L249.3,129.4z"/>
<polygon class="st2" points="273.1,139.1 276.8,139.8 278.3,131 278.4,131.1 283.8,141 289.5,142 291.6,130 287.9,129.3
	286.4,138.1 286.3,138.1 280.9,128.1 275.2,127.1 "/>
<rect x="298.3" y="137" transform="matrix(0.2077 -0.9782 0.9782 0.2077 105.4241 407.8152)" class="st2" width="12.2" height="3.7"/>
<path class="st2" d="M317.7,143.9c-0.9,3.5,0.8,4.8,4.1,5.7l5.8,1.6c3.3,0.9,5.4,0.6,6.3-2.9l0.9-3.5c0.9-3.5-0.8-4.8-4.1-5.7
	l-5.8-1.6c-3.3-0.9-5.4-0.6-6.3,2.9L317.7,143.9 M322.1,142.5c0.4-1.5,1-2.3,2.9-1.8l4.2,1.1c1.9,0.5,2,1.5,1.6,3l-0.3,1.3
	c-0.5,1.7-1,2.3-2.7,1.8l-4.6-1.2c-1.7-0.5-1.9-1.2-1.4-2.9L322.1,142.5z"/>
<path class="st2" d="M284.5,215.7l7.6-43.2c0,0,0.1-1.5,0.1-1.5c0-2-0.6-3.9-1.8-5.5c-1.5-2.1-3.6-3.4-6.1-3.8l-48.5-8.2l-3.4,19.9
	c0,0-6.5,38.2-6.8,40.1c2.7,0.5,19.4,3.3,22.1,3.7c0.5-2.8,3.4-19.9,3.4-19.9l13.7,2.3l-0.3,1.7c0,0-1.9,11.5-2,12.2
	c-0.3,2.7,0.2,3.5,1,4.6c0.8,1.2,2.2,2,3.8,2.4c-0.2,0,22.9,5.6,22.9,5.6L284.5,215.7z M269.5,181.7l-17.7-3l0.5-3l17.7,3
	L269.5,181.7z"/>
<path class="st1" d="M80,210l-13.9,4.5c-2.3,0.8-4.8-0.5-5.6-2.8l-0.5-1.7l-6.2-19.2c-0.8-2.3,0.5-4.8,2.8-5.6L93,173.4
	c2.3-0.8,4.8,0.5,5.6,2.8L102,187l-11.7,3.8l-0.9-2.8c-0.3-0.9-1.3-1.4-2.2-1.1l-18,5.8c-0.9,0.3-1.4,1.3-1.1,2.2l1.6,5
	c0.3,0.9,1.3,1.4,2.2,1.1l4.2-1.4l23-7.5c2.3-0.8,4.8,0.5,5.6,2.8l0.7,2.1l6.2,19.1c0.8,2.3-0.5,4.8-2.8,5.6l-36.4,11.8
	c-2.3,0.8-4.8-0.5-5.6-2.8L63,219.6l11.8-3.8l1,3.2c0.3,0.9,1.3,1.4,2.2,1.1l18-5.9c0.9-0.3,1.4-1.3,1.1-2.2l-1.6-5
	c-0.3-0.9-1.4-1.6-2.3-1.3L80,210z M325.8,211.3c0.9,0.3,1.4,1.5,1.1,2.4l-1.6,5c-0.3,0.9-1.3,1.4-2.2,1.1l-18-5.8
	c-0.9-0.3-1.4-1.3-1.1-2.2l1-3.2l-11.8-3.8l-3.6,11.2c-0.8,2.3,0.5,4.8,2.8,5.6l36.4,11.8c2.3,0.8,4.8-0.5,5.6-2.8l6.2-19.1l0.7-2.1
	c0.8-2.3-0.5-4.8-2.8-5.6l-23-7.5l-4.2-1.4c-0.9-0.3-1.4-1.3-1.1-2.2l1.6-5c0.3-0.9,1.3-1.4,2.2-1.1l18,5.8c0.9,0.3,1.4,1.3,1.1,2.2
	l-1,2.8l11.8,3.8l3.5-10.8c0.8-2.3-0.5-4.8-2.9-5.6l-36.4-11.8c-2.3-0.8-4.8,0.5-5.6,2.8l-6.2,19.2l-0.5,1.7
	c-0.8,2.3,0.5,4.8,2.8,5.6l13.9,4.5L325.8,211.3z M248.9,180.8l21.9,3.7c1,0.2,1.9-0.5,2-1.5l0.8-5.1c0.2-1-0.5-1.9-1.5-2.1
	l-21.9-3.7L248.9,180.8 M287.2,171.7c0.4-2.4-1.2-4.7-3.6-5.1l-43.6-7.4l-8.5,50.2l12.2,2.1l3.4-19.9l15.8,2.7l6.1,1
	c1,0.2,1.6,1.1,1.5,2l-2.6,15c-0.5,3.2,1.3,3.4,2.1,3.5c0.9,0.2,10.5,1.9,10.5,1.9c-0.3-0.3-0.9-1.4-0.4-3.6l3-17.6
	c0.3-1.7-0.6-3.3-2-3.9c2.1-0.2,3-1.8,3.3-3.5l0.3-1.5L287.2,171.7z M128,185.3l21.8-4.1c1-0.2,1.6-1.1,1.4-2.1l-1-5.1
	c-0.2-1-1.1-1.6-2.1-1.4l-21.8,4.1L128,185.3 M133.8,215.9l-12.2,2.3l-9.5-50l43.4-8.2c2.4-0.5,4.7,1.1,5.2,3.5l4.1,21.4
	c0.5,2.4-1.1,4.7-3.5,5.2L130,196L133.8,215.9z"/>
</svg>
